<svg width="241" height="59" viewBox="0 0 241 59" fill="none" xmlns="http://www.w3.org/2000/svg">
<circle cx="24.9249" cy="33.2069" r="24.9249" fill="#D9D9D9"/>
<circle cx="49.8497" cy="16.88" r="16.3268" fill="#B5B3B3"/>
<path d="M89.1844 41.659C87.5808 41.659 86.0827 41.3742 84.6902 40.8045C83.2976 40.2137 82.0738 39.4014 81.0188 38.3675C79.9639 37.3336 79.141 36.131 78.5502 34.7595C77.9805 33.3669 77.6957 31.8689 77.6957 30.2653C77.6957 28.6828 77.9805 27.2059 78.5502 25.8344C79.141 24.4629 79.9533 23.2708 80.9872 22.258C82.0422 21.2242 83.2659 20.4224 84.6585 19.8527C86.0511 19.283 87.5491 18.9982 89.1527 18.9982C90.271 18.9982 91.3576 19.1564 92.4126 19.4729C93.4886 19.7894 94.4592 20.2325 95.3243 20.8022C96.1894 21.3719 96.8962 22.0259 97.4448 22.7644L95.2294 25.0748C94.5964 24.4629 93.9423 23.9565 93.2671 23.5557C92.613 23.1548 91.9378 22.8488 91.2416 22.6378C90.5453 22.4268 89.849 22.3213 89.1527 22.3213C88.0133 22.3213 86.9584 22.5218 85.9878 22.9227C85.0383 23.3236 84.1943 23.8827 83.4558 24.6001C82.7385 25.3175 82.1793 26.1614 81.7784 27.132C81.3775 28.0815 81.1771 29.1259 81.1771 30.2653C81.1771 31.3625 81.3881 32.4069 81.8101 33.3986C82.2321 34.3691 82.8123 35.2237 83.5508 35.9622C84.3104 36.7006 85.1754 37.2809 86.146 37.7029C87.1377 38.1249 88.1821 38.3359 89.2793 38.3359C90.1022 38.3359 90.8829 38.2198 91.6213 37.9877C92.3598 37.7345 93.0139 37.3864 93.5836 36.9433C94.1533 36.5002 94.5964 35.9938 94.9129 35.4241C95.2294 34.8333 95.3876 34.2109 95.3876 33.5568V32.9238L95.8623 33.3669H89.0894V29.9805H98.9007C98.9429 30.2125 98.9745 30.4446 98.9956 30.6767C99.0167 30.8877 99.0273 31.0987 99.0273 31.3097C99.0484 31.4996 99.0589 31.6895 99.0589 31.8794C99.0589 33.3353 98.8057 34.6645 98.2993 35.8672C97.7929 37.0488 97.0861 38.0721 96.1788 38.9372C95.2927 39.8023 94.2482 40.4775 93.0456 40.9627C91.864 41.4269 90.5769 41.659 89.1844 41.659ZM110.156 41.659C108.531 41.659 107.075 41.2898 105.788 40.5513C104.522 39.7917 103.52 38.7684 102.782 37.4813C102.043 36.1732 101.674 34.6856 101.674 33.0188C101.674 31.3519 102.043 29.875 102.782 28.5879C103.52 27.2797 104.522 26.2564 105.788 25.5179C107.075 24.7583 108.531 24.3785 110.156 24.3785C111.759 24.3785 113.194 24.7583 114.46 25.5179C115.747 26.2564 116.76 27.2797 117.499 28.5879C118.237 29.875 118.606 31.3519 118.606 33.0188C118.606 34.6856 118.237 36.1732 117.499 37.4813C116.76 38.7684 115.747 39.7917 114.46 40.5513C113.194 41.2898 111.759 41.659 110.156 41.659ZM110.156 38.684C111.148 38.684 112.034 38.4413 112.814 37.9561C113.595 37.4497 114.207 36.7745 114.65 35.9305C115.093 35.0654 115.304 34.0949 115.283 33.0188C115.304 31.9216 115.093 30.951 114.65 30.107C114.207 29.242 113.595 28.5668 112.814 28.0815C112.034 27.5962 111.148 27.3536 110.156 27.3536C109.164 27.3536 108.268 27.6068 107.466 28.1131C106.685 28.5984 106.073 29.2736 105.63 30.1387C105.187 30.9827 104.976 31.9427 104.997 33.0188C104.976 34.0949 105.187 35.0654 105.63 35.9305C106.073 36.7745 106.685 37.4497 107.466 37.9561C108.268 38.4413 109.164 38.684 110.156 38.684ZM138.688 41.659C137.485 41.659 136.367 41.5008 135.333 41.1843C134.32 40.8678 133.392 40.3931 132.548 39.7601C131.725 39.106 130.987 38.3042 130.333 37.3547L132.675 34.6645C133.708 36.1415 134.7 37.1648 135.65 37.7345C136.599 38.3042 137.728 38.589 139.036 38.589C139.838 38.589 140.566 38.4624 141.22 38.2093C141.874 37.9561 142.391 37.6079 142.771 37.1648C143.151 36.7217 143.34 36.2154 143.34 35.6457C143.34 35.2659 143.277 34.9072 143.151 34.5696C143.024 34.232 142.823 33.9261 142.549 33.6518C142.296 33.3775 141.958 33.1243 141.536 32.8922C141.136 32.6601 140.661 32.4596 140.112 32.2908C139.564 32.101 138.931 31.9427 138.213 31.8161C137.074 31.584 136.082 31.2781 135.238 30.8983C134.394 30.5185 133.687 30.0438 133.118 29.4741C132.548 28.9044 132.126 28.2608 131.852 27.5435C131.577 26.805 131.44 25.9821 131.44 25.0748C131.44 24.1886 131.63 23.3658 132.01 22.6062C132.411 21.8466 132.949 21.1925 133.624 20.6439C134.32 20.0742 135.133 19.6417 136.061 19.3463C136.989 19.0298 137.992 18.8716 139.068 18.8716C140.207 18.8716 141.252 19.0193 142.201 19.3147C143.151 19.6101 143.994 20.0531 144.733 20.6439C145.471 21.2136 146.083 21.9204 146.569 22.7644L144.163 25.1381C143.741 24.4418 143.267 23.8616 142.739 23.3974C142.212 22.9121 141.631 22.5534 140.998 22.3213C140.365 22.0681 139.69 21.9415 138.973 21.9415C138.15 21.9415 137.433 22.0681 136.821 22.3213C136.209 22.5745 135.723 22.9332 135.365 23.3974C135.027 23.8405 134.858 24.368 134.858 24.9799C134.858 25.423 134.943 25.8344 135.112 26.2142C135.28 26.5729 135.534 26.8999 135.871 27.1953C136.23 27.4696 136.705 27.7228 137.295 27.9549C137.886 28.1659 138.593 28.3558 139.416 28.5246C140.576 28.7778 141.61 29.1048 142.518 29.5057C143.425 29.8855 144.195 30.3391 144.828 30.8666C145.461 31.3941 145.936 31.9849 146.252 32.639C146.59 33.2931 146.759 33.9999 146.759 34.7595C146.759 36.1732 146.431 37.3969 145.777 38.4308C145.123 39.4647 144.195 40.2665 142.992 40.8361C141.79 41.3847 140.355 41.659 138.688 41.659ZM157.172 41.659C155.8 41.659 154.545 41.2792 153.406 40.5196C152.287 39.7601 151.391 38.7262 150.715 37.418C150.04 36.1099 149.703 34.6329 149.703 32.9871C149.703 31.3203 150.04 29.8433 150.715 28.5562C151.412 27.2481 152.34 26.2247 153.501 25.4863C154.682 24.7478 156.001 24.3785 157.457 24.3785C158.322 24.3785 159.113 24.5051 159.83 24.7583C160.548 25.0115 161.17 25.3702 161.698 25.8344C162.246 26.2775 162.689 26.7944 163.027 27.3852C163.386 27.976 163.607 28.609 163.692 29.2842L162.964 29.031V24.7267H166.255V41.3425H162.964V37.3864L163.723 37.1648C163.597 37.7345 163.333 38.2937 162.932 38.8422C162.552 39.3697 162.056 39.8445 161.445 40.2665C160.854 40.6884 160.189 41.026 159.451 41.2792C158.733 41.5324 157.974 41.659 157.172 41.659ZM158.026 38.6523C159.018 38.6523 159.894 38.4097 160.653 37.9244C161.413 37.4391 162.004 36.7745 162.426 35.9305C162.869 35.0654 163.09 34.0843 163.09 32.9871C163.09 31.9111 162.869 30.951 162.426 30.107C162.004 29.2631 161.413 28.5984 160.653 28.1131C159.894 27.6279 159.018 27.3852 158.026 27.3852C157.056 27.3852 156.191 27.6279 155.431 28.1131C154.693 28.5984 154.102 29.2631 153.659 30.107C153.237 30.951 153.026 31.9111 153.026 32.9871C153.026 34.0843 153.237 35.0654 153.659 35.9305C154.102 36.7745 154.693 37.4391 155.431 37.9244C156.191 38.4097 157.056 38.6523 158.026 38.6523ZM170.807 41.3425V17.9221H174.067V28.1448L173.497 28.5246C173.708 27.7861 174.119 27.1109 174.731 26.499C175.343 25.8661 176.071 25.3597 176.915 24.9799C177.759 24.579 178.624 24.3785 179.51 24.3785C180.776 24.3785 181.831 24.6317 182.675 25.1381C183.519 25.6234 184.152 26.3724 184.574 27.3852C184.996 28.398 185.207 29.6745 185.207 31.2148V41.3425H181.947V31.4363C181.947 30.4868 181.821 29.7062 181.567 29.0943C181.314 28.4613 180.924 28.0076 180.396 27.7334C179.869 27.438 179.215 27.3114 178.434 27.3536C177.801 27.3536 177.221 27.4591 176.694 27.6701C176.166 27.86 175.702 28.1342 175.301 28.4929C174.921 28.8516 174.615 29.2736 174.383 29.7589C174.172 30.2231 174.067 30.7295 174.067 31.2781V41.3425H172.453C172.178 41.3425 171.904 41.3425 171.63 41.3425C171.355 41.3425 171.081 41.3425 170.807 41.3425ZM196.023 41.659C194.651 41.659 193.396 41.2792 192.256 40.5196C191.138 39.7601 190.241 38.7262 189.566 37.418C188.891 36.1099 188.553 34.6329 188.553 32.9871C188.553 31.3203 188.891 29.8433 189.566 28.5562C190.262 27.2481 191.191 26.2247 192.351 25.4863C193.533 24.7478 194.852 24.3785 196.307 24.3785C197.172 24.3785 197.964 24.5051 198.681 24.7583C199.398 25.0115 200.021 25.3702 200.548 25.8344C201.097 26.2775 201.54 26.7944 201.878 27.3852C202.236 27.976 202.458 28.609 202.542 29.2842L201.814 29.031V24.7267H205.106V41.3425H201.814V37.3864L202.574 37.1648C202.447 37.7345 202.184 38.2937 201.783 38.8422C201.403 39.3697 200.907 39.8445 200.295 40.2665C199.704 40.6884 199.04 41.026 198.301 41.2792C197.584 41.5324 196.824 41.659 196.023 41.659ZM196.877 38.6523C197.869 38.6523 198.744 38.4097 199.504 37.9244C200.264 37.4391 200.854 36.7745 201.276 35.9305C201.719 35.0654 201.941 34.0843 201.941 32.9871C201.941 31.9111 201.719 30.951 201.276 30.107C200.854 29.2631 200.264 28.5984 199.504 28.1131C198.744 27.6279 197.869 27.3852 196.877 27.3852C195.906 27.3852 195.041 27.6279 194.282 28.1131C193.543 28.5984 192.953 29.2631 192.509 30.107C192.087 30.951 191.876 31.9111 191.876 32.9871C191.876 34.0843 192.087 35.0654 192.509 35.9305C192.953 36.7745 193.543 37.4391 194.282 37.9244C195.041 38.4097 195.906 38.6523 196.877 38.6523ZM218.393 41.659C217.675 41.659 216.958 41.543 216.24 41.3109C215.544 41.0788 214.901 40.7728 214.31 40.3931C213.74 39.9922 213.255 39.5596 212.854 39.0954C212.474 38.6101 212.221 38.1249 212.094 37.6396L212.917 37.1965V41.2476H209.657V17.9221H212.917V28.5246L212.411 28.2397C212.516 27.7545 212.748 27.2903 213.107 26.8472C213.466 26.383 213.92 25.9715 214.468 25.6129C215.038 25.2331 215.65 24.9377 216.304 24.7267C216.958 24.4946 217.622 24.3785 218.298 24.3785C219.796 24.3785 221.125 24.7478 222.285 25.4863C223.446 26.2247 224.364 27.2481 225.039 28.5562C225.714 29.8433 226.052 31.3203 226.052 32.9871C226.052 34.654 225.714 36.1415 225.039 37.4497C224.385 38.7578 223.478 39.7917 222.317 40.5513C221.157 41.2898 219.848 41.659 218.393 41.659ZM217.855 38.684C218.825 38.684 219.69 38.4413 220.45 37.9561C221.209 37.4497 221.811 36.7745 222.254 35.9305C222.697 35.0654 222.918 34.0843 222.918 32.9871C222.918 31.9111 222.697 30.951 222.254 30.107C221.832 29.242 221.241 28.5668 220.481 28.0815C219.722 27.5962 218.846 27.3536 217.855 27.3536C216.863 27.3536 215.987 27.5962 215.228 28.0815C214.468 28.5668 213.867 29.242 213.424 30.107C212.981 30.951 212.759 31.9111 212.759 32.9871C212.759 34.0843 212.981 35.0654 213.424 35.9305C213.867 36.7745 214.468 37.4497 215.228 37.9561C215.987 38.4413 216.863 38.684 217.855 38.684ZM230.131 41.3425V24.7267H233.391V41.3425H230.131ZM231.713 21.0554C231.017 21.0554 230.479 20.876 230.099 20.5173C229.719 20.1586 229.529 19.6523 229.529 18.9982C229.529 18.3863 229.719 17.8904 230.099 17.5107C230.5 17.1309 231.038 16.941 231.713 16.941C232.41 16.941 232.948 17.1203 233.327 17.479C233.707 17.8377 233.897 18.3441 233.897 18.9982C233.897 19.6101 233.697 20.1059 233.296 20.4857C232.916 20.8655 232.388 21.0554 231.713 21.0554Z" fill="#5B5B5B"/>
</svg>
