<svg width="241" height="58" viewBox="0 0 241 58" fill="none" xmlns="http://www.w3.org/2000/svg">
<circle cx="25.3887" cy="32.7252" r="24.9249" fill="#3C40C6"/>
<circle cx="50.3136" cy="16.3986" r="16.3268" fill="#575FCF"/>
<path d="M89.6482 41.1773C88.0447 41.1773 86.5466 40.8925 85.154 40.3228C83.7615 39.732 82.5377 38.9197 81.4827 37.8858C80.4277 36.8519 79.6049 35.6493 79.0141 34.2778C78.4444 32.8852 78.1595 31.3872 78.1595 29.7836C78.1595 28.2011 78.4444 26.7242 79.0141 25.3527C79.6049 23.9812 80.4172 22.7891 81.4511 21.7763C82.506 20.7425 83.7298 19.9407 85.1224 19.371C86.5149 18.8013 88.013 18.5165 89.6166 18.5165C90.7348 18.5165 91.8215 18.6747 92.8764 18.9912C93.9525 19.3077 94.9231 19.7508 95.7882 20.3205C96.6533 20.8902 97.3601 21.5443 97.9087 22.2827L95.6932 24.5931C95.0602 23.9812 94.4062 23.4749 93.731 23.074C93.0769 22.6731 92.4017 22.3671 91.7054 22.1561C91.0091 21.9451 90.3129 21.8396 89.6166 21.8396C88.4772 21.8396 87.4222 22.0401 86.4516 22.441C85.5022 22.8419 84.6582 23.401 83.9197 24.1184C83.2023 24.8358 82.6432 25.6798 82.2423 26.6503C81.8414 27.5998 81.641 28.6442 81.641 29.7836C81.641 30.8808 81.852 31.9252 82.2739 32.9169C82.6959 33.8875 83.2762 34.742 84.0147 35.4805C84.7742 36.219 85.6393 36.7992 86.6099 37.2212C87.6016 37.6432 88.646 37.8542 89.7432 37.8542C90.566 37.8542 91.3467 37.7381 92.0852 37.506C92.8237 37.2528 93.4778 36.9047 94.0475 36.4616C94.6171 36.0185 95.0602 35.5121 95.3767 34.9424C95.6932 34.3516 95.8515 33.7292 95.8515 33.0751V32.4421L96.3262 32.8852H89.5533V29.4988H99.3645C99.4067 29.7309 99.4384 29.963 99.4595 30.195C99.4806 30.406 99.4911 30.617 99.4911 30.828C99.5122 31.0179 99.5228 31.2078 99.5228 31.3977C99.5228 32.8536 99.2696 34.1829 98.7632 35.3855C98.2568 36.5671 97.55 37.5904 96.6427 38.4555C95.7565 39.3206 94.7121 39.9958 93.5094 40.481C92.3279 40.9452 91.0408 41.1773 89.6482 41.1773ZM110.62 41.1773C108.995 41.1773 107.539 40.8081 106.252 40.0696C104.986 39.31 103.984 38.2867 103.246 36.9996C102.507 35.6915 102.138 34.2039 102.138 32.5371C102.138 30.8702 102.507 29.3933 103.246 28.1062C103.984 26.798 104.986 25.7747 106.252 25.0362C107.539 24.2766 108.995 23.8968 110.62 23.8968C112.223 23.8968 113.658 24.2766 114.924 25.0362C116.211 25.7747 117.224 26.798 117.962 28.1062C118.701 29.3933 119.07 30.8702 119.07 32.5371C119.07 34.2039 118.701 35.6915 117.962 36.9996C117.224 38.2867 116.211 39.31 114.924 40.0696C113.658 40.8081 112.223 41.1773 110.62 41.1773ZM110.62 38.2023C111.611 38.2023 112.498 37.9597 113.278 37.4744C114.059 36.968 114.671 36.2928 115.114 35.4488C115.557 34.5837 115.768 33.6132 115.747 32.5371C115.768 31.4399 115.557 30.4693 115.114 29.6254C114.671 28.7603 114.059 28.0851 113.278 27.5998C112.498 27.1145 111.611 26.8719 110.62 26.8719C109.628 26.8719 108.731 27.1251 107.93 27.6315C107.149 28.1167 106.537 28.7919 106.094 29.657C105.651 30.501 105.44 31.461 105.461 32.5371C105.44 33.6132 105.651 34.5837 106.094 35.4488C106.537 36.2928 107.149 36.968 107.93 37.4744C108.731 37.9597 109.628 38.2023 110.62 38.2023ZM139.152 41.1773C137.949 41.1773 136.831 41.0191 135.797 40.7026C134.784 40.3861 133.856 39.9114 133.012 39.2784C132.189 38.6243 131.451 37.8225 130.796 36.873L133.138 34.1829C134.172 35.6598 135.164 36.6831 136.114 37.2528C137.063 37.8225 138.192 38.1074 139.5 38.1074C140.302 38.1074 141.03 37.9808 141.684 37.7276C142.338 37.4744 142.855 37.1262 143.235 36.6831C143.614 36.2401 143.804 35.7337 143.804 35.164C143.804 34.7842 143.741 34.4255 143.614 34.0879C143.488 33.7503 143.287 33.4444 143.013 33.1701C142.76 32.8958 142.422 32.6426 142 32.4105C141.599 32.1784 141.125 31.978 140.576 31.8092C140.027 31.6193 139.394 31.461 138.677 31.3344C137.538 31.1023 136.546 30.7964 135.702 30.4166C134.858 30.0368 134.151 29.5621 133.582 28.9924C133.012 28.4227 132.59 27.7792 132.316 27.0618C132.041 26.3233 131.904 25.5004 131.904 24.5931C131.904 23.707 132.094 22.8841 132.474 22.1245C132.875 21.3649 133.413 20.7108 134.088 20.1622C134.784 19.5925 135.597 19.16 136.525 18.8646C137.453 18.5481 138.456 18.3899 139.532 18.3899C140.671 18.3899 141.715 18.5376 142.665 18.833C143.614 19.1284 144.458 19.5715 145.197 20.1622C145.935 20.7319 146.547 21.4388 147.032 22.2827L144.627 24.6564C144.205 23.9601 143.73 23.3799 143.203 22.9157C142.675 22.4304 142.095 22.0717 141.462 21.8396C140.829 21.5865 140.154 21.4599 139.437 21.4599C138.614 21.4599 137.896 21.5865 137.285 21.8396C136.673 22.0928 136.187 22.4515 135.829 22.9157C135.491 23.3588 135.322 23.8863 135.322 24.4982C135.322 24.9413 135.407 25.3527 135.575 25.7325C135.744 26.0912 135.997 26.4182 136.335 26.7136C136.694 26.9879 137.168 27.2411 137.759 27.4732C138.35 27.6842 139.057 27.8741 139.88 28.0429C141.04 28.2961 142.074 28.6231 142.981 29.024C143.889 29.4038 144.659 29.8575 145.292 30.3849C145.925 30.9124 146.4 31.5032 146.716 32.1573C147.054 32.8114 147.222 33.5182 147.222 34.2778C147.222 35.6915 146.895 36.9152 146.241 37.9491C145.587 38.983 144.659 39.7848 143.456 40.3545C142.253 40.903 140.819 41.1773 139.152 41.1773ZM157.636 41.1773C156.264 41.1773 155.009 40.7975 153.869 40.038C152.751 39.2784 151.854 38.2445 151.179 36.9363C150.504 35.6282 150.167 34.1512 150.167 32.5054C150.167 30.8386 150.504 29.3616 151.179 28.0745C151.876 26.7664 152.804 25.7431 153.964 25.0046C155.146 24.2661 156.465 23.8968 157.921 23.8968C158.786 23.8968 159.577 24.0234 160.294 24.2766C161.012 24.5298 161.634 24.8885 162.162 25.3527C162.71 25.7958 163.153 26.3127 163.491 26.9035C163.85 27.4943 164.071 28.1273 164.155 28.8025L163.428 28.5493V24.245H166.719V40.8608H163.428V36.9047L164.187 36.6831C164.061 37.2528 163.797 37.812 163.396 38.3605C163.016 38.888 162.52 39.3628 161.908 39.7848C161.318 40.2068 160.653 40.5443 159.914 40.7975C159.197 41.0507 158.438 41.1773 157.636 41.1773ZM158.49 38.1707C159.482 38.1707 160.358 37.928 161.117 37.4427C161.877 36.9574 162.468 36.2928 162.89 35.4488C163.333 34.5837 163.554 33.6026 163.554 32.5054C163.554 31.4294 163.333 30.4693 162.89 29.6254C162.468 28.7814 161.877 28.1167 161.117 27.6315C160.358 27.1462 159.482 26.9035 158.49 26.9035C157.52 26.9035 156.655 27.1462 155.895 27.6315C155.157 28.1167 154.566 28.7814 154.123 29.6254C153.701 30.4693 153.49 31.4294 153.49 32.5054C153.49 33.6026 153.701 34.5837 154.123 35.4488C154.566 36.2928 155.157 36.9574 155.895 37.4427C156.655 37.928 157.52 38.1707 158.49 38.1707ZM171.271 40.8608V17.4404H174.53V27.6631L173.961 28.0429C174.172 27.3044 174.583 26.6292 175.195 26.0173C175.807 25.3844 176.535 24.878 177.379 24.4982C178.223 24.0973 179.088 23.8968 179.974 23.8968C181.24 23.8968 182.295 24.15 183.139 24.6564C183.983 25.1417 184.616 25.8907 185.038 26.9035C185.46 27.9163 185.671 29.1928 185.671 30.7331V40.8608H182.411V30.9546C182.411 30.0052 182.285 29.2245 182.031 28.6126C181.778 27.9796 181.388 27.526 180.86 27.2517C180.333 26.9563 179.679 26.8297 178.898 26.8719C178.265 26.8719 177.685 26.9774 177.157 27.1884C176.63 27.3783 176.166 27.6526 175.765 28.0112C175.385 28.3699 175.079 28.7919 174.847 29.2772C174.636 29.7414 174.53 30.2478 174.53 30.7964V40.8608H172.916C172.642 40.8608 172.368 40.8608 172.093 40.8608C171.819 40.8608 171.545 40.8608 171.271 40.8608ZM196.486 41.1773C195.115 41.1773 193.86 40.7975 192.72 40.038C191.602 39.2784 190.705 38.2445 190.03 36.9363C189.355 35.6282 189.017 34.1512 189.017 32.5054C189.017 30.8386 189.355 29.3616 190.03 28.0745C190.726 26.7664 191.655 25.7431 192.815 25.0046C193.997 24.2661 195.315 23.8968 196.771 23.8968C197.636 23.8968 198.428 24.0234 199.145 24.2766C199.862 24.5298 200.485 24.8885 201.012 25.3527C201.561 25.7958 202.004 26.3127 202.342 26.9035C202.7 27.4943 202.922 28.1273 203.006 28.8025L202.278 28.5493V24.245H205.57V40.8608H202.278V36.9047L203.038 36.6831C202.911 37.2528 202.647 37.812 202.247 38.3605C201.867 38.888 201.371 39.3628 200.759 39.7848C200.168 40.2068 199.504 40.5443 198.765 40.7975C198.048 41.0507 197.288 41.1773 196.486 41.1773ZM197.341 38.1707C198.333 38.1707 199.208 37.928 199.968 37.4427C200.727 36.9574 201.318 36.2928 201.74 35.4488C202.183 34.5837 202.405 33.6026 202.405 32.5054C202.405 31.4294 202.183 30.4693 201.74 29.6254C201.318 28.7814 200.727 28.1167 199.968 27.6315C199.208 27.1462 198.333 26.9035 197.341 26.9035C196.37 26.9035 195.505 27.1462 194.746 27.6315C194.007 28.1167 193.416 28.7814 192.973 29.6254C192.551 30.4693 192.34 31.4294 192.34 32.5054C192.34 33.6026 192.551 34.5837 192.973 35.4488C193.416 36.2928 194.007 36.9574 194.746 37.4427C195.505 37.928 196.37 38.1707 197.341 38.1707ZM218.856 41.1773C218.139 41.1773 217.422 41.0613 216.704 40.8292C216.008 40.5971 215.365 40.2912 214.774 39.9114C214.204 39.5105 213.719 39.0779 213.318 38.6137C212.938 38.1285 212.685 37.6432 212.558 37.1579L213.381 36.7148V40.7659H210.121V17.4404H213.381V28.0429L212.875 27.7581C212.98 27.2728 213.212 26.8086 213.571 26.3655C213.93 25.9013 214.383 25.4899 214.932 25.1312C215.502 24.7514 216.114 24.456 216.768 24.245C217.422 24.0129 218.086 23.8968 218.762 23.8968C220.26 23.8968 221.589 24.2661 222.749 25.0046C223.91 25.7431 224.828 26.7664 225.503 28.0745C226.178 29.3616 226.516 30.8386 226.516 32.5054C226.516 34.1723 226.178 35.6598 225.503 36.968C224.849 38.2762 223.941 39.31 222.781 40.0696C221.621 40.8081 220.312 41.1773 218.856 41.1773ZM218.318 38.2023C219.289 38.2023 220.154 37.9597 220.914 37.4744C221.673 36.968 222.275 36.2928 222.718 35.4488C223.161 34.5837 223.382 33.6026 223.382 32.5054C223.382 31.4294 223.161 30.4693 222.718 29.6254C222.296 28.7603 221.705 28.0851 220.945 27.5998C220.186 27.1145 219.31 26.8719 218.318 26.8719C217.327 26.8719 216.451 27.1145 215.692 27.5998C214.932 28.0851 214.331 28.7603 213.888 29.6254C213.444 30.4693 213.223 31.4294 213.223 32.5054C213.223 33.6026 213.444 34.5837 213.888 35.4488C214.331 36.2928 214.932 36.968 215.692 37.4744C216.451 37.9597 217.327 38.2023 218.318 38.2023ZM230.595 40.8608V24.245H233.855V40.8608H230.595ZM232.177 20.5737C231.481 20.5737 230.943 20.3943 230.563 20.0356C230.183 19.6769 229.993 19.1706 229.993 18.5165C229.993 17.9046 230.183 17.4088 230.563 17.029C230.964 16.6492 231.502 16.4593 232.177 16.4593C232.873 16.4593 233.411 16.6386 233.791 16.9973C234.171 17.356 234.361 17.8624 234.361 18.5165C234.361 19.1284 234.16 19.6242 233.76 20.004C233.38 20.3838 232.852 20.5737 232.177 20.5737Z" fill="#3C40C6"/>
</svg>
