<svg width="121" height="30" viewBox="0 0 121 30" fill="none" xmlns="http://www.w3.org/2000/svg">
<circle cx="12.6735" cy="17.2204" r="12.6735" fill="#3C40C6"/>
<circle cx="25.3466" cy="8.91883" r="8.30164" fill="#575FCF"/>
<path d="M45.3475 21.281C44.5321 21.281 43.7704 21.1362 43.0623 20.8465C42.3542 20.5461 41.732 20.1331 41.1956 19.6074C40.6591 19.0817 40.2407 18.4702 39.9403 17.7729C39.6507 17.0648 39.5058 16.3031 39.5058 15.4877C39.5058 14.6831 39.6507 13.9321 39.9403 13.2347C40.2407 12.5374 40.6538 11.9312 41.1795 11.4163C41.7159 10.8906 42.3381 10.4829 43.0462 10.1932C43.7543 9.90357 44.516 9.75873 45.3314 9.75873C45.9 9.75873 46.4525 9.83919 46.9889 10.0001C47.5361 10.161 48.0296 10.3863 48.4694 10.676C48.9093 10.9657 49.2687 11.2983 49.5476 11.6738L48.4212 12.8485C48.0993 12.5374 47.7667 12.2799 47.4234 12.0761C47.0908 11.8722 46.7475 11.7167 46.3935 11.6094C46.0394 11.5021 45.6854 11.4485 45.3314 11.4485C44.752 11.4485 44.2156 11.5504 43.7221 11.7542C43.2393 11.9581 42.8102 12.2424 42.4347 12.6071C42.0699 12.9719 41.7856 13.401 41.5818 13.8945C41.378 14.3773 41.276 14.9084 41.276 15.4877C41.276 16.0456 41.3833 16.5766 41.5979 17.0809C41.8125 17.5744 42.1075 18.0089 42.483 18.3844C42.8692 18.7599 43.3091 19.0549 43.8026 19.2695C44.3068 19.484 44.8379 19.5913 45.3957 19.5913C45.8141 19.5913 46.2111 19.5323 46.5866 19.4143C46.9621 19.2856 47.2947 19.1085 47.5843 18.8832C47.874 18.6579 48.0993 18.4005 48.2602 18.1108C48.4212 17.8104 48.5016 17.4939 48.5016 17.1613V16.8395L48.743 17.0648H45.2992V15.3429H50.2879C50.3094 15.4609 50.3254 15.5789 50.3362 15.6969C50.3469 15.8042 50.3523 15.9115 50.3523 16.0188C50.363 16.1153 50.3684 16.2119 50.3684 16.3084C50.3684 17.0487 50.2396 17.7246 49.9821 18.3361C49.7247 18.9369 49.3653 19.4572 48.9039 19.8971C48.4533 20.3369 47.9223 20.6803 47.3108 20.927C46.71 21.163 46.0555 21.281 45.3475 21.281ZM56.0108 21.281C55.1847 21.281 54.4445 21.0933 53.79 20.7178C53.1463 20.3316 52.6367 19.8113 52.2613 19.1568C51.8858 18.4917 51.698 17.7353 51.698 16.8878C51.698 16.0402 51.8858 15.2892 52.2613 14.6348C52.6367 13.9696 53.1463 13.4493 53.79 13.0738C54.4445 12.6876 55.1847 12.4945 56.0108 12.4945C56.8262 12.4945 57.5557 12.6876 58.1994 13.0738C58.8539 13.4493 59.3688 13.9696 59.7443 14.6348C60.1198 15.2892 60.3076 16.0402 60.3076 16.8878C60.3076 17.7353 60.1198 18.4917 59.7443 19.1568C59.3688 19.8113 58.8539 20.3316 58.1994 20.7178C57.5557 21.0933 56.8262 21.281 56.0108 21.281ZM56.0108 19.7683C56.5151 19.7683 56.9657 19.645 57.3626 19.3982C57.7596 19.1407 58.0707 18.7974 58.296 18.3683C58.5213 17.9284 58.6286 17.4349 58.6178 16.8878C58.6286 16.3299 58.5213 15.8364 58.296 15.4072C58.0707 14.9674 57.7596 14.6241 57.3626 14.3773C56.9657 14.1306 56.5151 14.0072 56.0108 14.0072C55.5066 14.0072 55.0506 14.1359 54.643 14.3934C54.246 14.6402 53.9349 14.9835 53.7096 15.4233C53.4843 15.8525 53.377 16.3406 53.3877 16.8878C53.377 17.4349 53.4843 17.9284 53.7096 18.3683C53.9349 18.7974 54.246 19.1407 54.643 19.3982C55.0506 19.645 55.5066 19.7683 56.0108 19.7683ZM70.5184 21.281C69.9069 21.281 69.3383 21.2006 68.8126 21.0397C68.2977 20.8787 67.8256 20.6373 67.3965 20.3155C66.9781 19.9829 66.6026 19.5752 66.27 19.0924L67.4609 17.7246C67.9865 18.4756 68.4908 18.9959 68.9736 19.2856C69.4563 19.5752 70.0303 19.7201 70.6955 19.7201C71.1031 19.7201 71.4733 19.6557 71.8059 19.5269C72.1384 19.3982 72.4013 19.2212 72.5944 18.9959C72.7875 18.7706 72.8841 18.5131 72.8841 18.2234C72.8841 18.0303 72.8519 17.848 72.7875 17.6763C72.7231 17.5046 72.6212 17.3491 72.4817 17.2096C72.353 17.0701 72.1814 16.9414 71.9668 16.8234C71.7629 16.7054 71.5216 16.6035 71.2426 16.5176C70.9637 16.4211 70.6418 16.3406 70.2771 16.2762C69.6977 16.1582 69.1935 16.0027 68.7644 15.8096C68.3352 15.6164 67.9758 15.3751 67.6861 15.0854C67.3965 14.7957 67.1819 14.4685 67.0424 14.1037C66.903 13.7282 66.8332 13.3098 66.8332 12.8485C66.8332 12.3979 66.9298 11.9795 67.1229 11.5933C67.3267 11.2071 67.6003 10.8745 67.9436 10.5955C68.2977 10.3059 68.7107 10.0859 69.1828 9.93575C69.6548 9.77482 70.1644 9.69436 70.7116 9.69436C71.2909 9.69436 71.8219 9.76946 72.3047 9.91966C72.7875 10.0699 73.2166 10.2952 73.5921 10.5955C73.9676 10.8852 74.2788 11.2446 74.5255 11.6738L73.3025 12.8807C73.0879 12.5267 72.8465 12.2316 72.5783 11.9956C72.3101 11.7489 72.0151 11.5665 71.6932 11.4485C71.3714 11.3197 71.028 11.2553 70.6633 11.2553C70.2449 11.2553 69.8801 11.3197 69.569 11.4485C69.2579 11.5772 69.0111 11.7596 68.8287 11.9956C68.6571 12.2209 68.5712 12.4891 68.5712 12.8002C68.5712 13.0255 68.6142 13.2347 68.7 13.4278C68.7858 13.6102 68.9145 13.7765 69.0862 13.9267C69.2686 14.0662 69.51 14.1949 69.8104 14.3129C70.1108 14.4202 70.4702 14.5168 70.8886 14.6026C71.4786 14.7313 72.0043 14.8976 72.4657 15.1015C72.927 15.2946 73.3186 15.5253 73.6404 15.7935C73.9623 16.0617 74.2037 16.3621 74.3646 16.6946C74.5362 17.0272 74.6221 17.3866 74.6221 17.7729C74.6221 18.4917 74.4558 19.1139 74.1232 19.6396C73.7906 20.1653 73.3186 20.573 72.707 20.8626C72.0955 21.1416 71.366 21.281 70.5184 21.281ZM79.9169 21.281C79.2196 21.281 78.5812 21.0879 78.0019 20.7017C77.4333 20.3155 76.9773 19.7898 76.634 19.1246C76.2907 18.4595 76.1191 17.7085 76.1191 16.8717C76.1191 16.0241 76.2907 15.2731 76.634 14.6187C76.9881 13.9535 77.4601 13.4332 78.0502 13.0577C78.651 12.6822 79.3215 12.4945 80.0617 12.4945C80.5016 12.4945 80.9039 12.5588 81.2687 12.6876C81.6335 12.8163 81.9499 12.9987 82.2182 13.2347C82.4971 13.46 82.7224 13.7229 82.894 14.0233C83.0764 14.3237 83.1891 14.6455 83.232 14.9888L82.8619 14.8601V12.6715H84.5355V21.1201H82.8619V19.1085L83.2481 18.9959C83.1837 19.2856 83.0496 19.5699 82.8458 19.8488C82.6527 20.117 82.4005 20.3584 82.0894 20.573C81.789 20.7875 81.4511 20.9592 81.0756 21.0879C80.7108 21.2167 80.3246 21.281 79.9169 21.281ZM80.3514 19.7522C80.8556 19.7522 81.3009 19.6289 81.6871 19.3821C82.0733 19.1354 82.3737 18.7974 82.5883 18.3683C82.8136 17.9284 82.9262 17.4295 82.9262 16.8717C82.9262 16.3245 82.8136 15.8364 82.5883 15.4072C82.3737 14.9781 82.0733 14.6402 81.6871 14.3934C81.3009 14.1467 80.8556 14.0233 80.3514 14.0233C79.8579 14.0233 79.418 14.1467 79.0318 14.3934C78.6563 14.6402 78.3559 14.9781 78.1306 15.4072C77.9161 15.8364 77.8088 16.3245 77.8088 16.8717C77.8088 17.4295 77.9161 17.9284 78.1306 18.3683C78.3559 18.7974 78.6563 19.1354 79.0318 19.3821C79.418 19.6289 79.8579 19.7522 80.3514 19.7522ZM86.8498 21.1201V9.21158H88.5073V14.4095L88.2177 14.6026C88.325 14.2271 88.5342 13.8838 88.8453 13.5727C89.1564 13.2508 89.5265 12.9933 89.9557 12.8002C90.3848 12.5964 90.8247 12.4945 91.2753 12.4945C91.919 12.4945 92.4554 12.6232 92.8845 12.8807C93.3137 13.1275 93.6355 13.5083 93.8501 14.0233C94.0647 14.5382 94.1719 15.1873 94.1719 15.9705V21.1201H92.5144V16.0831C92.5144 15.6004 92.45 15.2034 92.3213 14.8923C92.1926 14.5704 91.9941 14.3398 91.7259 14.2003C91.4577 14.0501 91.1251 13.9857 90.7281 14.0072C90.4063 14.0072 90.1112 14.0608 89.843 14.1681C89.5748 14.2647 89.3388 14.4041 89.135 14.5865C88.9418 14.7689 88.7863 14.9835 88.6683 15.2302C88.561 15.4662 88.5073 15.7237 88.5073 16.0027V21.1201H87.6866C87.5472 21.1201 87.4077 21.1201 87.2682 21.1201C87.1287 21.1201 86.9893 21.1201 86.8498 21.1201ZM99.6712 21.281C98.9739 21.281 98.3355 21.0879 97.7562 20.7017C97.1876 20.3155 96.7316 19.7898 96.3883 19.1246C96.045 18.4595 95.8734 17.7085 95.8734 16.8717C95.8734 16.0241 96.045 15.2731 96.3883 14.6187C96.7424 13.9535 97.2144 13.4332 97.8045 13.0577C98.4053 12.6822 99.0758 12.4945 99.8161 12.4945C100.256 12.4945 100.658 12.5588 101.023 12.6876C101.388 12.8163 101.704 12.9987 101.972 13.2347C102.251 13.46 102.477 13.7229 102.648 14.0233C102.831 14.3237 102.943 14.6455 102.986 14.9888L102.616 14.8601V12.6715H104.29V21.1201H102.616V19.1085L103.002 18.9959C102.938 19.2856 102.804 19.5699 102.6 19.8488C102.407 20.117 102.155 20.3584 101.844 20.573C101.543 20.7875 101.205 20.9592 100.83 21.0879C100.465 21.2167 100.079 21.281 99.6712 21.281ZM100.106 19.7522C100.61 19.7522 101.055 19.6289 101.441 19.3821C101.828 19.1354 102.128 18.7974 102.343 18.3683C102.568 17.9284 102.681 17.4295 102.681 16.8717C102.681 16.3245 102.568 15.8364 102.343 15.4072C102.128 14.9781 101.828 14.6402 101.441 14.3934C101.055 14.1467 100.61 14.0233 100.106 14.0233C99.6122 14.0233 99.1723 14.1467 98.7861 14.3934C98.4106 14.6402 98.1102 14.9781 97.8849 15.4072C97.6704 15.8364 97.5631 16.3245 97.5631 16.8717C97.5631 17.4295 97.6704 17.9284 97.8849 18.3683C98.1102 18.7974 98.4106 19.1354 98.7861 19.3821C99.1723 19.6289 99.6122 19.7522 100.106 19.7522ZM111.046 21.281C110.681 21.281 110.316 21.222 109.951 21.104C109.597 20.986 109.27 20.8305 108.97 20.6373C108.68 20.4335 108.433 20.2136 108.229 19.9775C108.036 19.7308 107.908 19.484 107.843 19.2373L108.262 19.012V21.0718H106.604V9.21158H108.262V14.6026L108.004 14.4578C108.058 14.211 108.176 13.975 108.358 13.7497C108.541 13.5137 108.771 13.3045 109.05 13.1221C109.34 12.929 109.651 12.7788 109.984 12.6715C110.316 12.5535 110.654 12.4945 110.997 12.4945C111.759 12.4945 112.435 12.6822 113.025 13.0577C113.615 13.4332 114.082 13.9535 114.425 14.6187C114.768 15.2731 114.94 16.0241 114.94 16.8717C114.94 17.7192 114.768 18.4756 114.425 19.1407C114.093 19.8059 113.631 20.3316 113.041 20.7178C112.451 21.0933 111.786 21.281 111.046 21.281ZM110.772 19.7683C111.266 19.7683 111.705 19.645 112.092 19.3982C112.478 19.1407 112.784 18.7974 113.009 18.3683C113.234 17.9284 113.347 17.4295 113.347 16.8717C113.347 16.3245 113.234 15.8364 113.009 15.4072C112.794 14.9674 112.494 14.6241 112.108 14.3773C111.722 14.1306 111.276 14.0072 110.772 14.0072C110.268 14.0072 109.823 14.1306 109.436 14.3773C109.05 14.6241 108.744 14.9674 108.519 15.4072C108.294 15.8364 108.181 16.3245 108.181 16.8717C108.181 17.4295 108.294 17.9284 108.519 18.3683C108.744 18.7974 109.05 19.1407 109.436 19.3982C109.823 19.645 110.268 19.7683 110.772 19.7683ZM117.014 21.1201V12.6715H118.672V21.1201H117.014ZM117.819 10.8048C117.465 10.8048 117.191 10.7136 116.998 10.5312C116.805 10.3488 116.708 10.0913 116.708 9.75873C116.708 9.44761 116.805 9.19549 116.998 9.00238C117.202 8.80927 117.475 8.71271 117.819 8.71271C118.173 8.71271 118.446 8.8039 118.64 8.98629C118.833 9.16867 118.929 9.42615 118.929 9.75873C118.929 10.0699 118.827 10.322 118.623 10.5151C118.43 10.7082 118.162 10.8048 117.819 10.8048Z" fill="#3C40C6"/>
</svg>
