<svg width="1920" height="1644" viewBox="0 0 1920 1644" fill="none" xmlns="http://www.w3.org/2000/svg">
<g clip-path="url(#clip0_6885_50683)">
<rect width="1920" height="1644" fill="#EDF0F3"/>
<circle cx="2885.5" cy="539.5" r="1804.5" fill="#F7FAFC"/>
<path d="M1704 387.624L1842.6 387.402C1842.6 387.402 1835.68 378.448 1828.09 377.325C1828.09 377.325 1813.25 333.361 1788.54 333.029C1765.54 332.776 1756.36 360.129 1756.36 360.129C1756.36 360.129 1745.68 347.884 1735.51 353.5C1725.34 359.116 1719.69 375.189 1719.69 375.189C1719.69 375.189 1708.14 381.296 1704 387.624Z" fill="#EBEBEB"/>
<path d="M1353.68 539.009L1178.41 539.278C1178.41 539.278 1178.41 528.077 1202.53 525.847C1202.53 525.847 1224.51 476.805 1258.17 483.402C1279.15 487.467 1289.91 516.228 1289.91 516.228C1289.91 516.228 1305.73 493.558 1318.38 497.924C1331.04 502.291 1338.62 526.4 1338.62 526.4C1338.62 526.4 1351.68 532.681 1353.68 539.009Z" fill="#EBEBEB"/>
<path d="M1721.86 850.741L1546.59 851.01C1546.59 851.01 1546.59 839.809 1570.71 837.578C1570.71 837.578 1592.69 788.536 1626.35 795.117C1647.33 799.183 1658.09 827.944 1658.09 827.944C1658.09 827.944 1673.91 805.274 1686.56 809.64C1699.22 814.007 1706.8 838.116 1706.8 838.116C1706.8 838.116 1719.86 844.413 1721.86 850.741Z" fill="#EBEBEB"/>
<path d="M1719.32 266.239L1600.15 266.413C1600.15 266.413 1611.38 255.924 1616.38 255.924C1621.38 255.924 1635.9 220.756 1654.55 222.212C1673.21 223.667 1683.11 249.834 1683.11 249.834C1683.11 249.834 1705.76 242.699 1719.32 266.239Z" fill="#EBEBEB"/>
<path d="M1344.52 805.069L1225.33 805.275C1225.33 805.275 1236.56 794.802 1241.56 794.786C1246.56 794.771 1261.1 759.619 1279.73 761.09C1298.37 762.561 1308.32 788.712 1308.32 788.712C1308.32 788.712 1330.96 781.545 1344.52 805.069Z" fill="#EBEBEB"/>
<path d="M1326.36 301.185L1224.45 301.344C1224.45 301.344 1229.51 294.731 1235.09 293.892C1235.09 293.892 1245.9 261.541 1264.09 261.272C1281 261.034 1287.82 281.126 1287.82 281.126C1287.82 281.126 1295.64 272.108 1303.13 276.222C1310.63 280.335 1314.87 292.042 1314.87 292.042C1314.87 292.042 1323.3 296.645 1326.36 301.185Z" fill="#EBEBEB"/>
<path d="M1835.21 749.684L1733.3 749.842C1733.3 749.842 1738.36 743.229 1743.94 742.406C1743.94 742.406 1754.75 710.039 1772.94 709.786C1789.85 709.532 1796.67 729.64 1796.67 729.64C1796.67 729.64 1804.49 720.606 1811.99 724.72C1819.48 728.833 1823.74 740.635 1823.74 740.635C1823.74 740.635 1832.16 745.159 1835.21 749.684Z" fill="#EBEBEB"/>
<path d="M1793.76 539.498C1793.86 599.34 1774.91 657.661 1739.66 706.019C1711.17 745.234 1673.09 776.484 1629.07 796.778C1585.06 817.072 1536.57 825.732 1488.24 821.929C1439.92 818.126 1393.38 801.988 1353.08 775.058C1312.78 748.128 1280.06 711.307 1258.05 668.118C1236.05 624.929 1225.49 576.816 1227.4 528.381C1229.3 479.947 1243.6 432.811 1268.93 391.483C1294.26 350.155 1329.77 316.018 1372.06 292.336C1414.36 268.654 1462.02 256.221 1510.49 256.225C1518.26 256.225 1525.96 256.536 1533.57 257.158C1577.46 260.664 1619.91 274.422 1657.51 297.325C1699.12 322.578 1733.51 358.13 1757.38 400.549C1781.25 442.969 1793.78 490.824 1793.76 539.498Z" fill="#455A64"/>
<g opacity="0.2">
<path d="M1571.67 673.193C1568.1 682.685 1574.05 683.112 1574.44 687.083C1574.84 691.053 1574.44 698.584 1562.94 710.101C1551.44 721.618 1532.39 719.213 1528.42 723.975C1524.45 728.737 1517.71 748.97 1508.19 755.725C1498.66 762.481 1497.11 758.494 1483.59 761.278C1470.06 764.063 1459.87 781.544 1455.82 789.833C1451.77 798.123 1456.61 812.061 1447.09 812.456C1437.57 812.852 1433.2 792.222 1424.48 781.117C1415.77 770.011 1412.97 760.076 1410.25 746.993C1407.52 733.91 1411.83 706.525 1410.25 695.815C1408.66 685.105 1380.05 666.058 1369.7 652.959C1359.35 639.86 1345.13 613.694 1345.97 604.961C1347.17 596.491 1351.4 588.743 1357.87 583.145C1362.61 579.57 1360.65 577.592 1361.44 574.412C1362.23 571.233 1366.19 570.442 1366.99 566.502C1367.8 562.563 1364.62 550.682 1360.67 548.657C1356.71 546.633 1353.93 553.404 1351.54 552.217C1349.15 551.03 1342.05 542.725 1339.25 541.902C1336.45 541.08 1337.25 547.06 1333.3 539.529C1329.34 531.999 1327.33 512.952 1324.17 509.772C1321.01 506.592 1318.62 515.325 1311.07 509.772C1303.52 504.219 1300.36 493.509 1297.18 491.927C1294 490.345 1289.65 492.322 1286.39 485.963C1283.13 479.603 1289.25 468.118 1286.39 469.304C1283.53 470.491 1277.36 479.619 1275.76 470.886C1274.16 462.154 1283.67 432.808 1282.09 416.94C1280.51 401.073 1286.04 384.398 1297.15 370.92C1297.15 370.92 1298.73 362.187 1300.31 356.682C1301.89 351.176 1336.02 328.918 1339.99 322.558C1341.57 319.916 1342.19 315.755 1342.79 311.278C1391.36 275.454 1450.14 256.157 1510.5 256.225C1518.27 256.225 1525.96 256.536 1533.58 257.158L1534.37 258.218C1537.8 262.569 1541.52 265.353 1551.57 269.055C1561.61 272.757 1564 277.519 1561.88 281.489C1559.76 285.46 1556.33 286.235 1552.39 286.52C1548.45 286.805 1544.72 284.653 1540.49 287.311C1536.27 289.969 1532.03 304.238 1526.48 305.029C1520.92 305.82 1511.13 292.373 1509.07 288.371C1507.02 284.369 1513.82 275.937 1510.66 271.966C1507.49 267.995 1501.73 268.802 1492.73 267.995C1483.73 267.188 1462.86 270.653 1463.65 274.086C1464.44 277.519 1494.33 273.548 1495.12 280.414C1495.91 287.279 1473.18 298.923 1469.21 297.816C1465.24 296.708 1459.95 289.906 1454.13 289.099C1448.31 288.292 1443.55 293.054 1439.89 293.592C1436.24 294.129 1431.98 289.621 1426.35 290.681C1420.72 291.741 1419.48 296.503 1416.56 298.353C1413.63 300.204 1406.78 300.204 1405.99 304.428C1405.2 308.652 1414.72 311.057 1417.06 313.699C1419.41 316.341 1414.15 325.327 1416.53 327.177C1418.9 329.028 1433.72 316.103 1437.44 312.939C1441.16 309.775 1444.31 296.028 1452.25 296.281C1460.19 296.534 1462.83 310.029 1465.47 311.357C1468.12 312.686 1473.94 308.193 1482.65 310.029C1491.37 311.864 1497.46 330.927 1499.06 336.749C1500.66 342.57 1504.34 348.392 1501.18 350.765C1498.02 353.138 1483.78 349.183 1481.86 345.481C1479.95 341.779 1491.35 336.211 1490.6 334.898C1489.84 333.585 1483.19 331.734 1479.74 333.79C1476.29 335.847 1474.73 340.118 1471.03 341.241C1467.32 342.365 1457.53 331.196 1454.89 334.376C1452.25 337.555 1457.53 347.601 1460.17 349.974C1462.82 352.347 1472.61 353.676 1473.4 356.302C1474.19 358.928 1466.79 364.766 1457.8 364.212C1448.81 363.658 1441.4 356.808 1437.96 359.719C1434.53 362.63 1436.38 370.287 1433.99 372.945C1431.6 375.603 1418.65 373.736 1412.3 380.602C1405.96 387.467 1402.92 397.861 1396.59 403.683C1390.27 409.505 1387.34 402.101 1378.87 410.296C1370.41 418.491 1369.08 436.747 1368.81 443.091C1368.54 449.434 1368.81 454.465 1366.71 453.674C1364.6 452.883 1361.68 447.346 1360.89 443.882C1360.1 440.417 1362.74 434.627 1362.74 432.507C1362.74 430.387 1350.57 419.55 1343.42 418.491C1336.27 417.431 1329.93 423.237 1324.64 427.476C1319.36 431.716 1309.84 430.925 1306.4 434.358C1302.97 437.791 1300.31 468.213 1302.95 475.363C1305.6 482.514 1309.05 482.498 1317.51 478.796C1325.97 475.094 1321.21 467.944 1326.24 469.542C1331.27 471.139 1333.9 476.423 1333.9 480.616C1333.9 484.808 1323.85 494.854 1325.18 497.812C1326.51 500.77 1335.23 497.274 1339.42 498.603C1343.61 499.932 1345.75 502.574 1344.45 513.411C1343.15 524.247 1343.93 532.727 1350.27 536.286C1356.62 539.846 1360.19 531.129 1362.93 532.331C1365.66 533.534 1369.68 539.862 1373.65 539.466C1377.62 539.071 1375.63 535.495 1383.15 533.138C1390.66 530.781 1387.89 529.167 1389.47 524.405C1391.06 519.644 1395.8 515.673 1400.98 518.077C1406.15 520.482 1402.56 524.026 1402.95 527.997C1403.35 531.967 1412.44 532.363 1419.63 534.736C1426.81 537.109 1430.7 534.736 1444.94 539.482C1459.18 544.228 1460.02 558.466 1465.96 560.902C1471.91 563.338 1491.75 559.32 1506.04 569.635C1520.32 579.949 1516.35 598.997 1523.44 604.55C1530.53 610.102 1557.17 617.633 1567.48 619.626C1577.8 621.619 1579.38 614.469 1587.71 616.462C1596.05 618.455 1600.8 620.828 1603.53 632.282C1606.24 642.454 1575.23 663.669 1571.67 673.193Z" fill="black"/>
<path d="M1358.48 470.335C1358.75 472.581 1365.36 473.499 1373.29 478.008C1381.22 482.516 1384.14 495.726 1388.37 495.41C1392.59 495.093 1391.28 489.082 1392.87 487.5C1394.47 485.918 1397.1 482.469 1392.87 479.036C1388.65 475.603 1384.52 468.183 1376.79 467.123C1369.05 466.064 1367.74 462.9 1364.3 463.168C1363.42 463.174 1362.55 463.375 1361.76 463.757C1360.96 464.139 1360.26 464.693 1359.7 465.378C1359.15 466.063 1358.75 466.863 1358.54 467.72C1358.33 468.577 1358.31 469.47 1358.48 470.335Z" fill="black"/>
<path d="M1402.13 492.546C1400.94 495.789 1402.13 498.114 1410.59 500.218C1419.06 502.323 1426.98 498.114 1424.34 496.39C1421.7 494.666 1417.73 495.457 1419.33 492.546C1420.92 489.635 1420.37 485.411 1413.49 486.218C1406.61 487.025 1403.19 489.651 1402.13 492.546Z" fill="black"/>
<path d="M1431.74 493.444C1428.87 493.872 1427.25 498.902 1430.16 502.066C1433.07 505.23 1433.07 504.708 1436.49 502.066C1439.91 499.424 1445.22 498.111 1443.89 495.469C1442.57 492.827 1434.66 493.033 1431.74 493.444Z" fill="black"/>
<path d="M1454.76 504.267C1456.06 500.296 1462.67 504.267 1465.6 508.428C1468.53 512.588 1467.18 518.742 1465.6 523.235C1464.02 527.728 1462.96 533.012 1459.27 530.908C1455.59 528.804 1459.54 522.444 1459 518.742C1458.46 515.04 1453.7 507.51 1454.76 504.267Z" fill="black"/>
<path d="M1568.76 283.609C1567.37 286.931 1573.78 288.101 1577.48 290.221C1581.18 292.341 1584.09 293.654 1586.21 290.221C1588.33 286.788 1585.42 282.802 1582.51 282.011C1579.6 281.22 1570.08 280.429 1568.76 283.609Z" fill="black"/>
<path d="M1618.74 314.551C1621.19 317.114 1625.35 316.655 1628.23 320.373C1631.11 324.09 1630.08 330.418 1633.78 332.269C1637.48 334.12 1640.11 332.269 1640.39 329.627C1640.68 326.985 1635.11 320.373 1635.65 319.044C1636.19 317.715 1643.32 320.895 1644.92 324.866C1646.52 328.836 1643.34 334.358 1647.02 335.433C1650.71 336.509 1649.93 331.731 1651.53 330.687C1653.13 329.643 1656.55 330.149 1656.28 326.97C1656.01 323.79 1651.77 316.924 1648.37 314.551C1644.97 312.178 1642.28 309.52 1636.47 308.223C1630.67 306.926 1625.1 307.97 1622.23 310.343C1619.37 312.716 1617.23 312.953 1618.74 314.551Z" fill="black"/>
<path d="M1733.18 364.403C1733.02 365.473 1732.49 366.456 1731.69 367.187C1726.13 371.142 1719.51 357.394 1711.86 354.752C1704.2 352.11 1700.78 342.318 1699.2 344.438C1697.62 346.558 1698.14 349.469 1695.77 352.901C1693.39 356.334 1689.94 355.543 1688.36 362.156C1686.78 368.769 1695.77 380.934 1693.65 384.905C1691.53 388.876 1688.9 387.547 1684.65 387.294C1680.39 387.041 1681.21 390.727 1675.68 389.129C1670.14 387.531 1674.87 380.666 1666.18 372.471C1657.5 364.276 1654.54 362.694 1656.41 358.976C1658.27 355.259 1655.62 349.991 1659.57 349.484C1663.53 348.978 1666.72 354.768 1669.36 356.35C1672 357.932 1675.44 353.186 1675.69 348.946C1675.94 344.707 1666.44 338.901 1663.03 335.61C1659.63 332.32 1659.21 320.36 1660.54 318.018C1661.86 315.677 1665.84 316.436 1666.86 310.615C1667.48 307.197 1662.12 301.486 1657.5 297.357C1686.53 315.009 1712.16 337.716 1733.18 364.403Z" fill="black"/>
<path d="M1772.69 601.528C1773.48 593.064 1769.24 592.526 1773.48 576.928C1777.72 561.329 1768.98 544.655 1765.8 541.222C1762.62 537.789 1755.76 538.833 1750.21 542.282C1744.65 545.731 1748.62 548.357 1744.91 549.686C1741.19 551.015 1737.5 548.879 1734.07 549.148C1730.64 549.417 1727.46 558.149 1720.05 557.88C1712.65 557.612 1707.89 547.028 1702.33 539.498C1696.78 531.967 1685.39 527.205 1681.77 517.935C1678.14 508.664 1685.2 494.411 1683.62 483.558C1682.04 472.706 1674.89 475.094 1673.56 469.02C1672.23 462.945 1674.62 465.856 1676.47 460.018C1678.32 454.18 1674.35 451.032 1678.05 441.034C1681.75 431.036 1688.36 425.958 1686.77 421.465C1685.17 416.972 1680.15 409.568 1679.89 404.284C1679.62 399 1684.92 399.253 1694.96 391.834C1705.01 384.414 1707.62 384.968 1715.34 387.61C1720.84 389.643 1726.5 391.23 1732.27 392.356C1736.76 393.147 1742.85 404.79 1744.7 404.252C1746.55 403.715 1746.82 400.297 1747.61 395.267C1748.12 393.083 1749.26 391.1 1750.9 389.572C1780.75 437.447 1795.64 493.143 1793.64 549.527C1791.65 605.911 1772.87 660.418 1739.72 706.066C1766.64 664.84 1771.88 609.976 1772.69 601.528Z" fill="black"/>
</g>
<path opacity="0.1" d="M1729.95 718.612C1699.73 755.646 1660.63 784.432 1616.3 802.29C1571.96 820.147 1523.82 826.496 1476.37 820.743C1428.92 814.991 1383.69 797.325 1344.9 769.391C1306.12 741.457 1275.03 704.162 1254.53 660.98C1234.04 617.797 1224.8 570.131 1227.69 522.418C1230.57 474.706 1245.48 428.5 1271.03 388.1C1296.58 347.701 1331.93 314.424 1373.8 291.366C1415.67 268.307 1462.7 256.219 1510.5 256.225C1518.27 256.225 1525.97 256.536 1533.59 257.158C1535.7 257.316 1537.8 257.506 1539.92 257.743C1499.88 262.091 1461.4 275.699 1427.52 297.488C1393.64 319.278 1365.3 348.652 1344.74 383.287C1324.18 417.921 1311.96 456.866 1309.05 497.039C1306.14 537.213 1312.61 577.513 1327.97 614.75C1343.32 651.987 1367.13 685.141 1397.51 711.587C1427.89 738.033 1464.01 757.046 1503.01 767.122C1542.01 777.198 1582.81 778.061 1622.2 769.641C1661.59 761.221 1698.48 743.751 1729.95 718.612Z" fill="black"/>
<path opacity="0.3" d="M1793.77 539.497C1793.87 599.341 1774.92 657.663 1739.67 706.019C1713.1 742.552 1678.21 772.237 1637.9 792.617C1672.99 772.522 1703.44 745.225 1727.23 712.521C1760.58 666.609 1779.47 611.786 1781.47 555.074C1783.48 498.362 1768.51 442.342 1738.48 394.191C1733.02 385.431 1727.09 376.981 1720.7 368.879C1699.58 342.03 1673.82 319.179 1644.65 301.407C1606.82 278.393 1564.13 264.576 1519.99 261.066C1512.35 260.449 1504.58 260.132 1496.78 260.132C1473.72 260.117 1450.75 262.89 1428.36 268.39C1454.99 260.321 1482.67 256.222 1510.5 256.225C1518.27 256.225 1525.97 256.536 1533.59 257.158C1604.5 262.936 1670.63 295.19 1718.84 347.504C1767.04 399.818 1793.79 468.359 1793.77 539.497Z" fill="white"/>
<path opacity="0.7" d="M1567.98 473.593C1613.01 469.504 1657.45 460.436 1700.48 446.557C1700.48 446.557 1694.03 442.048 1686.88 443.393C1686.88 443.393 1673.01 415.407 1649.42 420.628C1627.48 425.374 1618.55 446.715 1618.57 446.794C1618.58 446.873 1608.33 439.58 1598.49 445.085C1588.65 450.591 1583.08 463.009 1583.08 463.009C1583.08 463.009 1571.99 468.736 1567.98 473.593Z" fill="#DBDBDB"/>
<path d="M1378.75 515.658C1322.27 503.045 1267.86 482.485 1217.15 454.593C1217.15 454.482 1217.06 446.604 1238.57 455.969C1238.57 455.859 1258.13 430.214 1289.2 447.237C1308.51 457.757 1318.59 482.041 1318.57 482.041C1318.56 482.041 1333.38 470.286 1345.36 476.852C1357.33 483.417 1364.48 502.892 1364.48 502.907C1364.48 502.923 1376.86 510.612 1378.75 515.658Z" fill="#EBEBEB"/>
<path d="M1807.6 487.735C1756.89 515.621 1702.48 536.18 1646 548.801C1646 548.69 1646 540.891 1668.97 533.344C1668.97 533.234 1689.98 492.212 1721.18 485.805C1740.6 481.708 1750.32 498.461 1750.33 498.572C1750.35 498.683 1764.81 475.791 1776.18 473.529C1787.56 471.267 1794.23 485.489 1794.23 485.521C1794.23 485.552 1805.88 484.128 1807.6 487.735Z" fill="#EBEBEB"/>
<path d="M1533.66 361.888C1494.98 363.222 1456.26 360.897 1418.02 354.943C1418.02 354.943 1428.87 348.884 1433.7 349.485C1438.52 350.086 1452.68 326.04 1470.75 328.366C1488.81 330.691 1498.48 349.944 1498.48 349.991C1498.48 350.039 1520.52 345.135 1533.66 361.888Z" fill="#EBEBEB"/>
<path d="M1478.48 805.276C1439.75 803.115 1401.31 797.289 1363.68 787.874C1363.68 787.874 1374.37 782.795 1379.16 783.824C1383.96 784.852 1397.86 762.087 1415.83 766.042C1433.81 769.997 1443.39 790.12 1443.39 790.168C1443.39 790.215 1465.34 787.32 1478.48 805.276Z" fill="#EBEBEB"/>
<path opacity="0.7" d="M1362.14 656.077C1329.67 647.87 1297.92 637.008 1267.22 623.599C1270.17 621.917 1273.65 621.44 1276.94 622.27C1276.94 622.27 1286.84 602.732 1303.72 608.712C1319.43 614.186 1325.87 630.86 1325.87 630.86C1328.11 629.651 1330.64 629.086 1333.18 629.225C1335.72 629.365 1338.17 630.204 1340.26 631.651C1347.32 636.761 1351.34 646.506 1351.34 646.506C1351.34 646.506 1359.23 652.027 1362.14 656.077Z" fill="#DBDBDB"/>
<path opacity="0.7" d="M1591.18 763.921C1636.12 758.101 1680.28 747.314 1722.84 731.759C1722.84 731.759 1716.51 727.504 1709.36 729.07C1709.36 729.07 1695.63 701.622 1672.21 707.76C1650.41 713.329 1641.54 735.034 1641.55 735.113C1641.57 735.192 1631.38 728.295 1621.59 734.18C1611.8 740.065 1606.24 752.689 1606.24 752.689C1606.24 752.689 1595.15 758.89 1591.18 763.921Z" fill="#DBDBDB"/>
<path d="M1765.36 616.021C1764.95 611.923 1762.19 607.857 1757.18 607.857C1752.16 607.857 1749.41 611.923 1749 616.021C1748.37 622.349 1752.64 628.06 1757.18 633.28C1761.72 628.091 1765.99 622.333 1765.36 616.021ZM1757.18 620.561C1756.29 620.561 1755.43 620.298 1754.69 619.806C1753.96 619.314 1753.38 618.615 1753.04 617.797C1752.7 616.979 1752.62 616.079 1752.79 615.21C1752.96 614.342 1753.39 613.544 1754.01 612.918C1754.64 612.292 1755.44 611.866 1756.31 611.693C1757.17 611.52 1758.07 611.609 1758.89 611.948C1759.71 612.286 1760.41 612.86 1760.9 613.597C1761.39 614.333 1761.66 615.198 1761.66 616.084C1761.65 617.27 1761.18 618.406 1760.34 619.245C1759.5 620.084 1758.37 620.557 1757.18 620.561Z" fill="#FFA801"/>
<path d="M1498.75 729.338C1498.21 723.849 1494.43 718.391 1487.78 718.391C1481.14 718.391 1477.37 723.849 1476.84 729.338C1476 737.802 1481.71 745.459 1487.78 752.451C1493.89 745.427 1499.59 737.77 1498.75 729.338ZM1487.78 735.413C1486.6 735.41 1485.44 735.056 1484.46 734.395C1483.47 733.734 1482.71 732.797 1482.26 731.701C1481.8 730.605 1481.69 729.4 1481.92 728.238C1482.15 727.076 1482.73 726.009 1483.57 725.172C1484.4 724.335 1485.47 723.766 1486.64 723.536C1487.8 723.305 1489 723.425 1490.1 723.879C1491.19 724.334 1492.13 725.102 1492.79 726.088C1493.44 727.073 1493.8 728.232 1493.8 729.417C1493.79 731.005 1493.15 732.524 1492.02 733.642C1490.9 734.76 1489.37 735.386 1487.78 735.381V735.413Z" fill="#FFA801"/>
<path d="M1720.03 407.814C1719.49 402.341 1715.71 396.883 1709.07 396.883C1702.42 396.883 1698.66 402.341 1698.12 407.814C1697.28 416.278 1702.99 423.951 1709.07 430.943C1715.18 424.014 1720.9 416.278 1720.03 407.814ZM1709.07 413.905C1707.88 413.905 1706.72 413.552 1705.73 412.891C1704.74 412.23 1703.97 411.29 1703.51 410.19C1703.06 409.091 1702.94 407.881 1703.17 406.715C1703.41 405.548 1703.98 404.477 1704.82 403.637C1705.67 402.797 1706.74 402.226 1707.91 401.996C1709.07 401.765 1710.28 401.887 1711.38 402.344C1712.48 402.802 1713.42 403.574 1714.07 404.565C1714.73 405.556 1715.08 406.72 1715.08 407.909C1715.08 408.698 1714.92 409.479 1714.62 410.207C1714.32 410.936 1713.88 411.598 1713.32 412.155C1712.76 412.712 1712.1 413.153 1711.37 413.453C1710.64 413.754 1709.86 413.907 1709.07 413.905Z" fill="#FFA801"/>
<path d="M1564.18 634.277C1563.77 630.179 1561.01 626.098 1556 626.098C1550.98 626.098 1548.22 630.179 1547.82 634.277C1547.19 640.605 1551.44 646.316 1556 651.536C1560.54 646.316 1564.81 640.589 1564.18 634.277ZM1556 638.817C1555.11 638.82 1554.24 638.559 1553.5 638.066C1552.76 637.574 1552.18 636.872 1551.84 636.051C1551.49 635.229 1551.4 634.324 1551.58 633.451C1551.75 632.578 1552.18 631.776 1552.81 631.147C1553.44 630.518 1554.24 630.09 1555.11 629.917C1555.98 629.744 1556.89 629.834 1557.71 630.176C1558.53 630.518 1559.23 631.097 1559.73 631.838C1560.22 632.579 1560.48 633.45 1560.48 634.34C1560.47 635.526 1560 636.662 1559.16 637.501C1558.32 638.34 1557.19 638.813 1556 638.817Z" fill="#FFA801"/>
<path d="M1394.89 553.882C1394.48 549.784 1391.73 545.719 1386.71 545.719C1381.7 545.719 1378.94 549.784 1378.53 553.882C1377.9 560.21 1382.17 565.921 1386.71 571.142C1391.25 565.921 1395.52 560.194 1394.89 553.882ZM1386.71 558.486C1385.83 558.482 1384.96 558.217 1384.23 557.723C1383.49 557.229 1382.92 556.529 1382.59 555.711C1382.25 554.892 1382.16 553.993 1382.34 553.125C1382.51 552.258 1382.94 551.462 1383.57 550.837C1384.19 550.213 1384.99 549.788 1385.86 549.616C1386.73 549.445 1387.63 549.534 1388.44 549.874C1389.26 550.213 1389.96 550.787 1390.45 551.523C1390.94 552.259 1391.2 553.124 1391.2 554.008C1391.21 554.598 1391.09 555.183 1390.87 555.728C1390.64 556.273 1390.31 556.768 1389.89 557.184C1389.47 557.601 1388.98 557.93 1388.43 558.154C1387.88 558.377 1387.3 558.49 1386.71 558.486Z" fill="#FFA801"/>
<path d="M1301.34 411.577C1300.93 407.48 1298.18 403.414 1293.16 403.414C1288.15 403.414 1285.4 407.48 1284.98 411.577C1284.35 417.905 1288.62 423.616 1293.16 428.837C1297.7 423.616 1301.98 417.889 1301.34 411.577ZM1293.16 416.102C1292.28 416.102 1291.41 415.839 1290.68 415.347C1289.94 414.855 1289.37 414.156 1289.03 413.338C1288.69 412.52 1288.6 411.62 1288.77 410.751C1288.95 409.883 1289.37 409.085 1290 408.459C1290.62 407.833 1291.42 407.406 1292.29 407.234C1293.16 407.061 1294.06 407.15 1294.88 407.488C1295.69 407.827 1296.39 408.401 1296.89 409.137C1297.38 409.874 1297.64 410.739 1297.64 411.625C1297.64 412.213 1297.52 412.795 1297.3 413.338C1297.07 413.881 1296.74 414.375 1296.33 414.79C1295.91 415.206 1295.42 415.536 1294.88 415.761C1294.33 415.986 1293.75 416.102 1293.16 416.102Z" fill="#FFA801"/>
<path d="M1412.7 337.336C1412.16 331.862 1408.38 326.404 1401.74 326.404C1395.09 326.404 1391.33 331.862 1390.79 337.336C1389.95 345.8 1395.66 353.457 1401.74 360.449C1407.83 353.457 1413.54 345.8 1412.7 337.336ZM1401.74 343.427C1400.55 343.427 1399.39 343.074 1398.4 342.413C1397.41 341.753 1396.64 340.814 1396.18 339.716C1395.73 338.617 1395.61 337.408 1395.84 336.242C1396.07 335.076 1396.65 334.005 1397.49 333.164C1398.33 332.323 1399.4 331.751 1400.56 331.519C1401.73 331.287 1402.94 331.406 1404.04 331.861C1405.14 332.316 1406.07 333.087 1406.74 334.075C1407.4 335.064 1407.75 336.226 1407.75 337.415C1407.75 338.204 1407.59 338.986 1407.29 339.716C1406.99 340.445 1406.55 341.108 1405.99 341.666C1405.43 342.224 1404.77 342.667 1404.04 342.969C1403.31 343.271 1402.53 343.427 1401.74 343.427Z" fill="#FFA801"/>
<g opacity="0.6">
<path d="M1500.22 685.424C1500.22 685.424 1227.64 744.764 1200.43 698.428C1187.77 676.818 1247.44 644.719 1247.44 644.719C1247.44 644.719 1207.73 673.005 1225.85 684.142C1259.62 704.882 1446.08 657.786 1446.08 657.786L1500.22 685.424Z" fill="#EBEBEB"/>
<path d="M1338.06 718.6L1378.81 712.636C1385.6 711.608 1392.39 710.722 1399.16 709.63C1405.93 708.539 1412.7 707.589 1419.47 706.466C1426.24 705.343 1433 704.33 1439.74 703.144C1446.48 701.957 1453.2 700.739 1459.97 699.632C1473.43 697.101 1486.87 694.38 1500.3 691.469C1487.36 696.187 1474.15 700.123 1460.75 703.255C1454.04 704.837 1447.3 706.26 1440.54 707.558C1433.79 708.855 1427 709.994 1420.22 711.149C1413.43 712.304 1406.61 713.174 1399.78 714.012C1396.38 714.424 1392.96 714.835 1389.54 715.199C1386.12 715.563 1382.69 715.958 1379.27 716.243C1365.48 717.572 1351.75 718.505 1338.06 718.6Z" fill="#EBEBEB"/>
<path d="M1235.12 663.023C1234.07 664.55 1233.28 666.239 1232.78 668.023C1232.56 668.866 1232.46 669.732 1232.46 670.601C1232.49 671.403 1232.69 672.189 1233.05 672.911C1233.79 674.347 1234.97 675.503 1236.43 676.202C1237.93 676.999 1239.53 677.615 1241.18 678.037C1244.71 678.862 1248.31 679.36 1251.93 679.524C1255.59 679.808 1259.31 679.856 1263.01 679.824C1266.71 679.793 1270.44 679.729 1274.18 679.587C1277.91 679.445 1281.64 679.271 1285.38 679.112C1292.88 678.796 1300.39 678.306 1307.98 678.274C1300.71 680.257 1293.32 681.768 1285.85 682.798C1283.99 683.099 1282.1 683.336 1280.22 683.51C1278.34 683.684 1276.46 683.938 1274.56 684.064C1270.78 684.365 1266.96 684.507 1263.15 684.57C1255.53 684.46 1247.77 684.159 1240.21 681.564C1238.28 680.895 1236.46 679.963 1234.79 678.796C1232.97 677.569 1231.61 675.779 1230.91 673.702C1230.36 671.641 1230.61 669.45 1231.61 667.564C1232.46 665.829 1233.65 664.285 1235.12 663.023Z" fill="#EBEBEB"/>
<path d="M1458.66 447.998C1458.66 447.998 1731.69 390.793 1737.59 337.463C1740.35 312.563 1672.73 307.627 1672.73 307.627C1672.73 307.627 1718.23 315.869 1708.55 334.79C1687.68 375.605 1458.66 447.998 1458.66 447.998Z" fill="#EBEBEB"/>
<path d="M1620.29 412.037C1607.63 417.558 1594.77 422.32 1581.75 426.75C1578.51 427.889 1575.23 428.949 1571.96 429.993C1568.68 431.037 1565.41 432.081 1562.12 433.157C1555.54 435.182 1548.91 437.001 1542.3 438.884C1535.68 440.766 1528.98 442.38 1522.27 443.914C1515.56 445.449 1508.82 446.904 1502.08 448.233C1488.56 450.86 1474.88 452.661 1461.14 453.628C1474.62 450.796 1488.03 447.806 1501.29 444.611C1507.92 442.854 1514.6 441.447 1521.19 439.548C1527.79 437.65 1534.43 436.084 1541.05 434.312C1547.66 432.54 1554.27 430.721 1560.85 428.854C1567.44 426.987 1574.05 425.12 1580.64 423.301L1620.29 412.037Z" fill="#EBEBEB"/>
<path d="M1691.49 319.285C1693.4 319.927 1695.05 321.143 1696.24 322.766C1696.87 323.632 1697.32 324.609 1697.58 325.645C1697.81 326.683 1697.88 327.75 1697.79 328.809C1697.55 330.906 1696.87 332.931 1695.81 334.757C1694.83 336.542 1693.67 338.222 1692.35 339.772C1687.03 345.629 1680.89 350.686 1674.12 354.785C1670.8 356.858 1667.45 358.819 1664.01 360.654C1662.3 361.572 1660.56 362.442 1658.82 363.296C1657.08 364.151 1655.34 365.037 1653.56 365.796C1646.51 369.045 1639.27 371.835 1631.87 374.149C1638.46 370.036 1645.22 366.35 1651.86 362.505C1655.19 360.56 1658.56 358.74 1661.81 356.731C1665.07 354.722 1668.4 352.855 1671.58 350.783C1674.76 348.71 1677.9 346.67 1681.07 344.455C1684.11 342.279 1686.99 339.89 1689.69 337.304C1690.98 336.017 1692.17 334.631 1693.25 333.159C1694.33 331.745 1695.12 330.132 1695.57 328.413C1695.78 327.581 1695.87 326.724 1695.84 325.866C1695.76 324.997 1695.54 324.148 1695.18 323.351C1694.34 321.685 1693.07 320.279 1691.49 319.285Z" fill="#EBEBEB"/>
</g>
<path d="M1541.93 698.428C1539.88 696.055 1511.23 676.043 1509.07 674.54L1513.96 673.701C1513.96 673.701 1540.16 695.96 1541.93 698.428Z" fill="#FFA801"/>
<path opacity="0.5" d="M1541.93 698.428C1539.88 696.055 1511.23 676.043 1509.07 674.54L1513.96 673.701C1513.96 673.701 1540.16 695.96 1541.93 698.428Z" fill="white"/>
<path d="M1542.03 698.603C1542.03 698.603 1542.03 698.603 1542.03 698.698C1541.81 699.204 1539.84 699.647 1537.65 699.947H1537.57C1535.54 700.322 1533.47 700.365 1531.43 700.074C1530.81 699.647 1510.13 689.3 1497.48 682.972L1496.97 682.735H1496.88L1495.09 681.833L1489.87 679.239L1487.84 678.226L1509.12 674.588C1510.34 675.426 1520.01 682.181 1528.56 688.335L1529.45 688.968C1530.24 689.538 1531.03 690.107 1531.79 690.645C1535.32 693.07 1538.72 695.679 1541.98 698.46C1541.98 698.46 1541.98 698.539 1541.98 698.571L1542.03 698.603Z" fill="#FFA801"/>
<g opacity="0.1">
<path d="M1542.03 698.605C1542.03 698.605 1542.03 698.605 1542.03 698.699C1541.81 699.206 1539.84 699.649 1537.65 699.949H1537.57C1535.54 700.324 1533.47 700.367 1531.43 700.076C1530.8 699.649 1509.58 689.002 1496.97 682.674C1499.05 683.686 1526.26 696.769 1531.78 690.584C1535.31 693.009 1538.71 695.618 1541.96 698.399C1541.96 698.399 1541.96 698.478 1541.96 698.51L1542.03 698.605Z" fill="black"/>
</g>
<path d="M1822.31 721.953C1822.31 724.801 1806.64 725.718 1804.5 725.117C1802.36 724.516 1631.51 657.281 1631.51 657.281L1694.3 632.428L1696.12 633.678L1696.91 634.231C1708.49 642.236 1743.05 666.203 1773.24 687.292L1775.03 688.541L1777.4 690.123C1798.33 704.836 1816.48 717.603 1822.31 721.953Z" fill="#FFA801"/>
<path d="M1822.31 721.953C1807.03 710.547 1707.34 641.477 1694.29 632.443L1702.2 629.279C1702.2 629.279 1818.32 717.602 1821.83 721.114C1822.09 721.323 1822.26 721.623 1822.31 721.953Z" fill="#FFA801"/>
<path opacity="0.5" d="M1822.31 721.953C1807.03 710.547 1707.34 641.477 1694.29 632.443L1702.2 629.279C1702.2 629.279 1818.32 717.602 1821.83 721.114C1822.09 721.323 1822.26 721.623 1822.31 721.953Z" fill="white"/>
<g opacity="0.5">
<path opacity="0.1" d="M1822.31 721.953C1822.31 724.801 1806.63 725.718 1804.5 725.117C1802.36 724.516 1631.5 657.281 1631.5 657.281L1694.29 632.428C1694.29 632.428 1678.77 650.178 1715.62 677.499C1740.73 696.119 1767.46 699.979 1777.32 690.155C1798.33 704.836 1816.47 717.603 1822.31 721.953Z" fill="black"/>
</g>
<path d="M1680.01 679.331C1675.15 681.688 1669.88 683.523 1669.49 678.651C1669.35 676.658 1670.9 674.522 1678.7 670.741C1680.52 669.855 1685.02 667.893 1686.31 671.943C1687.59 675.993 1681.83 678.429 1680.01 679.331Z" fill="#FFA801"/>
<path opacity="0.1" d="M1680.01 679.331C1675.15 681.688 1669.88 683.523 1669.49 678.651C1669.35 676.658 1670.9 674.522 1678.7 670.741C1680.52 669.855 1685.02 667.893 1686.31 671.943C1687.59 675.993 1681.83 678.429 1680.01 679.331Z" fill="black"/>
<path d="M1719.61 695.531C1714.75 697.888 1709.47 699.739 1709.09 694.867C1708.93 692.858 1710.48 690.722 1718.3 686.957C1720.12 686.071 1724.62 684.125 1725.91 688.175C1727.19 692.225 1721.43 694.645 1719.61 695.531Z" fill="#FFA801"/>
<path opacity="0.1" d="M1719.61 695.531C1714.75 697.888 1709.47 699.739 1709.09 694.867C1708.93 692.858 1710.48 690.722 1718.3 686.957C1720.12 686.071 1724.62 684.125 1725.91 688.175C1727.19 692.225 1721.43 694.645 1719.61 695.531Z" fill="black"/>
<path d="M1759.19 711.733C1754.35 714.09 1749.07 715.941 1748.69 711.068C1748.53 709.075 1750.08 706.939 1757.88 703.158C1759.71 702.288 1764.21 700.326 1765.5 704.376C1766.8 708.426 1761.03 710.847 1759.19 711.733Z" fill="#FFA801"/>
<path opacity="0.1" d="M1759.19 711.733C1754.35 714.09 1749.07 715.941 1748.69 711.068C1748.53 709.075 1750.08 706.939 1757.88 703.158C1759.71 702.288 1764.21 700.326 1765.5 704.376C1766.8 708.426 1761.03 710.847 1759.19 711.733Z" fill="black"/>
<path d="M1746.22 669.222C1741.47 677.717 1730.62 680.77 1723.77 683.46C1705.56 690.737 1692.37 694.819 1685.8 678.287C1685.02 676.377 1684.53 674.361 1684.34 672.307C1683.27 659.841 1696.19 653.608 1702.74 650.159C1710.65 645.982 1716.25 643.293 1720.43 641.537C1727.23 638.658 1730.27 638.373 1733.39 638.199C1737.07 638.072 1745.38 639.006 1748.11 654.256C1749.3 659.311 1748.62 664.622 1746.22 669.222Z" fill="#FFA801"/>
<path d="M1746.47 657.311C1746.47 666.597 1740.66 674.127 1733.5 674.127C1726.33 674.127 1720.52 666.597 1720.52 657.311C1720.52 648.024 1726.33 640.494 1733.5 640.494C1740.66 640.494 1746.47 648.024 1746.47 657.311Z" fill="#263238"/>
<path d="M1744.95 657.312C1744.95 665.523 1739.83 672.167 1733.5 672.167C1727.17 672.167 1722.03 665.523 1722.03 657.312C1722.03 649.102 1727.17 642.441 1733.5 642.441C1739.83 642.441 1744.95 649.102 1744.95 657.312Z" fill="#455A64"/>
<path d="M1474.59 652.85L1471.58 653.957L1464.81 656.409L1441.4 646.301C1418.74 636.571 1391.85 625.118 1386.71 623.346L1387.36 623.536L1387.96 623.725L1388.75 623.978L1389.19 624.137L1390.98 624.706L1392.81 625.307L1397.96 627L1399.73 627.585L1401.31 628.139L1402.21 628.44L1405.01 629.373L1406.86 629.99L1430.96 638.09L1433.23 638.865L1442.2 641.887L1457.68 647.123L1459.86 647.867C1462.36 648.705 1464.6 649.449 1466.6 650.145L1468.32 650.73L1469.11 650.999L1469.52 651.126C1472.75 652.249 1474.59 652.85 1474.59 652.85Z" fill="#FFA801"/>
<path opacity="0.5" d="M1474.59 652.85L1471.58 653.957L1464.81 656.409L1441.4 646.301C1418.74 636.571 1391.85 625.118 1386.71 623.346L1387.36 623.536L1387.96 623.725L1388.75 623.978L1389.19 624.137L1390.98 624.706L1392.81 625.307L1397.96 627L1399.73 627.585L1401.31 628.139L1402.21 628.44L1405.01 629.373L1406.86 629.99L1430.96 638.09L1433.23 638.865L1442.2 641.887L1457.68 647.123L1459.86 647.867C1462.36 648.705 1464.6 649.449 1466.6 650.145L1468.32 650.73L1469.11 650.999L1469.52 651.126C1472.75 652.249 1474.59 652.85 1474.59 652.85Z" fill="white"/>
<path d="M1464.81 656.409L1446.68 663.022C1446.68 663.022 1406.18 644.227 1382.03 632.442L1381.77 632.331L1381.44 632.173L1374.45 628.756C1368.2 625.592 1364.24 623.503 1364.4 623.219C1365.07 621.874 1380.1 621.542 1386.11 623.219H1386.28L1386.66 623.345C1391.66 625.038 1416.89 635.764 1439.06 645.287L1439.56 645.493L1441.35 646.268L1464.81 656.409Z" fill="#FFA801"/>
<g opacity="0.1">
<path d="M1464.81 656.411L1446.68 663.023C1446.68 663.023 1406.18 644.229 1382.02 632.443C1386.03 634.152 1427.02 652.203 1437.11 649.687C1438.05 649.521 1438.93 649.124 1439.68 648.533C1440.43 647.943 1441.02 647.176 1441.4 646.302L1464.81 656.411Z" fill="black"/>
</g>
<path d="M1511.46 630.559L1467.47 651.726C1467.47 651.726 1467.91 613.995 1468.26 586.864C1468.26 585.931 1468.26 585.013 1468.26 584.111C1468.26 583.21 1468.26 582.624 1468.26 581.897C1468.37 572.61 1468.48 565.127 1468.53 561.726C1468.69 550.81 1469.86 548.595 1472.75 550.367C1475.65 552.139 1488.49 563.324 1492.35 568.307C1495.52 572.389 1502.54 597.163 1507.11 614.185C1507.11 614.343 1507.11 614.47 1507.21 614.612C1507.48 615.609 1507.75 616.574 1507.98 617.492C1510.09 625.148 1511.46 630.559 1511.46 630.559Z" fill="#FFA801"/>
<g opacity="0.1">
<path d="M1511.46 630.56L1467.47 651.727C1467.47 651.727 1467.91 613.997 1468.26 586.865C1474.73 601.325 1487.53 621.068 1508.05 617.493C1510.09 625.15 1511.46 630.56 1511.46 630.56Z" fill="black"/>
</g>
<path d="M1436.73 674.791C1432.2 663.464 1451.43 653.181 1473.26 643.388C1495.09 633.595 1710.27 538.691 1741.47 530.228C1772.67 521.764 1808.99 533.392 1815.13 551.157C1824.33 577.893 1785.53 600.294 1646.14 658.085C1627.87 665.663 1546.17 685.279 1500.23 685.422C1451.09 685.58 1438.96 680.296 1436.73 674.791Z" fill="#FFA801"/>
<path opacity="0.5" d="M1436.73 674.791C1432.2 663.464 1451.43 653.181 1473.26 643.388C1495.09 633.595 1710.27 538.691 1741.47 530.228C1772.67 521.764 1808.99 533.392 1815.13 551.157C1824.33 577.893 1785.53 600.294 1646.14 658.085C1627.87 665.663 1546.17 685.279 1500.23 685.422C1451.09 685.58 1438.96 680.296 1436.73 674.791Z" fill="white"/>
<path opacity="0.1" d="M1646.13 658.148C1627.85 665.726 1546.16 685.327 1500.22 685.485C1451.1 685.643 1438.96 680.423 1436.73 674.854C1434.36 668.937 1438.49 663.29 1446.1 657.848C1446.05 658.995 1446.25 660.139 1446.68 661.201C1448.72 666.264 1459.73 670.994 1504.3 670.852C1545.98 670.709 1605.94 636.949 1622.51 630.084C1748.99 577.577 1798.42 573.211 1790.02 548.99C1786.39 538.422 1771.04 530.275 1752.96 528.045C1780.99 524.691 1809.72 535.527 1815.11 551.189C1824.32 577.893 1785.52 600.294 1646.13 658.148Z" fill="black"/>
<path d="M1504.95 637.458L1509.88 635.307V642.584L1504.95 644.72V637.458Z" fill="#455A64"/>
<path d="M1513.97 633.55L1519.25 631.256V638.533L1513.97 640.811V633.55Z" fill="#455A64"/>
<path d="M1523.31 629.499L1528.6 627.205V634.482L1523.31 636.76V629.499Z" fill="#455A64"/>
<path d="M1532.68 625.446L1537.95 623.152V630.43L1532.68 632.708V625.446Z" fill="#455A64"/>
<path d="M1542.03 621.399L1547.32 619.105V626.383L1542.03 628.661V621.399Z" fill="#455A64"/>
<path d="M1551.39 617.352L1556.66 615.059V622.336L1551.39 624.63V617.352Z" fill="#455A64"/>
<path d="M1560.74 613.3L1566.03 611.006V618.283L1560.74 620.577V613.3Z" fill="#455A64"/>
<path d="M1570.09 609.253L1575.38 606.959V614.236L1570.09 616.53V609.253Z" fill="#455A64"/>
<path d="M1579.46 605.2L1584.73 602.906V610.183L1579.46 612.477V605.2Z" fill="#455A64"/>
<path d="M1588.81 601.149L1594.09 598.855V606.133L1588.81 608.411V601.149Z" fill="#455A64"/>
<path d="M1598.17 597.099L1603.44 594.805V602.082L1598.17 604.36V597.099Z" fill="#455A64"/>
<path d="M1607.52 593.05L1612.81 590.756V598.033L1607.52 600.311V593.05Z" fill="#455A64"/>
<path d="M1616.88 588.999L1622.16 586.721V593.982L1616.88 596.26V588.999Z" fill="#455A64"/>
<path d="M1626.24 584.95L1631.51 582.672V589.933L1626.24 592.211V584.95Z" fill="#455A64"/>
<path d="M1635.59 580.899L1640.87 578.621V585.882L1635.59 588.161V580.899Z" fill="#455A64"/>
<path d="M1644.94 576.852L1650.22 574.574V581.836L1644.94 584.129V576.852Z" fill="#455A64"/>
<path d="M1654.3 572.798L1659.59 570.52V577.781L1654.3 580.075V572.798Z" fill="#455A64"/>
<path d="M1663.66 568.751L1668.94 566.473V573.734L1663.66 576.028V568.751Z" fill="#455A64"/>
<path d="M1673.02 564.702L1678.28 562.424V569.685L1673.02 571.979V564.702Z" fill="#455A64"/>
<path d="M1682.37 560.651L1687.65 558.373V565.634L1682.37 567.928V560.651Z" fill="#455A64"/>
<path d="M1691.72 556.6L1697 554.322V561.584L1691.72 563.878V556.6Z" fill="#455A64"/>
<path d="M1706.37 550.273V557.535L1701.09 559.829V552.552L1706.37 550.273Z" fill="#455A64"/>
<path d="M1715.72 546.223V553.484L1710.43 555.778V548.501L1715.72 546.223Z" fill="#455A64"/>
<path d="M1725.06 542.172V549.433L1719.8 551.727V544.45L1725.06 542.172Z" fill="#455A64"/>
<path d="M1734.43 538.121V545.382L1729.15 547.676V540.399L1734.43 538.121Z" fill="#455A64"/>
<path d="M1758.88 535.15C1761.78 532.941 1765.12 531.381 1768.68 530.578V535.324C1765.55 535.292 1762.32 535.213 1758.88 535.15Z" fill="#455A64"/>
<path d="M1780.18 529.422V536.098C1777.72 535.876 1775.26 535.734 1772.78 535.608V529.77C1775.23 529.416 1777.71 529.3 1780.18 529.422Z" fill="#455A64"/>
<path d="M1803.71 538.851C1801.64 538.851 1799.74 538.44 1797.84 538.218C1795.94 537.997 1794.09 537.649 1792.24 537.475C1789.55 537.064 1786.89 536.779 1784.33 536.526V529.85C1787.55 530.287 1790.7 531.144 1793.69 532.397C1795.55 533.155 1797.34 534.076 1799.04 535.149C1799.91 535.666 1800.73 536.248 1801.51 536.89C1802.22 537.522 1803 538.155 1803.71 538.851Z" fill="#455A64"/>
<path d="M1635.59 598.033L1573.57 627.869C1573.57 627.869 1475.01 575.03 1404.3 536.429L1404.14 536.335C1366.39 515.769 1337.57 499.695 1338.04 499.078C1339.23 497.496 1358.22 497.67 1365.73 498.699C1366.46 498.769 1367.18 498.896 1367.88 499.078C1371.05 499.949 1482.59 541.255 1560.68 570.268L1635.59 598.033Z" fill="#FFA801"/>
<g opacity="0.1">
<path d="M1635.59 598.037L1573.57 627.873C1573.57 627.873 1475.01 575.034 1404.3 536.434C1409.83 539.218 1536.63 603.115 1553.19 593.528C1559.44 589.905 1561.1 580.556 1560.65 570.225L1635.59 598.037Z" fill="black"/>
</g>
<path d="M1644.63 594L1626.22 602.859C1579.11 583.115 1383.14 505.645 1366.77 499.143L1366.26 498.937L1365.85 498.811H1365.71C1366.44 498.881 1367.16 499.008 1367.86 499.19C1372.74 500.487 1644.63 594 1644.63 594Z" fill="#FFA801"/>
<path opacity="0.5" d="M1644.63 594L1626.22 602.859C1579.11 583.115 1383.14 505.645 1366.77 499.143L1366.26 498.937L1365.85 498.811H1365.71C1366.44 498.881 1367.16 499.008 1367.86 499.19C1372.74 500.487 1644.63 594 1644.63 594Z" fill="white"/>
<path d="M1511.83 595.439C1505.77 598.382 1499.17 600.692 1498.7 594.601C1498.51 592.101 1500.44 589.428 1510.2 584.745C1512.48 583.638 1518.11 581.185 1519.69 586.327C1521.27 591.468 1514.12 594.332 1511.83 595.439Z" fill="#FFA801"/>
<path opacity="0.1" d="M1511.83 595.439C1505.77 598.382 1499.17 600.692 1498.7 594.601C1498.51 592.101 1500.44 589.428 1510.2 584.745C1512.48 583.638 1518.11 581.185 1519.69 586.327C1521.27 591.468 1514.12 594.332 1511.83 595.439Z" fill="black"/>
<path d="M1459.35 568.925C1453.29 571.868 1446.7 574.177 1446.22 568.087C1446.03 565.587 1447.96 562.929 1457.72 558.231C1460 557.123 1465.63 554.687 1467.22 559.813C1468.8 564.939 1461.65 567.818 1459.35 568.925Z" fill="#FFA801"/>
<path opacity="0.1" d="M1459.35 568.925C1453.29 571.868 1446.7 574.177 1446.22 568.087C1446.03 565.587 1447.96 562.929 1457.72 558.231C1460 557.123 1465.63 554.687 1467.22 559.813C1468.8 564.939 1461.65 567.818 1459.35 568.925Z" fill="black"/>
<path d="M1406.72 542.094C1401.07 544.847 1394.92 546.998 1394.47 541.319C1394.3 538.993 1396.05 536.573 1405.18 532.143C1407.32 531.115 1412.52 528.837 1414.04 533.551C1415.56 538.265 1408.84 541.081 1406.72 542.094Z" fill="#FFA801"/>
<path opacity="0.1" d="M1406.72 542.094C1401.07 544.847 1394.92 546.998 1394.47 541.319C1394.3 538.993 1396.05 536.573 1405.18 532.143C1407.32 531.115 1412.52 528.837 1414.04 533.551C1415.56 538.265 1408.84 541.081 1406.72 542.094Z" fill="black"/>
<path d="M1590.12 589.427C1585.38 597.922 1574.52 600.976 1567.67 603.665C1549.47 610.942 1536.27 615.04 1529.71 598.492C1528.93 596.582 1528.44 594.566 1528.25 592.512C1527.17 580.046 1540.1 573.813 1546.65 570.364C1554.56 566.203 1560.16 563.498 1564.34 561.742C1571.14 558.879 1574.18 558.578 1577.29 558.404C1580.98 558.277 1589.28 559.211 1592.02 574.461C1593.2 579.516 1592.53 584.828 1590.12 589.427Z" fill="#FFA801"/>
<path d="M1577.37 594.395C1584.54 594.395 1590.34 586.866 1590.34 577.578C1590.34 568.291 1584.54 560.762 1577.37 560.762C1570.21 560.762 1564.4 568.291 1564.4 577.578C1564.4 586.866 1570.21 594.395 1577.37 594.395Z" fill="#263238"/>
<path d="M1588.82 577.578C1588.82 585.788 1583.7 592.433 1577.37 592.433C1571.04 592.433 1565.9 585.788 1565.9 577.578C1565.9 569.367 1571.04 562.723 1577.37 562.723C1583.7 562.723 1588.82 569.367 1588.82 577.578Z" fill="#455A64"/>
<path d="M1392.82 625.337L1390.98 624.736L1392.82 625.337Z" fill="#FFA801"/>
</g>
<defs>
<clipPath id="clip0_6885_50683">
<rect width="1920" height="1644" fill="white"/>
</clipPath>
</defs>
</svg>
