<svg width="225" height="130" viewBox="0 0 225 130" fill="none" xmlns="http://www.w3.org/2000/svg">
<rect y="0.40332" width="224.998" height="129.141" rx="16" fill="white"/>
<g clip-path="url(#clip0_6289_33916)">
<path d="M91.66 45.3827C92.6329 45.157 93.6487 45.1985 94.6 45.5027C95.14 45.6659 95.6284 45.9663 96.0176 46.3747C96.4067 46.7831 96.6832 47.2855 96.82 47.8327C96.9325 48.3236 96.9315 48.8336 96.8172 49.324C96.7028 49.8145 96.478 50.2723 96.16 50.6627C95.4773 51.38 94.5484 51.8123 93.56 51.8727C92.4018 52.0418 91.2222 51.7745 90.25 51.1227C89.8942 50.8471 89.6004 50.4997 89.3876 50.1031C89.1748 49.7065 89.0478 49.2696 89.0147 48.8207C88.9817 48.3718 89.0435 47.921 89.196 47.4976C89.3485 47.0741 89.5884 46.6875 89.9 46.3627C90.389 45.8853 90.9966 45.547 91.66 45.3827Z" fill="#575656"/>
<path d="M135.78 45.3927C136.71 45.1722 137.68 45.1929 138.6 45.4527C139.151 45.5943 139.656 45.8759 140.066 46.2701C140.476 46.6643 140.777 47.1578 140.94 47.7027C141.08 48.2176 141.095 48.7585 140.984 49.2803C140.872 49.8021 140.638 50.2898 140.3 50.7027C139.64 51.3706 138.765 51.7848 137.83 51.8727C136.63 52.0685 135.4 51.8004 134.39 51.1227C134.032 50.8436 133.738 50.4915 133.527 50.0898C133.315 49.6882 133.192 49.2462 133.164 48.7932C133.137 48.3401 133.206 47.8865 133.367 47.4623C133.529 47.0381 133.778 46.653 134.1 46.3327C134.569 45.8793 135.148 45.5554 135.78 45.3927Z" fill="#575656"/>
<path d="M57.48 48.3127L64.11 45.6227V53.3527H68.43V58.6927H64.11C64.11 61.1527 64.11 63.6027 64.11 66.0527C64.11 66.6927 64.28 67.5027 64.98 67.7327C65.6064 67.8607 66.254 67.8415 66.8718 67.6767C67.4896 67.5118 68.0606 67.2058 68.54 66.7827L67.67 72.5727C66.1592 73.2818 64.5089 73.644 62.84 73.6327C61.6059 73.733 60.3723 73.4351 59.32 72.7827C58.6103 72.2222 58.1015 71.4468 57.87 70.5727C57.5756 69.5052 57.4441 68.3994 57.48 67.2927C57.48 64.4393 57.48 61.5893 57.48 58.7427H54.48C54.48 56.9627 54.48 55.1827 54.48 53.4027H57.48C57.48 51.6727 57.47 49.9927 57.48 48.3127Z" fill="#575656"/>
<path d="M98.67 48.3527L105.5 45.6227C105.5 54.836 105.5 64.0427 105.5 73.2427H98.67V48.3527Z" fill="#575656"/>
<path d="M173.3 48.3527L180.16 45.6127C180.16 54.8193 180.16 64.0293 180.16 73.2427H173.3V71.8427C172.325 72.6984 171.148 73.2905 169.88 73.5627C168.365 73.8517 166.797 73.5779 165.47 72.7927C164.271 71.9316 163.375 70.7136 162.91 69.3127C162.153 66.9993 161.854 64.5604 162.03 62.1327C162.047 60.2017 162.441 58.2926 163.19 56.5127C163.521 55.762 164.002 55.0872 164.604 54.53C165.206 53.9727 165.916 53.5448 166.69 53.2727C167.984 52.8438 169.376 52.809 170.69 53.1727C171.641 53.5354 172.531 54.0412 173.33 54.6727L173.3 48.3527ZM169.42 59.1927C168.949 60.0526 168.714 61.0223 168.74 62.0027C168.648 63.4442 168.732 64.8915 168.99 66.3127C169.03 66.6738 169.167 67.0173 169.387 67.3062C169.608 67.5951 169.902 67.8186 170.24 67.9527C170.781 68.0707 171.342 68.055 171.875 67.9069C172.409 67.7588 172.898 67.4827 173.3 67.1027V59.4827C172.736 58.9893 172.042 58.6698 171.3 58.5627C170.959 58.4867 170.604 58.5052 170.272 58.6162C169.941 58.7272 169.646 58.9265 169.42 59.1927Z" fill="#575656"/>
<path d="M70.5499 54.7828C73.6713 53.33 77.1207 52.7263 80.55 53.0328C82.1858 53.1091 83.7504 53.7244 84.9999 54.7828C85.693 55.4976 86.2337 56.3457 86.5895 57.2756C86.9454 58.2055 87.1088 59.1979 87.0699 60.1928C87.0699 64.5528 87.0699 68.9228 87.0699 73.2828H80.6699V71.9228C79.187 73.0943 77.3391 73.7067 75.4499 73.6528C74.5478 73.6532 73.6566 73.4555 72.8392 73.0737C72.0219 72.6918 71.2984 72.135 70.7199 71.4428C69.6184 69.8271 69.1552 67.8602 69.4199 65.9228C69.4883 64.9968 69.7773 64.1006 70.2626 63.3091C70.748 62.5176 71.4157 61.8536 72.2099 61.3728C73.7276 60.5652 75.4478 60.2177 77.1599 60.3728C78.3718 60.4181 79.5635 60.6965 80.6699 61.1928C80.6699 60.2728 80.8199 59.1428 80.0599 58.4528C79.1585 57.9149 78.0959 57.713 77.0599 57.8828C75.4068 57.9814 73.8002 58.4679 72.3699 59.3028C71.7399 57.7828 71.1399 56.2528 70.5499 54.7828ZM76.4699 64.8828C76.2584 65.0151 76.0781 65.1918 75.9417 65.4008C75.8053 65.6097 75.716 65.8458 75.6799 66.0928C75.5924 66.4683 75.5891 66.8586 75.6704 67.2355C75.7517 67.6124 75.9154 67.9667 76.15 68.2728C76.3285 68.4649 76.5454 68.6176 76.7865 68.7209C77.0276 68.8242 77.2876 68.876 77.5499 68.8728C78.6756 68.92 79.7815 68.5656 80.6699 67.8728V65.1328C79.9722 64.8199 79.2233 64.6369 78.4599 64.5928C77.7854 64.4862 77.0945 64.5765 76.4699 64.8528V64.8828Z" fill="#575656"/>
<path d="M152.78 53.0727C154.383 52.7515 156.046 52.9223 157.55 53.5627C158.644 54.0941 159.513 54.9982 160 56.1127C160.713 57.8022 161.031 59.6319 160.93 61.4627V73.2427C158.65 73.2427 156.37 73.2427 154.09 73.2427C154.09 69.3227 154.09 65.3927 154.09 61.4727C154.141 61.009 154.076 60.5399 153.901 60.1072C153.727 59.6745 153.448 59.2916 153.09 58.9927C152.633 58.7381 152.108 58.6303 151.588 58.6839C151.067 58.7376 150.576 58.9501 150.18 59.2927C149.717 59.9666 149.495 60.777 149.55 61.5927C149.55 65.4727 149.55 69.3527 149.55 73.2327C147.28 73.2327 145.01 73.2327 142.74 73.2327C142.74 66.6027 142.74 59.9627 142.74 53.3327H149.57C149.57 53.7727 149.57 54.2127 149.57 54.6527C150.512 53.8987 151.608 53.3595 152.78 53.0727Z" fill="#575656"/>
<path d="M89.51 53.3527H96.32C96.32 59.986 96.32 66.616 96.32 73.2427H89.51C89.5033 66.6093 89.5033 59.9793 89.51 53.3527Z" fill="#575656"/>
<path d="M106.18 53.3527C108.38 53.3527 110.58 53.3527 112.78 53.3527C113.507 57.0127 114.123 60.6793 114.63 64.3527C115.3 60.6527 115.97 56.9627 116.83 53.3527H122.44C123.23 57.0227 123.94 60.7027 124.6 64.4027C125.19 60.7127 125.78 57.0227 126.46 53.4027H133C131.14 60.036 129.273 66.666 127.4 73.2927H121.86C121 69.2927 120.24 65.2027 119.55 61.1327C118.85 65.2027 118.08 69.2627 117.2 73.2927H111.79L106.18 53.3527Z" fill="#575656"/>
<path d="M133.66 53.3527H140.48V73.2427H133.66V53.3527Z" fill="#575656"/>
<path d="M55.83 36.7827C55.9724 39.8742 55.155 42.934 53.49 45.5427C51.12 49.6327 47.85 53.1027 45.38 57.1327C44.5306 58.4831 43.8299 59.9215 43.29 61.4227C41.5132 59.2696 39.035 57.811 36.29 57.3027C39.76 53.3027 44.29 50.4827 48.29 46.9827C51.43 44.1727 54.43 40.8727 55.83 36.7827Z" fill="#575656"/>
<path d="M33 67.8727C35.1116 68.0827 37.1556 68.7334 39 69.7827C42.19 71.5827 44.69 74.3327 47.11 77.0327C49.36 79.5327 51.61 82.1527 54.53 83.9027C50.9 81.9727 47.14 80.2627 43.53 78.2227C41.2864 76.9528 39.1729 75.4657 37.22 73.7827C35.3305 72.2065 33.8775 70.1715 33 67.8727Z" fill="#575656"/>
<path d="M30.4799 59.1927C32.415 58.1009 34.6963 57.7965 36.8499 58.3427C39.2957 59.1785 41.4369 60.7243 42.9999 62.7827C45.9999 66.3127 47.9999 70.5927 50.2499 74.6027C51.3969 76.687 52.6832 78.6916 54.0999 80.6027C55.2189 82.1345 56.5682 83.4838 58.0999 84.6027C54.9599 83.6027 52.4299 81.4227 50.1899 79.1127C47.0399 75.8827 44.2599 72.2027 40.5099 69.6227C38.0788 67.8886 35.1661 66.9585 32.1799 66.9627C29.7524 67.0088 27.3639 67.582 25.1799 68.6427C21.7999 70.2327 18.9499 72.6427 15.8199 74.6427C18.8199 70.7927 21.5999 66.7227 25.1099 63.2927C26.7011 61.6836 28.5084 60.3037 30.4799 59.1927Z" fill="#00ACC8"/>
<path d="M61.26 76.5627C61.8 76.5627 62.33 76.5627 62.87 76.5627C63.6 78.4927 64.28 80.4427 64.99 82.3727H63.25C63.14 82.0327 63.04 81.6927 62.93 81.3727H61.2C61.09 81.7127 60.98 82.0527 60.88 82.3727H59.16L61.26 76.5627ZM61.58 80.0627H62.58C62.42 79.4627 62.24 78.8627 62.1 78.2527C61.94 78.8627 61.75 79.4627 61.58 80.0627Z" fill="#818180"/>
<path d="M77.45 76.5627H79.0899V82.3627H77.45V76.5627Z" fill="#818180"/>
<path d="M91.9 76.5627C92.85 76.5627 93.8 76.5627 94.75 76.5627C95.0767 76.5497 95.4019 76.6125 95.7003 76.7461C95.9987 76.8797 96.2621 77.0804 96.47 77.3327C96.6164 77.5651 96.7134 77.8252 96.7548 78.0967C96.7963 78.3683 96.7813 78.6454 96.711 78.9109C96.6406 79.1765 96.5163 79.4246 96.3458 79.64C96.1753 79.8554 95.9623 80.0333 95.72 80.1627C96.11 80.8827 96.49 81.6227 96.87 82.3527H95.09C94.76 81.7027 94.45 81.0427 94.09 80.3527H93.45C93.45 81.0027 93.45 81.6527 93.45 82.3027H91.9V76.5627ZM93.49 77.8727C93.49 78.2927 93.49 78.7127 93.49 79.1427C93.9193 79.1778 94.3507 79.1778 94.78 79.1427C94.8962 79.0939 94.9954 79.0118 95.0651 78.9069C95.1348 78.8019 95.172 78.6787 95.172 78.5527C95.172 78.4267 95.1348 78.3035 95.0651 78.1985C94.9954 78.0936 94.8962 78.0115 94.78 77.9627C94.3528 77.9013 93.9216 77.8712 93.49 77.8727Z" fill="#818180"/>
<path d="M109.43 76.5627H111.05V80.9627H113.62C113.62 81.4327 113.62 81.9027 113.62 82.3727C112.22 82.3727 110.83 82.3727 109.44 82.3727L109.43 76.5627Z" fill="#818180"/>
<path d="M126.16 76.5627H127.8V82.3627H126.16V76.5627Z" fill="#818180"/>
<path d="M140.61 76.5627H142C142.778 77.5518 143.506 78.5798 144.18 79.6427C144.1 78.6427 144.18 77.6427 144.18 76.5627H145.72V82.3627H144.42C143.65 81.2727 142.81 80.2227 142.13 79.0727C142.22 80.1727 142.13 81.2727 142.18 82.3627H140.64L140.61 76.5627Z" fill="#818180"/>
<path d="M158.46 76.5627H162.9V77.9127H160.05V78.6827H161.77V80.0127H160.05V81.0127H163V82.3627H158.5L158.46 76.5627Z" fill="#818180"/>
<path d="M175.5 77.7827C175.616 77.4618 175.817 77.1783 176.081 76.9618C176.345 76.7454 176.663 76.6041 177 76.5527C177.524 76.4413 178.064 76.4361 178.59 76.5374C179.115 76.6388 179.615 76.8446 180.06 77.1427L179.28 78.4027C178.997 78.19 178.674 78.0361 178.331 77.9502C177.987 77.8643 177.63 77.8482 177.28 77.9027C177.218 77.9228 177.163 77.9622 177.125 78.0152C177.086 78.0682 177.065 78.1321 177.065 78.1977C177.065 78.2632 177.086 78.3271 177.125 78.3801C177.163 78.4331 177.218 78.4725 177.28 78.4927C178.017 78.664 178.734 78.912 179.42 79.2327C179.654 79.4101 179.839 79.6438 179.958 79.912C180.077 80.1801 180.127 80.4741 180.102 80.7665C180.077 81.0589 179.978 81.3402 179.815 81.5844C179.652 81.8285 179.43 82.0274 179.17 82.1627C178.531 82.4022 177.845 82.4898 177.167 82.4187C176.488 82.3475 175.835 82.1195 175.26 81.7527L176.04 80.4927C176.69 80.9516 177.494 81.1382 178.28 81.0127C178.337 80.995 178.387 80.9612 178.425 80.9156C178.464 80.8699 178.488 80.8143 178.495 80.7552C178.503 80.6962 178.493 80.6362 178.467 80.5826C178.441 80.5289 178.401 80.4838 178.35 80.4527C177.59 80.0627 176.64 80.1027 175.96 79.5527C175.717 79.3359 175.544 79.0522 175.462 78.7372C175.381 78.4223 175.394 78.0902 175.5 77.7827Z" fill="#818180"/>
</g>
<defs>
<clipPath id="clip0_6289_33916">
<rect width="168" height="48" fill="white" transform="translate(14 36.7827)"/>
</clipPath>
</defs>
</svg>
