<svg width="225" height="130" viewBox="0 0 225 130" fill="none" xmlns="http://www.w3.org/2000/svg">
<rect y="0.40332" width="224.998" height="129.141" rx="16" fill="white"/>
<g clip-path="url(#clip0_6289_33912)">
<path fill-rule="evenodd" clip-rule="evenodd" d="M49.958 86.8768C49.539 86.9038 49.1275 86.9279 48.7085 86.9279C48.2316 86.9279 47.7696 86.8888 47.2852 86.8768L48.6773 83.476L49.9565 86.8768H49.958ZM51.4986 90.7348C51.7467 90.7228 52.127 90.6566 52.5074 90.6566C52.8877 90.6566 53.3691 90.7228 53.5741 90.7348C52.9575 89.3992 52.0617 87.3115 51.5372 86.1021C51.0484 84.944 50.2298 83.0037 49.5747 81.119C49.4341 81.1632 49.288 81.187 49.1408 81.1897C48.9872 81.1885 48.8346 81.1647 48.6877 81.119C47.9626 83.1813 47.131 85.2036 46.1962 87.1776L44.614 90.7393C44.816 90.699 45.0205 90.6729 45.2261 90.6611C45.4474 90.673 45.6677 90.6991 45.8857 90.7393C46.1948 89.7208 46.5574 88.7196 46.9718 87.7401C47.514 87.7131 48.0652 87.6845 48.6164 87.6845C49.1988 87.6845 49.7678 87.7115 50.3576 87.7401L50.9311 89.2081L51.4986 90.7348Z" fill="#5C0632"/>
<path d="M54.7744 84.4461C54.7744 86.8136 54.7744 89.0953 54.6259 90.7363C54.923 90.7243 55.3122 90.6581 55.6064 90.6581C55.9006 90.6581 56.2467 90.7243 56.5572 90.7363C56.4562 89.6248 56.422 88.1297 56.422 86.063C56.3877 84.4621 56.4373 82.8605 56.5706 81.2649C56.2487 81.3064 55.9249 81.3315 55.6005 81.3401C55.4029 81.3401 54.8903 81.2935 54.6303 81.2649C54.7339 82.3219 54.779 83.384 54.7655 84.4461" fill="#5C0632"/>
<path fill-rule="evenodd" clip-rule="evenodd" d="M62.8892 86.0359C63.5291 85.9868 64.1277 85.6973 64.5676 85.2242C65.0074 84.7511 65.2566 84.1286 65.2663 83.4789C65.2688 83.1926 65.2149 82.9087 65.1078 82.6437C65.0006 82.3787 64.8424 82.138 64.6423 81.9357C64.3506 81.6785 64.0092 81.4856 63.6399 81.3694C63.2705 81.2531 62.8813 81.216 62.497 81.2604C62.179 81.2604 60.5968 81.3235 60.2477 81.3235C59.7903 81.3261 59.3331 81.305 58.8779 81.2604C58.9789 83.0427 58.9789 83.2308 58.9789 85.0462C58.9789 87.704 58.964 88.0063 58.8511 90.7318C59.1647 90.6856 59.4807 90.6595 59.7975 90.6536C60.1392 90.6536 60.4378 90.7092 60.7127 90.7318C60.7127 90.3708 60.6577 88.5914 60.6577 88.1913V86.2285H60.9801C61.7229 87.2813 62.5668 88.5027 63.2606 89.5901C63.4656 89.912 63.7732 90.4219 63.9737 90.7363C64.3391 90.6765 64.709 90.6503 65.0791 90.6581C65.4848 90.6608 65.89 90.687 66.2928 90.7363C65.4356 89.6488 65.0627 89.1615 63.9856 87.6348C63.7761 87.334 63.482 86.8827 63.2725 86.5985L62.8892 86.0374V86.0359ZM60.6607 82.0049C60.8627 81.9853 61.3664 81.9417 61.6219 81.9417C62.0705 81.9099 62.5169 82.03 62.8907 82.2832C63.0995 82.4526 63.2621 82.6732 63.3632 82.924C63.4643 83.1748 63.5006 83.4476 63.4686 83.7166C63.4866 83.9707 63.4508 84.2257 63.3636 84.4646C63.2763 84.7035 63.1396 84.9208 62.9626 85.1018C62.7856 85.2829 62.5724 85.4235 62.3374 85.5143C62.1023 85.6051 61.8508 85.644 61.5996 85.6283C61.246 85.6283 60.9207 85.6012 60.6607 85.5847V82.0049Z" fill="#5C0632"/>
<path d="M70.0011 87.5009C69.3607 85.5847 68.4693 82.8908 68.0459 81.2649C67.7311 81.3125 67.4134 81.3376 67.0951 81.3401C66.7653 81.3401 66.3003 81.2935 66.0284 81.2649C66.5825 82.757 67.0683 84.0731 67.4323 85.129C68.0652 86.9234 68.4723 88.1718 68.9685 89.6879L69.3058 90.7408C69.4894 90.6984 69.6763 90.6722 69.8644 90.6626C70.0403 90.6656 70.2151 90.6919 70.3844 90.7408C70.5983 90.0218 70.8583 89.1464 71.0514 88.5659C71.5833 86.9956 71.6457 86.7835 72.3514 84.8206L72.7585 83.6655C72.907 84.1092 73.17 84.8206 73.3171 85.2523C73.4641 85.684 74.1669 87.7973 74.3258 88.2726C74.5546 88.8968 74.5933 89.0652 75.1014 90.7423C75.2978 90.705 75.4962 90.6789 75.6956 90.6641C75.8785 90.6717 76.0602 90.6979 76.2379 90.7423C76.7579 89.1013 76.8084 88.9374 77.575 86.7173C78.3312 84.5649 78.7962 83.3406 79.6118 81.2709C79.4124 81.3198 79.208 81.3451 79.0027 81.3461C78.7896 81.345 78.5774 81.3198 78.3698 81.2709C77.8766 83.0578 77.627 83.9287 77.2452 85.1184C76.6049 87.0467 76.5157 87.2783 76.1279 88.3267C75.6822 87.1415 75.2633 85.9322 74.8711 84.7168C74.6423 84.0535 73.8163 81.2965 73.8088 81.2694C73.609 81.3162 73.4048 81.3414 73.1997 81.3446C72.9998 81.3374 72.8009 81.3122 72.6054 81.2694C72.1939 82.9465 70.7513 87.0136 70.6087 87.3866L70.2714 88.2891L70.0115 87.5085" fill="#5C0632"/>
<path fill-rule="evenodd" clip-rule="evenodd" d="M83.7702 86.8767C83.3438 86.9038 82.9442 86.9278 82.5178 86.9278C82.0364 86.9278 81.5714 86.8887 81.0945 86.8767L82.4911 83.4759L83.7702 86.8767V86.8767ZM85.3138 90.7287C85.5575 90.7167 85.9467 90.6505 86.3181 90.6505C86.6896 90.6505 87.1873 90.7167 87.3848 90.7287C86.7757 89.3931 85.868 87.3053 85.348 86.096C84.8548 84.9379 84.0406 82.9976 83.381 81.1129C83.243 81.1574 83.0994 81.1812 82.9546 81.1836C82.8009 81.183 82.6482 81.1592 82.5015 81.1129C82.1672 82.247 81.3768 84.0414 80.004 87.167L78.4263 90.7287C78.6273 90.6886 78.8308 90.6625 79.0354 90.6505C79.2567 90.6626 79.477 90.6887 79.695 90.7287C80.0058 89.7101 80.3698 88.709 80.7855 87.7295C81.3248 87.7024 81.8715 87.6739 82.4197 87.6739C83.0051 87.6739 83.5711 87.7009 84.158 87.7295L84.7404 89.1975L85.3138 90.7287Z" fill="#5C0632"/>
<path d="M91.0426 87.0332C91.0664 86.8766 91.1248 86.7275 91.2134 86.597C91.7958 85.5998 92.3262 84.5589 92.9308 83.5572C93.1403 83.2353 94.1372 81.6289 94.3467 81.2634C94.1618 81.3196 93.9691 81.345 93.7762 81.3386C93.5072 81.3353 93.2389 81.3102 92.9739 81.2634C92.2921 82.8689 91.5055 84.4266 90.6192 85.9262C89.4514 83.8731 88.9359 82.7811 88.2347 81.2634C87.8637 81.3171 87.4892 81.3422 87.1145 81.3386C86.8173 81.3386 86.5024 81.3116 85.9854 81.2634C86.6985 82.4577 87.8618 84.3694 88.5645 85.5832L89.3667 86.9896C89.3667 87.8499 89.3236 89.6594 89.285 90.7348C89.5406 90.7108 89.9179 90.6566 90.1883 90.6566C90.5018 90.6566 90.8212 90.7123 91.1347 90.7348C91.0842 89.4548 91.0411 88.7043 91.0411 87.5386V87.0317" fill="#5C0632"/>
<path d="M95.1342 88.6666C95.1067 89.1997 94.998 89.7254 94.8118 90.2248C95.5979 90.6664 96.4774 90.9104 97.376 90.9363C97.8044 90.9938 98.24 90.9586 98.6539 90.833C99.0678 90.7075 99.4508 90.4944 99.7774 90.208C100.104 89.9215 100.367 89.5682 100.549 89.1713C100.73 88.7744 100.827 88.3429 100.832 87.9055C100.837 87.2361 100.603 86.5873 100.172 86.0795C99.6397 85.5954 98.9995 85.2491 98.3061 85.0702C97.1175 84.6025 96.4178 84.3182 96.4178 83.3194C96.4118 83.1106 96.4502 82.9029 96.5304 82.7104C96.6105 82.5179 96.7306 82.3451 96.8824 82.2036C97.0343 82.0622 97.2144 81.9553 97.4105 81.8904C97.6066 81.8255 97.8143 81.804 98.0193 81.8274C98.4079 81.7897 98.7973 81.8888 99.1221 82.108C99.4468 82.3272 99.687 82.6531 99.8021 83.0307H99.9982C100.099 82.5821 100.241 82.1444 100.425 81.7236C99.7263 81.3499 98.9489 81.1532 98.159 81.1505C95.6839 81.1505 94.9752 82.7058 94.9752 83.9181C94.942 84.4643 95.0948 85.0055 95.4082 85.4514C95.7215 85.8974 96.1765 86.221 96.6971 86.3683C97.073 86.5187 97.7207 86.7849 98.1055 86.9414C98.4864 87.0815 98.805 87.3554 99.0031 87.7134C99.2012 88.0714 99.2658 88.4895 99.1849 88.8915C99.1041 89.2936 98.8833 89.6529 98.5627 89.904C98.2421 90.1551 97.8432 90.2812 97.4384 90.2594C96.6362 90.2594 95.9528 90.0473 95.3124 88.6726H95.1297" fill="#5C0632"/>
<path fill-rule="evenodd" clip-rule="evenodd" d="M19.3145 63.1358C19.3145 52.6912 24.8412 49.88 29.0219 49.88C35.7312 49.88 38.6401 55.5144 38.6401 61.5219C38.845 64.7562 38.1194 67.9813 36.5513 70.8068C35.7475 72.0806 34.6414 73.1303 33.334 73.8601C32.0266 74.59 30.5594 74.9768 29.0665 74.9852C21.4896 74.9852 19.316 67.6902 19.316 63.1268L19.3145 63.1358ZM39.7083 84.4852C41.1482 83.4938 42.6703 82.6307 44.2574 81.9056L34.9987 76.0982C40.6888 74.0722 44.253 68.9326 44.253 61.9355C44.253 51.9858 36.7592 47.7562 29.0991 47.7562C20.8269 47.7562 13.6987 52.3979 13.6987 62.9162C13.6557 66.6452 15.071 70.2402 17.6357 72.917C19.1339 74.3752 20.9167 75.5001 22.8696 76.2197C24.8225 76.9393 26.9024 77.2376 28.9758 77.0955C29.4215 77.0955 29.8761 77.0955 30.3248 77.0564L39.7083 84.4852Z" fill="#5C0632"/>
<path fill-rule="evenodd" clip-rule="evenodd" d="M63.3542 64.9543C62.0751 65.04 60.8524 65.1198 59.5851 65.1198C58.1499 65.1198 56.7623 65.0024 55.3346 64.9543L59.4945 54.7609L63.3498 64.9543H63.3542ZM67.9732 76.5224C68.7026 76.4788 69.8585 76.2713 70.995 76.2713C72.1316 76.2713 73.586 76.4788 74.1907 76.5224C72.3559 72.4974 69.6535 66.2433 68.0994 62.6304C66.6212 59.1514 64.1624 53.3486 62.2043 47.6705C61.3394 47.9533 60.4084 47.9533 59.5435 47.6705C58.5585 51.0743 56.177 56.4576 52.0468 65.8267L47.2927 76.5224C47.9026 76.3887 48.5221 76.3042 49.1453 76.2697C49.8071 76.3052 50.4655 76.3891 51.1153 76.5209C52.0442 73.4649 53.1353 70.4619 54.3838 67.5248C56.018 67.4391 57.6656 67.3594 59.2865 67.3594C61.047 67.3594 62.7689 67.4376 64.5264 67.5248L66.2483 71.9183L67.9732 76.5224Z" fill="#5C0632"/>
<path d="M86.1429 55.5069C86.1429 53.9321 86.1889 52.3573 86.232 50.8622C89.0548 50.8622 91.9489 50.9013 94.369 51.163C94.2523 50.6737 94.1836 50.1739 94.164 49.671C94.1912 49.1404 94.2598 48.6128 94.369 48.0931C90.4365 48.3007 86.8367 48.3443 83.4315 48.3443C80.2893 48.3443 75.7491 48.3007 72.5015 48.0931C72.6353 48.5915 72.7072 49.1049 72.7154 49.6213C72.71 50.1398 72.6411 50.6557 72.5104 51.157C74.6007 50.9495 78.5377 50.8562 78.9092 50.8562H80.946C80.9965 52.4776 81.0351 53.9261 81.0351 55.4588L81.0738 67.0224C81.0738 70.172 80.8257 73.3713 80.6593 76.5164C81.5814 76.3841 82.5097 76.3002 83.4404 76.2652C83.9337 76.2652 85.2559 76.387 86.4459 76.5164C86.2214 74.6326 86.1222 72.7356 86.1488 70.8383V55.4964" fill="#5C0632"/>
<path fill-rule="evenodd" clip-rule="evenodd" d="M108.93 64.9543C107.661 65.04 106.436 65.1198 105.168 65.1198C103.73 65.1198 102.346 65.0024 100.906 64.9543L105.075 54.7609L108.93 64.9543ZM113.553 76.5224C114.296 76.4788 115.442 76.2713 116.595 76.2713C117.747 76.2713 119.169 76.4788 119.778 76.5224C117.944 72.4974 115.232 66.2433 113.687 62.6304C112.213 59.1514 109.75 53.3486 107.796 47.6705C107.37 47.8041 106.928 47.8755 106.482 47.8826C106.02 47.8776 105.562 47.8062 105.121 47.6705C104.151 51.0743 101.769 56.4576 97.639 65.8267L92.8848 76.5224C93.489 76.3904 94.1025 76.3064 94.7196 76.2713C95.3805 76.3061 96.0379 76.3901 96.6866 76.5224C97.6257 73.4687 98.7196 70.466 99.964 67.5263C101.598 67.4406 103.241 67.3609 104.882 67.3609C106.642 67.3609 108.364 67.4391 110.125 67.5263L111.842 71.9199L113.553 76.5224Z" fill="#5C0632"/>
<path fill-rule="evenodd" clip-rule="evenodd" d="M136.265 62.4258C139.995 61.7264 143.386 59.3589 143.386 54.7548C143.396 53.8933 143.236 53.0384 142.913 52.241C142.591 51.4436 142.113 50.72 141.509 50.1132C139.752 48.409 137.743 48.0796 135.091 48.0796C134.137 48.0796 129.398 48.2872 128.324 48.2872C126.957 48.2912 125.592 48.2219 124.232 48.0796C124.519 53.4282 124.519 54.0088 124.519 59.4387C124.519 67.433 124.476 68.3445 124.155 76.5149C125.089 76.3647 126.032 76.2808 126.978 76.2637C127.896 76.2969 128.811 76.3808 129.72 76.5149C129.72 75.4394 129.554 70.0908 129.554 68.886V63.0019H130.539C132.75 66.1605 135.293 69.811 137.381 73.0795C137.993 74.0331 138.897 75.5733 139.507 76.5269C140.603 76.347 141.712 76.2629 142.823 76.2757C144.042 76.2835 145.259 76.3674 146.468 76.5269C143.882 73.2479 142.779 71.804 139.545 67.2014C138.936 66.3335 138.028 64.9633 137.424 64.0954L136.268 62.4409L136.265 62.4258ZM129.554 50.3388C130.175 50.3042 131.69 50.1342 132.467 50.1342C133.812 50.0514 135.146 50.4153 136.268 51.1705C136.893 51.6812 137.38 52.3446 137.682 53.0982C137.984 53.8519 138.091 54.671 137.994 55.4783C138.046 56.2403 137.937 57.0047 137.673 57.7203C137.409 58.4359 136.997 59.0861 136.465 59.6274C135.933 60.1686 135.292 60.5884 134.587 60.8586C133.881 61.1288 133.127 61.2432 132.374 61.194C131.315 61.194 130.33 61.1112 129.551 61.0766L129.554 50.3388Z" fill="#5C0632"/>
<path d="M106.835 89.2442H105.167C105.167 89.2442 104.931 88.1913 105.54 87.7912C105.956 87.5264 106.389 87.2888 106.835 87.0798V89.2427V89.2442ZM114.833 85.3124C114.241 85.66 113.678 86.0553 113.149 86.4947C112.516 87.0752 113.298 87.2918 113.298 87.2918V89.2397H108.413V82.423C108.413 82.423 106.63 84.0775 106.458 84.3032C106.286 84.5288 106.884 84.7469 106.884 84.7469L106.783 85.3876C106.244 85.6861 105.72 86.0124 105.214 86.3653C104.365 86.9384 103.729 87.6844 103.729 88.1988C103.729 88.7132 103.507 90.7393 103.507 90.7393H114.833V85.3124ZM104.73 82.8231C105.284 82.8231 105.676 82.5915 105.676 82.1478C105.676 81.7041 105.416 81.3957 104.73 81.3957C104.109 81.3957 103.938 81.6544 103.938 82.1478C103.938 82.6411 104.155 82.8276 104.726 82.8276L104.73 82.8231ZM106.801 82.8231C107.372 82.8231 107.747 82.5915 107.747 82.1478C107.747 81.7041 107.485 81.3957 106.801 81.3957C106.192 81.3957 106.026 81.6544 106.026 82.1478C106.026 82.6411 106.238 82.8276 106.797 82.8276L106.801 82.8231ZM109.958 91.3168C109.353 91.3168 109.183 91.5801 109.183 92.0779C109.183 92.5758 109.392 92.7533 109.958 92.7533C110.524 92.7533 110.916 92.5292 110.916 92.0779C110.916 91.6267 110.655 91.3214 109.954 91.3214L109.958 91.3168ZM112.123 91.3168C111.511 91.3168 111.343 91.5801 111.343 92.0779C111.343 92.5758 111.564 92.7533 112.123 92.7533C112.681 92.7533 113.081 92.5292 113.081 92.0779C113.081 91.6267 112.812 91.3214 112.117 91.3214L112.123 91.3168ZM136.517 82.6862C137.072 82.6862 137.476 82.4621 137.476 82.0184C137.476 81.5747 137.216 81.2664 136.517 81.2664C135.913 81.2664 135.742 81.5251 135.742 82.0184C135.742 82.5118 135.954 82.6908 136.513 82.6908L136.517 82.6862ZM138.678 82.6862C139.236 82.6862 139.624 82.4621 139.624 82.0184C139.624 81.5747 139.364 81.2664 138.678 81.2664C138.068 81.2664 137.902 81.5251 137.902 82.0184C137.902 82.5118 138.107 82.6908 138.673 82.6908L138.678 82.6862ZM144.643 82.8712C144.345 83.139 144.426 83.4609 144.813 83.4097V90.7408H146.419V81.6258C146.419 81.6258 144.94 82.605 144.638 82.8743L144.643 82.8712ZM138.196 86.9895H137.156C137.156 86.4044 138.196 86.087 138.196 86.087V86.9895ZM131.362 88.1928C131.362 88.456 131.35 88.8877 131.335 89.2457H122.273V87.6363C122.506 87.0166 122.909 86.9369 123.53 86.9369H130.154C131.579 86.9354 131.362 87.6964 131.362 88.1958V88.1928ZM141.962 83.4097V89.2412H139.798V83.9467C139.798 83.9467 139.36 84.1197 138.767 84.3904C138.174 84.6611 135.983 85.5561 135.983 86.7654V88.1552H138.196V89.2427H132.956C132.956 88.987 132.968 88.614 132.968 88.0574C132.964 87.6962 132.889 87.3393 132.747 87.0079C132.605 86.6765 132.399 86.3773 132.141 86.1278C131.883 85.8783 131.578 85.6836 131.245 85.5552C130.911 85.4268 130.556 85.3672 130.199 85.3801H124.137C123.807 85.3425 123.472 85.3714 123.153 85.4651C122.833 85.5588 122.535 85.7155 122.276 85.9261V81.4499C122.276 81.4499 121.334 82.1177 120.642 82.6532C119.949 83.1886 120.642 83.5451 120.642 83.5451V89.2472H118.652L118.609 84.3588L116.826 85.6824C116.434 85.9968 116.656 86.272 117.082 86.272C117.082 86.272 117.005 89.8819 117.005 90.7408C117.009 91.0024 116.946 91.2607 116.823 91.4908C116.7 91.7209 116.521 91.9151 116.302 92.0547C116.083 92.1943 115.833 92.2746 115.575 92.2879C115.317 92.3011 115.06 92.247 114.828 92.1306C114.828 92.1306 114.363 92.2253 114.751 92.5818C115.12 92.9489 115.607 93.1689 116.124 93.2015C116.444 93.2051 116.763 93.1438 117.06 93.0212C117.357 92.8986 117.627 92.7172 117.853 92.4875C118.08 92.2579 118.26 91.9847 118.381 91.6839C118.502 91.3832 118.562 91.061 118.559 90.7363H143.545V81.6138C143.545 81.6138 142.083 82.596 141.772 82.8667C141.462 83.1375 141.57 83.4563 141.962 83.4127V83.4097Z" fill="#5C0632"/>
<path d="M175.096 75.3132C173.941 75.7289 172.735 75.982 171.512 76.0652C170.209 76.1292 168.947 76.5514 167.862 77.2865C170.619 77.2309 173.533 77.1768 176.418 77.1106C176.209 76.8097 175.599 75.9073 175.599 75.9073C175.464 75.692 175.308 75.4905 175.134 75.3056L175.096 75.3177V75.3132ZM158.504 54.6361C162.099 54.6361 168.704 54.5504 175.224 54.4C175.98 53.7983 176.74 53.1967 177.543 52.586C170.309 52.3935 162.518 52.2852 158.504 52.2852C156.821 52.2852 155.451 52.8191 155.451 53.4629C155.451 54.1067 156.821 54.6406 158.504 54.6406V54.6361ZM159.544 48.9476C159.544 49.4574 160.618 49.8786 161.937 49.8786C166.041 49.8786 175.139 49.7282 181.783 49.4981C182.286 49.1491 182.775 48.7911 183.257 48.4542C176.562 48.191 166.351 48.018 161.937 48.018C160.618 48.018 159.544 48.4346 159.544 48.9491V48.9476ZM189.043 61.8047C189.909 62.315 190.817 62.7474 191.758 63.0967C193.682 63.1377 195.605 62.9397 197.482 62.5071C197.482 62.2559 194.022 62.0078 189.042 61.8047H189.043ZM156.448 59.3079C159.48 59.3079 164.449 59.2492 169.856 59.1575C170.636 58.4054 171.474 57.6413 172.358 56.8637C166.001 56.7298 159.946 56.6516 156.449 56.6516C154.533 56.6516 152.998 57.2533 152.998 57.9873C152.998 58.7213 154.534 59.3139 156.449 59.3139L156.448 59.3079ZM191.01 53.1139C190.478 53.3847 189.987 53.6599 189.481 53.9262C190.893 53.9661 192.303 53.8144 193.674 53.4749C192.81 53.2142 191.911 53.0933 191.01 53.117V53.1139ZM167.385 45.998C171.279 45.998 183.12 45.6972 183.12 45.3422C183.12 44.9872 171.267 44.6819 167.385 44.6819C166.629 44.6819 166.008 44.9827 166.008 45.3422C166.008 45.7017 166.629 45.998 167.385 45.998ZM192.879 57.8594C192.823 58.0515 192.744 58.2358 192.643 58.4084C193.819 58.4423 194.993 58.2952 196.125 57.9722C195.1 57.6629 194.033 57.5213 192.964 57.5526L192.879 57.8594ZM178.164 79.7112C170.759 79.5141 162.631 79.4104 158.504 79.4104C156.821 79.4104 155.451 79.9323 155.451 80.5881C155.451 81.2439 156.821 81.7628 158.504 81.7628C162.851 81.7628 171.624 81.6334 179.342 81.4138C178.939 80.8648 178.554 80.2873 178.162 79.7172L178.164 79.7112ZM181.658 84.5529C175.03 84.3213 166.008 84.1754 161.933 84.1754C160.613 84.1754 159.539 84.5875 159.539 85.0974C159.539 85.6073 160.613 86.0239 161.933 86.0239C166.207 86.0239 175.91 85.8735 182.604 85.6163C182.291 85.2749 181.98 84.9139 181.658 84.5529ZM166.008 88.6983C166.008 89.0592 166.629 89.3616 167.385 89.3616C171.267 89.3616 183.12 89.0608 183.12 88.6983C183.12 88.3358 171.279 88.038 167.385 88.038C166.629 88.038 166.008 88.3388 166.008 88.6983ZM159.006 72.9291C159.086 72.5296 159.258 72.1547 159.507 71.8341C159.472 71.8928 159.444 71.9364 159.492 71.8537C159.756 71.4025 160.116 70.8174 160.542 70.154C158.498 70.1345 156.714 70.1149 155.299 70.1149C153.283 70.1149 151.639 70.7557 151.639 71.5318C151.639 72.3079 153.283 72.9532 155.299 72.9532C156.35 72.9532 157.592 72.9457 159.013 72.9291H159.006ZM162.011 77.3587C161.508 76.8759 159.851 74.9401 159.646 74.7476C158.428 74.7401 157.342 74.7401 156.446 74.7401C154.53 74.7401 152.995 75.3297 152.995 76.0712C152.995 76.8128 154.531 77.3979 156.446 77.3979C157.908 77.3979 159.813 77.3828 162.011 77.3587V77.3587ZM161.756 68.4063C162.35 67.57 163.049 66.654 163.854 65.6583C160.266 65.6026 157.133 65.58 154.94 65.58C152.884 65.58 151.212 66.2283 151.212 67.021C151.212 67.8136 152.884 68.4619 154.94 68.4619C156.7 68.4619 159.055 68.4424 161.762 68.4063H161.756ZM155.313 63.9225C157.748 63.9225 161.333 63.8879 165.415 63.8202C166.137 62.9884 166.928 62.1281 167.78 61.2211C162.75 61.1384 158.22 61.0873 155.316 61.0873C153.3 61.0873 151.655 61.719 151.655 62.5011C151.655 63.2833 153.3 63.9225 155.316 63.9225" fill="#5C0632"/>
<path d="M197.862 65.9515C197.889 66.6735 197.889 67.3879 197.85 68.0798C190.951 68.3581 184.415 68.7822 184.415 69.2455C184.415 69.7088 190.804 70.1329 197.617 70.4112C197.497 71.1963 197.342 71.9815 197.164 72.7471C190.447 73.0344 184.21 73.442 184.21 73.8977C184.21 74.3535 190.036 74.7385 196.466 75.0168C196.182 75.8427 195.849 76.6504 195.469 77.4354C189.927 77.7107 185.357 78.0641 185.357 78.4567C185.357 78.8252 189.36 79.1636 194.395 79.4268C194.108 79.8856 193.812 80.3459 193.503 80.7806C193.178 81.2438 192.829 81.7116 192.441 82.1673C189.296 82.414 187.131 82.6863 187.131 82.972C187.131 83.2578 188.687 83.4714 191.068 83.6835C189.675 85.0779 188.109 86.2841 186.411 87.2723C185.012 86.0279 183.708 84.6773 182.512 83.2323C180.949 81.292 177.61 76.184 176.831 75.0378C176.053 73.8917 175.524 73.5608 174.603 73.8947C173.605 74.2505 172.565 74.4734 171.511 74.558C171.065 74.558 170.82 74.3821 171.561 74.0872C173.712 73.1894 175.5 71.5817 176.635 69.5253C178.241 66.2944 176.83 61.8408 176.83 61.8408C176.624 63.1005 175.999 64.251 175.057 65.1002C175.275 64.1366 175.288 63.1373 175.097 62.1681C174.905 61.199 174.512 60.282 173.944 59.4778L173.35 62.2815C173.35 62.2815 172.958 62.2619 172.028 63.0591C171.449 63.5759 171.038 64.2573 170.848 65.0144C171.578 65.3153 172.454 64.5707 172.454 64.5707C171.614 67.9385 170.295 71.1646 168.537 74.1474C167.8 75.5075 166.624 76.5697 165.206 77.1556C164.209 77.5602 163.886 77.0895 163.886 77.0895C163.09 76.3936 162.354 75.6292 161.688 74.8047C161.688 74.8047 161.633 74.7069 161.815 74.7145C162.309 74.722 163.161 73.8827 163.359 73.5292C163.561 73.1321 163.549 72.8178 163.433 72.7982C163.317 72.7787 163.136 73.1081 162.22 73.7007C161.273 74.3023 160.847 73.8857 160.548 73.5503C160.304 73.2871 160.536 72.9607 160.697 72.7531C160.836 72.5681 165.758 63.2772 178.777 53.5215C195.851 40.7215 206.745 37.2696 207.365 37.0184C207.783 36.8529 208.455 36.6378 208.61 36.7943C208.689 36.8565 208.753 36.9379 208.793 37.0312C208.834 37.1245 208.851 37.2266 208.843 37.3282C208.816 37.5328 208.715 37.6456 207.923 37.9915C201.494 41.083 195.292 44.6389 189.367 48.6316C185.677 50.5374 182.126 52.7063 178.74 55.1219C178.329 55.3776 178.624 55.7506 178.889 55.6002C187.898 49.5145 198.482 45.3722 210.172 41.9834C210.738 41.8225 211.042 41.8225 211.143 41.9489C211.231 42.0905 211.282 42.2525 211.291 42.4196C211.306 42.6392 211.143 42.7581 210.658 42.9461C198.092 47.67 188.832 52.0585 182.876 56.1116C182.876 56.1116 182.255 56.4921 182.243 56.9238C182.243 57.0848 182.581 57.1118 182.581 57.1118C185.567 57.1585 189.554 57.3389 191.447 57.4578C191.447 57.4578 191.172 58.4279 189.367 59.2086C188.089 59.6642 186.73 59.842 185.38 59.7305C185.308 59.723 185.236 59.7378 185.172 59.773C185.109 59.8081 185.058 59.862 185.026 59.9273C184.993 59.9926 184.981 60.0664 184.992 60.1387C185.002 60.211 185.033 60.2785 185.082 60.3321C185.198 60.4825 187.933 64.9377 197.859 65.9545" fill="#5C0632"/>
</g>
<defs>
<clipPath id="clip0_6289_33912">
<rect width="197.594" height="56.4554" fill="white" transform="translate(13.7031 36.7462)"/>
</clipPath>
</defs>
</svg>
