<svg width="225" height="130" viewBox="0 0 225 130" fill="none" xmlns="http://www.w3.org/2000/svg">
<rect y="0.40332" width="224.998" height="129.141" rx="16" fill="white"/>
<path d="M32.7501 50.2527C33.5201 48.3527 35.1601 47.0527 36.4301 45.5027C35.4909 46.9887 35.1347 48.7697 35.4301 50.5027C35.9874 52.2162 37.1265 53.6807 38.6501 54.6427C41.8901 57.0327 45.5801 58.7027 49.1201 60.5927C49.8765 60.9994 50.4747 61.648 50.8191 62.4347C51.1636 63.2215 51.2343 64.101 51.0201 64.9327C50.8093 65.513 50.467 66.0367 50.0201 66.4627C49.3801 67.2327 48.7201 67.9927 48.1001 68.7827C48.2175 68.4595 48.2692 68.1161 48.252 67.7726C48.2348 67.4291 48.1492 67.0926 48.0001 66.7827C47.3327 65.8622 46.4458 65.1231 45.4201 64.6327C42.7601 63.1827 40.0301 61.8527 37.4201 60.2627C35.4059 59.1156 33.801 57.3673 32.8301 55.2627C32.4804 54.4759 32.2931 53.6267 32.2794 52.7658C32.2656 51.905 32.4257 51.0502 32.7501 50.2527Z" fill="#0055A4"/>
<path d="M57.7 61.1427C58.83 59.8705 60.2803 58.9243 61.9 58.4027C62.5518 58.2555 63.2316 58.2905 63.8648 58.5039C64.4981 58.7173 65.0603 59.1009 65.49 59.6127C66.4963 60.9415 67.4149 62.3345 68.24 63.7827C67.8934 63.5226 67.4972 63.3361 67.0759 63.2347C66.6546 63.1332 66.217 63.119 65.79 63.1927C64.6249 63.6243 63.6151 64.3938 62.89 65.4027C61.89 66.5127 61.04 67.6727 60.12 68.8127C58.6786 70.5647 57.1289 72.2246 55.48 73.7827C53.9487 75.2828 52.2234 76.5709 50.35 77.6127C49.1223 78.2505 47.8364 78.7695 46.51 79.1627C44.5852 79.8407 42.549 80.1462 40.51 80.0627C38.3288 79.8605 36.2356 79.1031 34.43 77.8627C32.7637 76.6484 31.3363 75.1363 30.22 73.4027C29.45 72.3027 28.76 71.2027 28 70.1427V70.0927C30.0951 72.3534 32.6721 74.1135 35.54 75.2427C36.5762 75.6519 37.6868 75.8384 38.7998 75.7901C39.9128 75.7419 41.0031 75.46 42 74.9627C44.6484 73.4057 47.1023 71.5392 49.31 69.4027C52.2 66.7827 54.92 63.9127 57.7 61.1427Z" fill="#0055A4"/>
<path d="M71.93 68.2827C73.93 68.2827 75.8401 68.2827 77.7901 68.2827C78.3763 68.2515 78.9512 68.4527 79.39 68.8427C79.4617 68.9142 79.5186 68.9992 79.5574 69.0927C79.5961 69.1862 79.6161 69.2865 79.6161 69.3877C79.6161 69.4889 79.5961 69.5892 79.5574 69.6827C79.5186 69.7762 79.4617 69.8612 79.39 69.9327C78.9463 70.2984 78.3848 70.4903 77.8101 70.4727C76.4901 70.4727 75.1701 70.4727 73.8101 70.4727C73.2171 70.4868 72.6329 70.6178 72.0906 70.858C71.5484 71.0982 71.0589 71.443 70.6501 71.8727C70.1803 72.4328 69.9251 73.1417 69.93 73.8727C69.93 75.4027 69.93 76.9327 69.93 78.4627C69.9074 78.7138 69.8175 78.9541 69.6696 79.1582C69.5218 79.3624 69.3215 79.5229 69.09 79.6227C68.6019 79.8642 68.0647 79.9899 67.5201 79.9899C66.9754 79.9899 66.4382 79.8642 65.9501 79.6227C65.7043 79.5247 65.4902 79.3608 65.3315 79.1491C65.1727 78.9374 65.0753 78.6861 65.05 78.4227C65.05 76.8927 65.05 75.3527 65.05 73.8227C65.0507 73.0579 65.2323 72.3041 65.5799 71.6228C65.9274 70.9415 66.4312 70.3521 67.05 69.9027C68.4904 68.9114 70.1828 68.3496 71.93 68.2827Z" fill="#F68B1F"/>
<path d="M83.73 68.7827C84.5493 68.4235 85.4356 68.2428 86.33 68.2527C88.52 68.2527 90.71 68.2527 92.9 68.2527C93.6901 68.2182 94.4781 68.3569 95.2089 68.6592C95.9396 68.9616 96.5953 69.4201 97.13 70.0027C97.584 70.7776 97.7337 71.6936 97.55 72.5727C97.392 73.2368 97.0534 73.8443 96.5716 74.3279C96.0898 74.8114 95.4836 75.1523 94.82 75.3127C95.53 75.9727 96.36 76.4927 97.09 77.1327C97.3599 77.3639 97.531 77.6896 97.5682 78.0429C97.6054 78.3963 97.5059 78.7505 97.29 79.0327C96.7969 79.5015 96.1724 79.8086 95.5 79.9127C94.7728 80.0648 94.0149 79.9247 93.39 79.5227C91.6 78.1027 89.84 76.6627 88.05 75.2427C87.925 75.1629 87.8214 75.0538 87.7482 74.9248C87.675 74.7959 87.6345 74.651 87.63 74.5027C87.6541 74.3074 87.7352 74.1235 87.8633 73.9741C87.9914 73.8247 88.1607 73.7164 88.35 73.6627C89.43 73.1927 90.63 73.5527 91.75 73.3727C92.2 73.2627 92.75 73.0327 92.83 72.5127C92.875 72.0071 92.875 71.4984 92.83 70.9927C92.69 70.4727 92.03 70.4127 91.58 70.3927C90.18 70.3927 88.78 70.3927 87.38 70.3927C86.97 70.3927 86.38 70.5527 86.38 71.0627C86.38 73.4327 86.38 75.7927 86.38 78.1627C86.3922 78.4365 86.3286 78.7082 86.1963 78.9482C86.0639 79.1881 85.868 79.3869 85.63 79.5227C85.0682 79.8319 84.433 79.983 83.7921 79.9601C83.1512 79.9373 82.5284 79.7412 81.99 79.3927C81.803 79.2499 81.6547 79.0625 81.5586 78.8477C81.4625 78.6328 81.4218 78.3974 81.44 78.1627C81.44 76.0627 81.44 73.9627 81.44 71.8627C81.4241 71.2114 81.6207 70.5725 82 70.0427C82.4589 69.4811 83.0547 69.0471 83.73 68.7827Z" fill="#F68B1F"/>
<path d="M107.12 68.2927C109.07 68.2427 111.03 68.2927 112.98 68.2927C113.582 68.2475 114.18 68.4254 114.66 68.7927C114.745 68.8687 114.814 68.9619 114.86 69.0662C114.907 69.1705 114.931 69.2834 114.931 69.3977C114.931 69.512 114.907 69.625 114.86 69.7293C114.814 69.8335 114.745 69.9267 114.66 70.0027C114.177 70.3451 113.592 70.5143 113 70.4827H109.3C108.05 70.4575 106.84 70.9244 105.93 71.7827C105.517 72.2801 105.241 72.8764 105.129 73.5129C105.017 74.1494 105.072 74.8042 105.29 75.4127C105.496 75.9125 105.811 76.3598 106.212 76.7215C106.614 77.0833 107.092 77.3502 107.61 77.5027C108.984 77.8079 110.396 77.9089 111.8 77.8027C112.72 77.8027 113.8 77.6427 114.56 78.1927C114.653 78.2484 114.734 78.3228 114.797 78.4114C114.859 78.4999 114.903 78.6006 114.925 78.7069C114.946 78.8133 114.945 78.923 114.922 79.029C114.899 79.1351 114.854 79.2351 114.79 79.3227C114.556 79.5563 114.273 79.7362 113.962 79.8502C113.652 79.9641 113.32 80.0093 112.99 79.9827H107.47C105.477 79.947 103.554 79.2426 102.01 77.9827C101.467 77.4989 101.038 76.9011 100.752 76.2322C100.467 75.5632 100.333 74.8395 100.36 74.1127C100.332 73.414 100.452 72.7172 100.715 72.0688C100.977 71.4205 101.374 70.8354 101.88 70.3527C103.353 69.1088 105.194 68.3848 107.12 68.2927Z" fill="#F68B1F"/>
<path d="M124 68.2828C126 68.2828 127.9 68.2828 129.86 68.2828C130.421 68.2499 130.977 68.4047 131.44 68.7228C131.588 68.8373 131.692 68.9994 131.734 69.1817C131.775 69.364 131.753 69.5552 131.67 69.7228C131.478 69.9475 131.238 70.1268 130.969 70.2479C130.699 70.3689 130.406 70.4287 130.11 70.4228C129.11 70.4228 128.18 70.4228 127.22 70.4228C125.875 70.2706 124.517 70.5696 123.36 71.2728C122.918 71.5969 122.558 72.0207 122.31 72.5097C122.062 72.9988 121.933 73.5394 121.933 74.0878C121.933 74.6361 122.062 75.1767 122.31 75.6658C122.558 76.1549 122.918 76.5786 123.36 76.9028C124.283 77.4972 125.363 77.8004 126.46 77.7728H130C130.571 77.7449 131.133 77.9262 131.58 78.2828C131.652 78.3543 131.709 78.4392 131.747 78.5328C131.786 78.6263 131.806 78.7265 131.806 78.8278C131.806 78.929 131.786 79.0293 131.747 79.1228C131.709 79.2163 131.652 79.3013 131.58 79.3728C131.094 79.7796 130.473 79.9869 129.84 79.9528H124.29C122.298 79.9139 120.376 79.2099 118.83 77.9528C118.308 77.4669 117.89 76.8812 117.599 76.2305C117.308 75.5797 117.151 74.8772 117.137 74.1645C117.123 73.4519 117.253 72.7437 117.518 72.082C117.783 71.4204 118.178 70.8187 118.68 70.3128C120.179 69.0646 122.051 68.3504 124 68.2828Z" fill="#F68B1F"/>
<path d="M136 68.8628C136.905 68.4445 137.893 68.2392 138.89 68.2628H144.55C145.723 68.2065 146.896 68.3833 148 68.7828C148.433 68.9474 148.828 69.1979 149.161 69.5193C149.495 69.8407 149.76 70.2262 149.94 70.6528C150.082 71.1432 150.078 71.6644 149.929 72.1527C149.78 72.6411 149.492 73.0754 149.1 73.4028C149.469 73.7175 149.769 74.1057 149.98 74.5428C150.218 75.2434 150.293 75.9888 150.2 76.7228C150.17 77.1728 150.032 77.6091 149.799 77.9953C149.566 78.3814 149.244 78.7063 148.86 78.9428C148.247 79.3407 147.571 79.6315 146.86 79.8028C145.662 79.9828 144.45 80.0431 143.24 79.9828C142.418 80.087 141.584 79.9732 140.82 79.6528C140.622 79.5646 140.464 79.4067 140.376 79.2094C140.287 79.012 140.274 78.7889 140.34 78.5828C140.471 78.3761 140.647 78.2015 140.855 78.0717C141.063 77.9419 141.297 77.8603 141.54 77.8328C142.45 77.6928 143.37 77.8328 144.28 77.7328C144.76 77.6328 145.28 77.2928 145.28 76.7328C145.32 76.1735 145.32 75.6121 145.28 75.0528C145.133 74.7889 144.911 74.5743 144.642 74.4356C144.374 74.2969 144.07 74.2403 143.77 74.2728C142.58 74.2728 141.39 74.2728 140.21 74.2728C139.913 74.2502 139.617 74.3235 139.365 74.4819C139.113 74.6404 138.918 74.8755 138.81 75.1528C138.75 76.2428 138.81 77.3428 138.81 78.4328C138.775 78.7083 138.662 78.9683 138.485 79.1824C138.308 79.3966 138.074 79.5562 137.81 79.6428C137.262 79.8975 136.656 80.0012 136.055 79.9431C135.454 79.8851 134.879 79.6675 134.39 79.3128C134.228 79.1712 134.101 78.9931 134.021 78.7932C133.941 78.5932 133.91 78.3772 133.93 78.1628V72.4128C133.853 71.8697 133.877 71.3172 134 70.7828C134.185 70.3434 134.458 69.9465 134.802 69.6163C135.146 69.2861 135.553 69.0297 136 68.8628ZM139.35 70.5128C139.231 70.5467 139.121 70.6072 139.029 70.6897C138.936 70.7722 138.864 70.8746 138.817 70.9891C138.77 71.1036 138.749 71.2273 138.756 71.3509C138.764 71.4745 138.799 71.5948 138.86 71.7028C139.12 72.1028 139.65 72.1228 140.08 72.1528H143.76C144.216 72.1937 144.674 72.1035 145.08 71.8928C145.4 71.6728 145.35 71.2228 145.28 70.8928C145.21 70.5628 144.64 70.4728 144.28 70.4328C143.28 70.4328 142.35 70.4328 141.39 70.4328C140.696 70.3818 139.998 70.4087 139.31 70.5128H139.35Z" fill="#F68B1F"/>
<path d="M154.42 68.2927C154.872 68.1946 155.339 68.1874 155.794 68.2716C156.249 68.3557 156.683 68.5294 157.07 68.7827C157.252 68.908 157.398 69.0775 157.496 69.2752C157.594 69.4729 157.64 69.6923 157.63 69.9127V78.3327C157.633 78.5474 157.583 78.7596 157.483 78.95C157.384 79.1403 157.238 79.3028 157.06 79.4227C156.487 79.8042 155.811 80.001 155.123 79.9867C154.434 79.9724 153.767 79.7477 153.21 79.3427C153.059 79.2242 152.938 79.072 152.856 78.8984C152.775 78.7248 152.735 78.5344 152.74 78.3427C152.74 75.5027 152.74 72.6527 152.74 69.8127C152.75 68.9027 153.68 68.4827 154.42 68.2927Z" fill="#F68B1F"/>
<path d="M161.72 69.3827C162.761 68.6622 163.994 68.2719 165.26 68.2627H171.7C173.001 68.2305 174.283 68.578 175.39 69.2627C175.739 69.4769 176.033 69.7689 176.25 70.1159C176.467 70.4629 176.6 70.8554 176.64 71.2627C176.725 71.9743 176.647 72.6961 176.41 73.3727C176.149 73.8587 175.792 74.2867 175.36 74.6305C174.929 74.9743 174.432 75.2268 173.9 75.3727C174.6 76.0827 175.49 76.5827 176.22 77.2727C176.466 77.5063 176.616 77.8227 176.642 78.1608C176.668 78.4988 176.567 78.8344 176.36 79.1027C175.9 79.5367 175.329 79.8345 174.71 79.9627C174.312 80.0618 173.897 80.0747 173.494 80.0006C173.09 79.9264 172.707 79.7669 172.37 79.5327C170.78 78.2427 169.16 76.9627 167.56 75.6727C167.2 75.3727 166.69 75.1027 166.68 74.5627C166.67 74.0227 167.19 73.7927 167.61 73.6527C168.61 73.3127 169.74 73.6527 170.79 73.4427C171.014 73.4223 171.23 73.3457 171.417 73.2199C171.604 73.094 171.757 72.923 171.86 72.7227C171.905 72.1569 171.905 71.5884 171.86 71.0227C171.7 70.5727 171.16 70.5027 170.75 70.4727C169.49 70.4727 168.22 70.4727 166.96 70.4727C166.493 70.4289 166.024 70.5228 165.61 70.7427C165.51 70.8249 165.434 70.9319 165.388 71.053C165.342 71.174 165.329 71.305 165.35 71.4327V78.5327C165.328 78.7748 165.242 79.0068 165.102 79.2052C164.961 79.4037 164.771 79.5615 164.55 79.6627C163.762 80.0624 162.856 80.1619 162 79.9427C161.26 79.7827 160.42 79.2527 160.46 78.4027C160.46 76.2127 160.46 74.0127 160.46 71.8227C160.449 71.3431 160.559 70.8684 160.779 70.4422C160.999 70.0159 161.323 69.6517 161.72 69.3827Z" fill="#F68B1F"/>
<path d="M180.35 69.4927C181.508 68.6467 182.917 68.2136 184.35 68.2627C185.8 68.2627 187.25 68.2627 188.7 68.2627C190.891 68.2628 193.003 69.0833 194.62 70.5627C195.464 71.5348 195.951 72.7661 196 74.0527V74.1927C195.942 74.6635 195.858 75.1308 195.75 75.5927C195.46 76.6832 194.804 77.6404 193.89 78.3027C192.797 79.0962 191.533 79.6235 190.2 79.8427C188.986 79.9959 187.762 80.0494 186.54 80.0027C185.904 80.0404 185.278 79.8328 184.79 79.4227C184.645 79.2765 184.563 79.0788 184.563 78.8727C184.563 78.6665 184.645 78.4688 184.79 78.3227C185.404 77.8917 186.154 77.6997 186.9 77.7827C187.571 77.8067 188.24 77.6851 188.859 77.4262C189.479 77.1672 190.035 76.7771 190.49 76.2827C190.778 75.8807 190.982 75.4242 191.088 74.9411C191.194 74.4579 191.2 73.9583 191.106 73.4726C191.013 72.9869 190.821 72.5253 190.543 72.1162C190.265 71.707 189.907 71.3587 189.49 71.0927C188.31 70.5088 186.989 70.2729 185.68 70.4127C185.415 70.3893 185.148 70.4257 184.899 70.5191C184.649 70.6126 184.424 70.7607 184.24 70.9527C184.094 71.1921 184.034 71.4744 184.07 71.7527C184.07 73.8527 184.07 75.9627 184.07 78.0627C184.1 78.4071 184.034 78.7531 183.88 79.0627C183.601 79.424 183.217 79.6896 182.78 79.8227C182.263 80.0085 181.708 80.0674 181.164 79.9943C180.619 79.9212 180.1 79.7183 179.65 79.4027C179.466 79.2457 179.325 79.0458 179.237 78.8206C179.15 78.5955 179.12 78.3523 179.15 78.1127C179.15 76.0027 179.15 73.8927 179.15 71.7927C179.15 71.3409 179.259 70.8958 179.468 70.4953C179.676 70.0948 179.979 69.7508 180.35 69.4927Z" fill="#F68B1F"/>
<path d="M108.69 73.0027C109.99 73.0027 111.29 73.0027 112.58 73.0027C113.314 72.9345 114.05 73.114 114.67 73.5127C114.762 73.5955 114.833 73.6984 114.878 73.8133C114.923 73.9282 114.941 74.052 114.93 74.175C114.92 74.298 114.881 74.4169 114.816 74.5223C114.752 74.6277 114.664 74.7168 114.56 74.7827C114.094 75.0963 113.541 75.2539 112.98 75.2327H108.78C108.191 75.256 107.611 75.0837 107.13 74.7427C107.046 74.665 106.978 74.5706 106.933 74.4657C106.887 74.3607 106.863 74.2473 106.863 74.1327C106.863 74.0181 106.887 73.9047 106.933 73.7997C106.978 73.6947 107.046 73.6004 107.13 73.5227C107.576 73.177 108.126 72.9936 108.69 73.0027Z" fill="#F68B1F"/>
<path d="M125.51 72.9927C126.85 72.9927 128.2 72.9927 129.51 72.9927C130.226 72.9308 130.939 73.1376 131.51 73.5727C131.589 73.6569 131.648 73.7577 131.683 73.8677C131.718 73.9778 131.727 74.0943 131.711 74.2085C131.695 74.3228 131.653 74.4319 131.589 74.5278C131.524 74.6238 131.439 74.704 131.34 74.7627C130.494 75.1994 129.532 75.3602 128.59 75.2227C127.5 75.2227 126.4 75.2227 125.31 75.2227C125.026 75.2275 124.745 75.1751 124.482 75.0685C124.219 74.962 123.98 74.8036 123.78 74.6027C123.657 74.4427 123.6 74.2417 123.62 74.0408C123.641 73.84 123.737 73.6546 123.89 73.5227C124.353 73.1647 124.925 72.9775 125.51 72.9927Z" fill="#F68B1F"/>
<path d="M72.8301 73.1127C74.0801 73.0127 75.3401 73.1127 76.6001 73.1127C77.4992 72.9933 78.4138 73.1284 79.2401 73.5027C79.3319 73.5541 79.4121 73.6238 79.4759 73.7075C79.5397 73.7912 79.5857 73.8871 79.611 73.9892C79.6363 74.0914 79.6404 74.1976 79.623 74.3014C79.6057 74.4052 79.5672 74.5043 79.5101 74.5927C79.2962 74.8334 79.0299 75.0217 78.7316 75.1431C78.4334 75.2645 78.1112 75.3157 77.7901 75.2927C76.1701 75.2927 74.5501 75.2927 72.9401 75.2927C72.3501 75.1927 71.5601 74.8827 71.5401 74.1827C71.5201 73.4827 72.2801 73.2127 72.8301 73.1127Z" fill="#F68B1F"/>
</svg>
