<svg width="225" height="130" viewBox="0 0 225 130" fill="none" xmlns="http://www.w3.org/2000/svg">
<rect y="0.40332" width="224.998" height="129.141" rx="16" fill="white"/>
<path d="M59.94 50.9528C60.4422 50.8203 60.9684 50.8065 61.4769 50.9124C61.9854 51.0182 62.4623 51.2409 62.87 51.5628C63.1209 51.7611 63.3277 52.0095 63.4772 52.2922C63.6266 52.575 63.7155 52.8858 63.7381 53.2048C63.7607 53.5238 63.7165 53.844 63.6083 54.145C63.5002 54.446 63.3305 54.7211 63.11 54.9528C62.6796 55.385 62.1362 55.6874 61.542 55.8253C60.9478 55.9632 60.3268 55.9312 59.75 55.7328C59.1172 55.5156 58.5752 55.0933 58.21 54.5328C57.9687 54.117 57.8631 53.6364 57.9079 53.1578C57.9527 52.6792 58.1457 52.2265 58.46 51.8628C58.8565 51.4245 59.37 51.1088 59.94 50.9528Z" fill="#FF0042"/>
<path d="M169.51 50.9827C170.195 50.7644 170.934 50.7862 171.605 51.0443C172.275 51.3025 172.838 51.7816 173.2 52.4027C173.396 52.8331 173.455 53.3132 173.369 53.7782C173.283 54.2431 173.057 54.6706 172.72 55.0027C172.221 55.4839 171.58 55.7922 170.892 55.8822C170.205 55.9722 169.506 55.8392 168.9 55.5027C168.472 55.2854 168.117 54.9465 167.88 54.5285C167.644 54.1104 167.536 53.6319 167.57 53.1527C167.639 52.6383 167.86 52.1563 168.206 51.7694C168.552 51.3825 169.006 51.1084 169.51 50.9827Z" fill="#FF0042"/>
<path d="M38.38 51.2727H45C45.88 53.0727 46.85 54.8527 47.69 56.6827C49.06 59.6827 50.49 62.6827 51.78 65.6827C53 68.5327 54.23 71.3727 55.37 74.2427H49.9L47.78 69.1827H35.63C34.9167 70.876 34.21 72.566 33.51 74.2527H28C29.6467 70.1727 31.3767 66.1194 33.19 62.0927C34.19 60.0027 35.12 57.8927 36.11 55.8127C36.83 54.2827 37.65 52.7827 38.38 51.2727ZM41.69 55.0827C40.16 58.2927 38.86 61.5827 37.46 64.8327H46C45.46 63.5627 44.93 62.2927 44.38 61.0227C43.47 59.0327 42.7 57.0127 41.69 55.0827Z" fill="#FF0042"/>
<path d="M88.79 51.2827C91.01 51.2827 93.23 51.2827 95.46 51.2827C96.35 53.1627 97.37 55.0027 98.23 56.9027C99.52 59.7227 100.87 62.5227 102.09 65.3627C103.31 68.2027 104.63 71.2627 105.82 74.2427C103.98 74.2427 102.13 74.2427 100.29 74.2427C99.61 72.5427 98.89 70.8627 98.19 69.1727H86L83.88 74.2427H78.41C80.17 69.9127 82 65.5927 84 61.3227C85 59.0727 86 56.7827 87.12 54.5727C87.67 53.4727 88.26 52.3827 88.79 51.2827ZM90.9 57.6827C89.9 60.0727 88.9 62.4527 87.9 64.8327H96.39C94.99 61.5727 93.69 58.2727 92.15 55.0627C91.67 55.9227 91.3 56.7827 90.9 57.6827Z" fill="#FF0042"/>
<path d="M144.79 52.5827C146.53 52.1227 148.27 51.6827 150.02 51.2327V58.9427C150.825 58.2083 151.774 57.6509 152.808 57.3064C153.841 56.9619 154.936 56.838 156.02 56.9427C157.248 56.9704 158.455 57.2594 159.562 57.7905C160.669 58.3216 161.65 59.0826 162.44 60.0227C163.162 61.0031 163.673 62.1222 163.941 63.3096C164.21 64.497 164.23 65.7271 164 66.9227C163.754 68.9014 162.794 70.7221 161.3 72.0427C159.779 73.2832 157.951 74.0914 156.01 74.3827C153.754 74.7309 151.465 74.8148 149.19 74.6327C147.71 74.5427 146.19 74.4827 144.76 74.2527C144.79 67.0227 144.8 59.7827 144.79 52.5827ZM151 62.0427C150.281 62.9598 149.925 64.1097 150 65.2727C150 67.1327 150 69.0027 150 70.8627C151.159 71.1091 152.347 71.1966 153.53 71.1227C155.027 71.1203 156.463 70.5315 157.53 69.4827C158.015 68.9029 158.377 68.2311 158.596 67.5075C158.814 66.784 158.883 66.0238 158.8 65.2727C158.794 64.5824 158.645 63.9009 158.363 63.271C158.081 62.6411 157.671 62.0765 157.16 61.6127C156.634 61.2144 156.03 60.9304 155.388 60.7789C154.746 60.6274 154.079 60.6116 153.43 60.7327C152.479 60.8323 151.606 61.303 151 62.0427Z" fill="#FF0042"/>
<path d="M72.65 57.2728C74.7095 56.7948 76.8421 56.7201 78.93 57.0528C79.592 57.1527 80.2398 57.3306 80.86 57.5828C80.34 58.7128 79.86 59.8328 79.31 60.9628C77.373 60.4623 75.3253 60.6099 73.48 61.3828C73.48 65.6728 73.48 69.9628 73.48 74.2528H68.27V58.8328C69.6468 58.1036 71.1222 57.5781 72.65 57.2728Z" fill="#FF0042"/>
<path d="M112.45 57.3227C114.62 56.7902 116.876 56.7052 119.08 57.0727C119.693 57.1695 120.291 57.3442 120.86 57.5927C120.36 58.7127 119.86 59.8227 119.33 60.9427C117.375 60.4606 115.316 60.6219 113.46 61.4027C113.46 65.6827 113.46 69.9727 113.46 74.2527H108.28C108.28 69.1627 108.28 64.0727 108.28 58.9827C108.28 58.8127 108.45 58.7627 108.57 58.6827C109.798 58.0609 111.103 57.6037 112.45 57.3227Z" fill="#FF0042"/>
<path d="M58.22 58.2627L63.41 56.9327C63.41 62.7027 63.41 68.4827 63.41 74.2527H58.22V58.2627Z" fill="#FF0042"/>
<path d="M126.89 57.6728C129.335 56.9161 131.917 56.7146 134.45 57.0828C136.448 57.2559 138.402 57.7665 140.23 58.5928V74.2528H135V72.6828C133.569 73.9946 131.691 74.7101 129.75 74.6828C127.741 74.7558 125.758 74.2 124.08 73.0928C123.159 72.4259 122.396 71.5656 121.843 70.5722C121.29 69.5789 120.962 68.4766 120.88 67.3428C120.653 65.2185 121.112 63.0772 122.19 61.2328C123.312 59.552 124.968 58.298 126.89 57.6728ZM127.5 62.1828C126.589 63.2734 126.137 64.6754 126.24 66.0928C126.22 66.8089 126.348 67.5215 126.617 68.1857C126.885 68.8499 127.288 69.4515 127.8 69.9528C128.292 70.3591 128.864 70.6579 129.479 70.8301C130.094 71.0024 130.738 71.0441 131.37 70.9528C132.343 70.9089 133.26 70.4895 133.93 69.7828C134.7 68.8467 135.082 67.6518 135 66.4428C135 64.5528 135 62.6528 135 60.7628C133.795 60.5293 132.564 60.4553 131.34 60.5428C129.897 60.578 128.523 61.165 127.5 62.1828Z" fill="#FF0042"/>
<path d="M167.89 58.2627L173.07 56.9327C173.07 62.7027 173.07 68.4727 173.07 74.2427C171.34 74.2427 169.61 74.2427 167.87 74.2427C167.877 68.9227 167.883 63.5961 167.89 58.2627Z" fill="#FF0042"/>
<path d="M179.31 59.6627C181.176 58.0435 183.532 57.0994 186 56.9827C188.521 56.8238 191.052 57.06 193.5 57.6827C194.359 57.898 195.191 58.21 195.98 58.6127C195.98 63.8327 195.98 69.0427 195.98 74.2527H190.76C190.76 73.7327 190.76 73.2527 190.76 72.7027C189.907 73.4724 188.899 74.0495 187.803 74.3946C186.707 74.7397 185.55 74.8448 184.41 74.7027C183.237 74.6562 182.087 74.3654 181.033 73.8488C179.979 73.3322 179.045 72.6012 178.29 71.7027C177.566 70.7044 177.055 69.5679 176.788 68.3637C176.521 67.1595 176.505 65.9134 176.74 64.7027C176.986 62.7753 177.894 60.9935 179.31 59.6627ZM184.17 61.4227C183.649 61.7587 183.202 62.1985 182.858 62.7146C182.514 63.2308 182.28 63.8122 182.17 64.4227C181.89 65.7202 181.991 67.071 182.46 68.3127C182.652 68.8166 182.941 69.2775 183.312 69.6689C183.683 70.0602 184.127 70.3742 184.62 70.5927C185.698 71.0132 186.882 71.0798 188 70.7827C188.855 70.5025 189.593 69.9454 190.096 69.1993C190.6 68.4532 190.84 67.5607 190.78 66.6627C190.78 64.7027 190.78 62.7427 190.78 60.7827C189.821 60.5529 188.835 60.462 187.85 60.5127C186.562 60.4571 185.284 60.773 184.17 61.4227Z" fill="#FF0042"/>
</svg>
