<svg width="225" height="130" viewBox="0 0 225 130" fill="none" xmlns="http://www.w3.org/2000/svg">
<rect y="0.40332" width="224.998" height="129.141" rx="16" fill="white"/>
<g clip-path="url(#clip0_6289_33914)">
<path d="M46.41 38.4427C46.97 37.9027 47.5 37.3427 48.08 36.7827C48.1434 37.5561 48.3976 38.3017 48.82 38.9527C49.5091 39.7419 50.1344 40.5846 50.69 41.4727C50.8189 41.6692 50.8834 41.9009 50.8744 42.1357C50.8655 42.3705 50.7835 42.5967 50.64 42.7827C50.14 43.3327 49.64 43.8427 49.08 44.3727C48.8085 43.9072 48.4718 43.4829 48.08 43.1127C48.08 43.9327 48.08 44.7527 48.08 45.5627C48.1623 46.2835 48.0041 47.0112 47.63 47.6327C48.6388 48.7236 49.3484 50.0567 49.69 51.5027C49.7985 52.4988 49.8352 53.5014 49.8 54.5027C49.8301 54.9889 49.8301 55.4765 49.8 55.9627C49.7215 56.3626 49.5226 56.729 49.23 57.0127C48.69 57.5727 48.14 58.1227 47.57 58.6627C47.17 59.1004 46.7085 59.4777 46.2 59.7827C45.811 59.9697 45.3811 60.0557 44.95 60.0327H37.65C37.264 60.0401 36.8807 59.9654 36.5256 59.8137C36.1705 59.662 35.8516 59.4367 35.59 59.1527C35.3282 58.8839 35.175 58.5277 35.16 58.1527C35.16 57.1527 35.16 56.2327 35.16 55.2727C35.3053 55.5342 35.5074 55.7598 35.7514 55.9329C35.9954 56.106 36.2752 56.2221 36.57 56.2727C36.9534 56.301 37.3383 56.245 37.6977 56.1085C38.0571 55.972 38.3821 55.7584 38.65 55.4827C40.55 53.4827 42.44 51.4827 44.35 49.5427C43.13 48.4827 41.94 47.3927 40.63 46.4527C40.27 46.2027 39.92 45.8327 39.44 45.8427C39.1333 45.8498 38.8358 45.949 38.5862 46.1273C38.3365 46.3056 38.1462 46.5549 38.04 46.8427C37.7224 48.5379 37.6751 50.2727 37.9 51.9827C37.9 52.2027 37.96 52.4227 37.99 52.6427C37.34 51.9727 36.67 51.3227 35.99 50.6427C35.5905 50.1814 35.3497 49.604 35.3029 48.9956C35.2561 48.3871 35.4058 47.7797 35.73 47.2627C36.4259 46.3047 37.3897 45.5741 38.5 45.1627C39.321 44.9443 40.1736 44.8699 41.02 44.9427C41.9895 44.8638 42.9653 44.9414 43.91 45.1727C45.0248 45.5566 46.0467 46.1698 46.91 46.9727C47.1078 46.7357 47.2236 46.441 47.24 46.1327C47.24 44.8927 47.24 43.6527 47.24 42.4127C46.62 41.8552 46.1695 41.1344 45.94 40.3327C45.8098 39.9228 45.8098 39.4826 45.94 39.0727C46.0411 38.8265 46.2028 38.6098 46.41 38.4427ZM40.09 55.2627C39.6733 55.7717 39.1687 56.2019 38.6 56.5327C41.17 56.5327 43.73 56.5327 46.3 56.5327C46.9097 56.5648 47.5211 56.5212 48.12 56.4027C48.2899 56.3608 48.4458 56.275 48.5722 56.1539C48.6985 56.0328 48.7909 55.8807 48.84 55.7127C48.8731 55.4035 48.8393 55.0908 48.741 54.7957C48.6426 54.5007 48.482 54.2303 48.27 54.0027C47.2974 52.6421 46.2136 51.3644 45.03 50.1827C43.37 51.8727 41.75 53.5827 40.09 55.2627Z" fill="#C23C40"/>
<path d="M53.88 40.6627C55.28 39.3727 56.66 38.0727 58.07 36.8027C58.41 36.8027 58.76 36.8027 59.07 36.8027C58.46 37.3227 57.88 37.8727 57.29 38.4027C56.868 38.8036 56.5344 39.2882 56.3106 39.8255C56.0867 40.3627 55.9775 40.9408 55.99 41.5227C55.99 44.9161 55.99 48.3061 55.99 51.6927C56.0203 52.5327 55.8914 53.3708 55.61 54.1627C55.3786 54.8764 55.0005 55.5338 54.5 56.0927C53.2 57.3427 51.86 58.5427 50.5 59.7327C50.17 59.7327 49.85 59.7327 49.5 59.7327C49.98 59.3027 50.43 58.8527 50.91 58.4127C51.2791 58.1172 51.6144 57.7818 51.91 57.4127C52.3331 56.7643 52.5589 56.007 52.56 55.2327V44.3427C52.56 43.0001 53.0266 41.6993 53.88 40.6627Z" fill="#C23C40"/>
<path d="M30.83 50.7827H32.07C32.1344 50.7751 32.1998 50.783 32.2606 50.8056C32.3215 50.8282 32.3761 50.8649 32.42 50.9127C32.8178 51.3813 33.0622 51.9607 33.12 52.5727C33.2533 54.6 33.2767 56.6329 33.19 58.6627C33.2243 59.5776 33.5581 60.4559 34.14 61.1627C34.4296 61.5237 34.7964 61.8153 35.2134 62.016C35.6304 62.2167 36.0871 62.3215 36.55 62.3227H52.55C52.7125 61.2802 53.1242 60.2922 53.75 59.4427C55.15 58.0627 56.6 56.7427 58.07 55.4427C58.4364 55.4626 58.8036 55.4626 59.17 55.4427C58.4666 56.0114 57.7987 56.6225 57.17 57.2727C56.7862 57.6176 56.5028 58.0599 56.35 58.5527C56.037 59.7935 55.9323 61.0776 56.04 62.3527H58.19C59.0048 62.2936 59.7697 61.9378 60.34 61.3527C60.59 61.1827 60.5 60.8827 60.52 60.6327C60.52 60.0527 60.52 59.4827 60.52 58.9027C60.8514 59.3974 61.2521 59.8419 61.71 60.2227C62.2187 59.6106 62.7809 59.0451 63.39 58.5327C64.0111 57.9343 64.8127 57.5581 65.67 57.4627C65.9557 57.4316 66.2447 57.4679 66.5138 57.5686C66.783 57.6693 67.0248 57.8317 67.22 58.0427C67.4321 58.3251 67.5804 58.6502 67.6547 58.9955C67.7289 59.3408 67.7273 59.6981 67.65 60.0427C67.5387 60.9004 67.132 61.6924 66.5 62.2827C65.7 63.0127 64.93 63.7727 64.12 64.4927C63.8946 64.7194 63.6214 64.8928 63.3203 65.0001C63.0192 65.1074 62.6979 65.1459 62.38 65.1127C62.0993 65.0657 61.8319 64.9593 61.5956 64.8006C61.3594 64.642 61.1597 64.4347 61.01 64.1927C60.616 63.4536 60.4392 62.6181 60.5 61.7827C60.3013 62.0198 60.0839 62.2405 59.85 62.4427C58.57 63.6727 57.23 64.8427 56.02 66.1527C56.02 67.5727 56.02 68.9927 56.02 70.4127C56.1321 71.8233 55.9898 73.2425 55.6 74.6027C55.2986 75.3306 54.849 75.9879 54.28 76.5327C53.05 77.7827 51.8 78.8927 50.5 79.9927C50.15 79.9927 49.81 79.9927 49.5 79.9927C50.23 79.3327 50.95 78.6627 51.67 77.9927C52.3315 77.2109 52.6679 76.2052 52.61 75.1827C52.61 72.1827 52.61 69.1227 52.61 66.0927H38.5C37.3398 66.132 36.1974 65.7991 35.24 65.1427C33.9569 64.1335 33.0458 62.7264 32.65 61.1427C32.433 60.3984 32.3186 59.628 32.31 58.8527C32.31 57.1627 32.31 55.4627 32.31 53.7727C32.3018 53.246 32.1896 52.726 31.98 52.2427C31.7784 51.6369 31.3717 51.1205 30.83 50.7827ZM62.15 60.7827C62.59 61.2927 62.99 61.8427 63.47 62.3127C63.802 62.6361 64.2236 62.8521 64.68 62.9327C64.8331 62.95 64.9877 62.9162 65.1196 62.8366C65.2516 62.7571 65.3537 62.6362 65.41 62.4927C65.5239 62.1292 65.4953 61.7359 65.33 61.3927C65.2741 61.1692 65.1662 60.9621 65.015 60.7883C64.8638 60.6145 64.6736 60.4789 64.46 60.3927C64.0697 60.2857 63.6609 60.2651 63.2619 60.3325C62.8629 60.3999 62.4834 60.5535 62.15 60.7827Z" fill="#C23C40"/>
<path d="M29.1801 62.8927C29.6301 62.8927 30.0801 62.8927 30.5301 62.8927C30.6073 62.9054 30.6807 62.9354 30.7448 62.9804C30.8089 63.0254 30.8619 63.0843 30.9001 63.1527C31.1292 63.4939 31.2857 63.8785 31.3601 64.2827C31.5118 65.0902 31.5788 65.9113 31.5601 66.7327V70.2827C31.548 70.9585 31.6356 71.6324 31.8201 72.2827C32.2588 73.6608 33.0944 74.8787 34.2222 75.7842C35.3499 76.6896 36.7197 77.2421 38.1601 77.3727C40.9601 77.3727 43.7601 77.3727 46.5501 77.3727C46.8954 77.365 47.2352 77.284 47.5469 77.1351C47.8586 76.9862 48.1352 76.7729 48.3583 76.5091C48.5814 76.2454 48.7459 75.9373 48.8411 75.6052C48.9362 75.2731 48.9597 74.9246 48.9101 74.5827C48.8184 74.0659 48.5366 73.6021 48.1201 73.2827C47.6325 72.8618 47.1685 72.4145 46.7301 71.9427C46.7301 70.7627 46.7301 69.5827 46.7301 68.4127C46.7103 68.0797 46.7103 67.7457 46.7301 67.4127C47.6635 68.2207 48.5083 69.1258 49.2501 70.1127C49.6114 70.9989 49.7421 71.9623 49.6301 72.9127C49.721 73.9953 49.6194 75.0855 49.3301 76.1327C48.8154 77.0522 48.1685 77.8912 47.4101 78.6227C46.9362 79.1384 46.4138 79.6072 45.8501 80.0227C45.3715 80.4045 44.8253 80.6929 44.2401 80.8727C43.5843 81.0221 42.9124 81.0893 42.2401 81.0727H38.3301C37.0854 80.9835 35.8784 80.6064 34.8043 79.9713C33.7301 79.3362 32.8181 78.4603 32.1401 77.4127C31.1734 76.0158 30.6474 74.3614 30.6301 72.6627C30.6301 70.3527 30.6301 68.0327 30.6301 65.7227C30.6322 65.1694 30.5017 64.6237 30.2494 64.1313C29.9971 63.6388 29.6304 63.2141 29.1801 62.8927Z" fill="#C23C40"/>
<path d="M58.69 65.4027C59.6098 66.1983 60.4231 67.1091 61.11 68.1127C61.4586 68.8143 61.6335 69.5894 61.62 70.3727V74.6927C61.62 75.3127 61.62 75.9327 61.62 76.5527C61.5569 78.3766 60.9043 80.131 59.76 81.5527C58.0614 83.4381 55.7007 84.5951 53.17 84.7827C52.01 84.8627 50.85 84.7827 49.69 84.7827C48.33 83.6127 46.99 82.4027 45.61 81.2427H52.32C53.7586 81.2324 55.1578 80.7707 56.32 79.9227C57.2437 79.2489 58.0801 78.4628 58.81 77.5827C59.6579 76.7162 60.3362 75.6987 60.81 74.5827C61.115 73.8187 61.115 72.9667 60.81 72.2027C60.4523 71.6447 60.0104 71.1455 59.5 70.7227C59.24 70.4327 58.93 70.1827 58.69 69.8627C58.68 68.3827 58.71 66.8927 58.69 65.4027Z" fill="#C23C40"/>
<path d="M34.12 70.4927C35.03 69.5927 35.93 68.6827 36.83 67.7827L38.5 69.3727C38.9656 69.7568 39.2836 70.2905 39.4 70.8827C39.5 71.3327 39.16 71.7027 38.91 72.0227C38.2497 72.7624 37.5343 73.4511 36.77 74.0827C36.6011 73.5061 36.3189 72.969 35.94 72.5027C35.3732 71.7976 34.7655 71.1265 34.12 70.4927Z" fill="#C23C40"/>
<path d="M39.66 70.4727L42.38 67.7827C43.03 68.4027 43.66 69.0527 44.31 69.6727C44.5792 69.8991 44.769 70.2055 44.8517 70.5473C44.9345 70.889 44.9058 71.2483 44.77 71.5727C44.0582 72.5146 43.2356 73.3674 42.32 74.1127C42.0092 73.185 41.4812 72.345 40.78 71.6627C40.41 71.2527 40.03 70.8727 39.66 70.4727Z" fill="#C23C40"/>
<path d="M126.87 49.7827C127.42 49.6679 127.994 49.7605 128.48 50.0427C128.914 50.2879 129.252 50.674 129.437 51.1372C129.622 51.6003 129.643 52.1127 129.497 52.5896C129.352 53.0665 129.047 53.4794 128.635 53.76C128.223 54.0406 127.727 54.172 127.23 54.1327C126.681 54.1323 126.152 53.9256 125.747 53.5534C125.343 53.1812 125.094 52.6708 125.049 52.1233C125.003 51.5758 125.166 51.0313 125.503 50.5978C125.84 50.1642 126.328 49.8733 126.87 49.7827Z" fill="#C23C40"/>
<path d="M76.3199 50.9727H86.2099C87.4392 50.914 88.6713 50.9709 89.8899 51.1427C90.6576 51.2407 91.3965 51.4976 92.0594 51.8971C92.7222 52.2965 93.2946 52.8297 93.7399 53.4627C94.0542 53.9437 94.2748 54.4798 94.3899 55.0427C93.2623 54.3031 91.9852 53.8216 90.6499 53.6327C89.3856 53.4844 88.1128 53.4209 86.8399 53.4427C85.5399 53.3927 84.2299 53.4427 82.9199 53.4427C83.114 53.8674 83.2422 54.3193 83.2999 54.7827C83.4087 56.1131 83.4455 57.4483 83.4099 58.7827C85.0199 58.8427 86.7299 58.5527 88.2499 59.2327C89.4866 59.7564 90.4968 60.7027 91.0999 61.9027C90.5517 61.6296 89.9749 61.4183 89.3799 61.2727C88.0955 61.086 86.7972 61.0124 85.4999 61.0527C84.8099 61.0527 84.1299 61.0527 83.4399 61.0527V68.6727C83.4418 69.3536 83.5567 70.0294 83.7799 70.6727C83.9236 70.9131 84.132 71.1081 84.3814 71.2354C84.6308 71.3628 84.911 71.4173 85.1899 71.3927H90.4599C92.0299 71.3927 93.8299 71.0527 94.8199 69.7127C94.8885 70.5559 94.7654 71.4037 94.4599 72.1927C94.1429 72.7434 93.6803 73.1962 93.1229 73.5014C92.5654 73.8066 91.9347 73.9523 91.2999 73.9227H79.9899C79.4199 73.9227 78.9899 73.4527 78.7899 72.9827C78.4657 72.1484 78.3126 71.2574 78.3399 70.3627C78.3399 65.6027 78.3399 60.8427 78.2799 56.0827C78.3057 54.1911 77.6041 52.3618 76.3199 50.9727Z" fill="#C23C40"/>
<path d="M161.72 55.7228C163.362 54.5897 164.762 53.1416 165.84 51.4628V55.6428H169.91C169.91 56.5628 169.91 57.4728 169.91 58.3928C169.268 58.0613 168.575 57.8383 167.86 57.7328C167.195 57.6732 166.527 57.6532 165.86 57.6728C165.86 61.9128 165.86 66.1528 165.86 70.3828C165.873 71.0768 166.044 71.7589 166.359 72.3774C166.674 72.9958 167.126 73.5345 167.68 73.9528C166.26 73.9528 164.85 73.9528 163.43 73.9528C163.083 74.0067 162.729 73.9358 162.43 73.7528C161.978 73.3181 161.686 72.7439 161.6 72.1228C161.45 70.9893 161.4 69.845 161.45 68.7028C161.45 65.0328 161.45 61.3528 161.45 57.7028C160.45 57.7028 159.39 57.7028 158.36 57.6428C159.52 57.0761 160.643 56.4348 161.72 55.7228Z" fill="#C23C40"/>
<path d="M104.28 55.8627C105.404 55.4438 106.635 55.4047 107.783 55.7515C108.932 56.0982 109.935 56.8117 110.64 57.7827C110.883 58.1673 111.078 58.5804 111.22 59.0127C111.614 57.7997 112.421 56.763 113.5 56.0827C114.61 55.5124 115.892 55.3701 117.1 55.6827C117.761 55.7659 118.397 55.9869 118.967 56.3314C119.537 56.6759 120.029 57.1363 120.41 57.6827C120.908 58.5478 121.154 59.535 121.12 60.5327V70.2327C121.126 70.9422 121.293 71.6412 121.608 72.2769C121.923 72.9126 122.379 73.4685 122.94 73.9027H118.16C117.945 73.8863 117.738 73.8115 117.561 73.6864C117.385 73.5613 117.247 73.3907 117.16 73.1927C116.728 72.1234 116.527 70.975 116.57 69.8227C116.57 66.9727 116.57 64.1227 116.57 61.2727C116.57 60.8552 116.472 60.4436 116.282 60.0716C116.093 59.6996 115.818 59.3778 115.48 59.1327C114.892 58.7149 114.166 58.54 113.453 58.6443C112.739 58.7486 112.093 59.1242 111.65 59.6927C111.425 60.0099 111.316 60.3946 111.34 60.7827C111.34 63.9727 111.34 67.1627 111.34 70.3427C111.366 71.041 111.543 71.7254 111.859 72.3486C112.175 72.9719 112.622 73.5191 113.17 73.9527C111.7 73.9527 110.23 73.9527 108.76 73.9527C108.483 73.9965 108.199 73.9509 107.95 73.8227C107.497 73.4484 107.195 72.9226 107.1 72.3427C106.941 71.597 106.87 70.835 106.89 70.0727C106.89 67.1527 106.89 64.2427 106.89 61.3227C106.886 60.7795 106.722 60.2495 106.42 59.7981C106.118 59.3467 105.691 58.9937 105.19 58.7827C104.551 58.5888 103.867 58.6133 103.243 58.8523C102.62 59.0914 102.095 59.5314 101.75 60.1027C101.63 60.3191 101.578 60.5664 101.6 60.8127C101.6 63.9727 101.6 67.1327 101.6 70.2927C101.612 70.9995 101.779 71.695 102.088 72.3307C102.397 72.9664 102.841 73.5268 103.39 73.9727C101.81 73.9727 100.23 73.9727 98.65 73.9727C98.22 73.9727 97.93 73.5827 97.72 73.2527C97.3147 72.3625 97.123 71.39 97.16 70.4127C97.16 66.6827 97.16 62.9627 97.16 59.2327C97.2114 58.5425 97.0859 57.8507 96.7954 57.2225C96.5049 56.5943 96.0591 56.0506 95.5 55.6427C96.5 55.6427 97.5 55.6427 98.5 55.6427C98.9102 55.6391 99.3159 55.727 99.6879 55.9C100.06 56.073 100.388 56.3267 100.65 56.6427C101.163 57.3417 101.459 58.1765 101.5 59.0427C101.712 58.346 102.069 57.7022 102.548 57.1539C103.028 56.6057 103.618 56.1656 104.28 55.8627Z" fill="#C23C40"/>
<path d="M176.05 55.7827C177.341 55.4924 178.684 55.5233 179.96 55.8727C180.891 56.1289 181.734 56.6336 182.4 57.3327C182.774 57.7276 183.052 58.2043 183.21 58.7251C183.368 59.2459 183.402 59.7963 183.31 60.3327C183.09 61.4135 182.566 62.409 181.8 63.2027C181.185 63.867 180.485 64.4485 179.72 64.9327C178.91 65.3996 178.075 65.8235 177.22 66.2027C176.437 66.5573 175.751 67.0959 175.22 67.7727C175.371 68.886 175.847 69.9299 176.59 70.7727C177.202 71.3744 177.99 71.7635 178.84 71.8827C179.425 72 180.03 71.9816 180.607 71.8291C181.184 71.6766 181.719 71.3939 182.17 71.0027C182.625 70.5999 183.013 70.1274 183.32 69.6027C183.32 70.6027 183.32 71.6027 183.32 72.6027C182.442 73.2405 181.417 73.6463 180.34 73.7827C178.579 74.1171 176.761 73.979 175.07 73.3827C174.047 72.9613 173.125 72.3256 172.368 71.5184C171.611 70.7111 171.035 69.751 170.68 68.7027C169.955 66.5538 169.865 64.2415 170.42 62.0427C170.787 60.3994 171.58 58.8817 172.72 57.6427C173.627 56.7145 174.784 56.0686 176.05 55.7827ZM177.2 57.1027C176.915 57.1853 176.65 57.3255 176.421 57.5148C176.192 57.704 176.005 57.9381 175.87 58.2027C175.41 59.1233 175.118 60.1191 175.01 61.1427C174.822 62.6684 174.768 64.2076 174.85 65.7427C175.27 65.3397 175.732 64.9842 176.23 64.6827C177.007 64.2256 177.686 63.6209 178.23 62.9027C178.959 61.8955 179.373 60.695 179.42 59.4527C179.485 58.8239 179.34 58.1914 179.01 57.6527C178.799 57.3881 178.515 57.1912 178.193 57.0863C177.872 56.9815 177.526 56.9732 177.2 57.0627V57.1027Z" fill="#C23C40"/>
<path d="M186.2 57.4328C186.779 56.8126 187.481 56.3198 188.261 55.9858C189.041 55.6518 189.882 55.4839 190.73 55.4928C192.399 55.4896 194.03 55.9993 195.4 56.9528C195.4 57.9528 195.4 58.9528 195.4 60.0228C194.967 59.0381 194.193 58.2428 193.22 57.7828C192.52 57.5231 191.763 57.4608 191.03 57.6028C190.677 57.6654 190.339 57.7907 190.03 57.9728C189.737 58.1384 189.511 58.4001 189.389 58.7134C189.267 59.0268 189.257 59.3728 189.36 59.6928C189.647 60.4079 190.169 61.004 190.84 61.3828C192.472 62.1972 193.955 63.2788 195.23 64.5828C195.821 65.2675 196.229 66.0905 196.416 66.9752C196.603 67.8599 196.563 68.7776 196.3 69.6428C196.017 70.4699 195.562 71.2279 194.966 71.8672C194.37 72.5065 193.645 73.0127 192.84 73.3528C191.665 73.8799 190.37 74.0836 189.09 73.9428C187.775 73.8159 186.505 73.3993 185.37 72.7228C185.37 71.6328 185.37 70.5428 185.37 69.4528C185.795 70.4781 186.586 71.3087 187.59 71.7828C188.305 72.0449 189.081 72.0898 189.821 71.9119C190.561 71.7339 191.233 71.3411 191.75 70.7828C192.016 70.4885 192.212 70.1375 192.323 69.7564C192.434 69.3753 192.457 68.974 192.39 68.5828C192.273 68.1078 192.053 67.6645 191.745 67.2843C191.438 66.904 191.05 66.5962 190.61 66.3828C189.056 65.6153 187.661 64.5599 186.5 63.2728C185.7 62.2283 185.29 60.9374 185.34 59.6228C185.372 58.8167 185.675 58.045 186.2 57.4328Z" fill="#C23C40"/>
<path d="M123.5 55.6427C124.61 55.6427 125.72 55.6427 126.83 55.6427C127.238 55.646 127.639 55.7521 127.996 55.9514C128.353 56.1506 128.653 56.4365 128.87 56.7827C129.464 57.97 129.703 59.303 129.56 60.6227V69.9127C129.529 70.6212 129.641 71.3286 129.89 71.9927C130.207 72.7734 130.716 73.4614 131.37 73.9927C129.78 73.9927 128.2 73.9927 126.61 73.9927C126.418 73.9665 126.236 73.8935 126.079 73.7802C125.922 73.6668 125.795 73.5166 125.71 73.3427C124.96 72.0127 125.15 70.4227 125.12 68.9527C125.12 65.7227 125.12 62.4827 125.12 59.2427C125.171 58.5552 125.05 57.8658 124.767 57.2372C124.484 56.6085 124.048 56.0604 123.5 55.6427Z" fill="#C23C40"/>
<path d="M132.17 55.6128H135.25C135.657 55.5838 136.066 55.6491 136.444 55.8034C136.822 55.9577 137.159 56.197 137.43 56.5028C137.914 57.3407 138.182 58.2856 138.21 59.2528C138.478 58.061 139.154 57.0001 140.12 56.2528C140.67 55.8931 141.313 55.7015 141.97 55.7015C142.627 55.7015 143.27 55.8931 143.82 56.2528C144.01 56.362 144.169 56.5173 144.282 56.7044C144.396 56.8914 144.461 57.1041 144.47 57.3228V60.1428C144.155 59.7551 143.765 59.4349 143.323 59.2013C142.882 58.9676 142.398 58.8253 141.9 58.7828C140.931 58.6989 139.967 58.9847 139.2 59.5828C138.911 59.8194 138.678 60.1169 138.517 60.454C138.357 60.791 138.272 61.1594 138.27 61.5328C138.27 64.1328 138.27 66.7328 138.27 69.3428C138.228 70.0748 138.292 70.8091 138.46 71.5228C138.743 72.4881 139.319 73.3411 140.11 73.9628C138.53 73.9628 136.95 73.9628 135.37 73.9628C134.83 73.9628 134.48 73.4228 134.27 72.9628C133.877 71.7265 133.731 70.4253 133.84 69.1328V60.4728C133.976 59.2108 133.779 57.9353 133.27 56.7728C133.008 56.299 132.629 55.8998 132.17 55.6128Z" fill="#C23C40"/>
<path d="M146.58 56.9427C148.261 55.8665 150.274 55.43 152.25 55.7127C153.663 55.9309 154.955 56.6388 155.9 57.7127C156.455 58.3965 156.756 59.2519 156.75 60.1327C156.75 63.5427 156.75 66.9527 156.75 70.3627C156.773 71.0556 156.949 71.7348 157.268 72.3506C157.586 72.9665 158.038 73.5036 158.59 73.9227H154.01C153.824 73.9239 153.641 73.8789 153.477 73.7916C153.313 73.7043 153.173 73.5775 153.07 73.4227C152.728 72.9353 152.509 72.3728 152.43 71.7827C151.925 72.6768 151.105 73.3506 150.13 73.6727C148.8 74.0969 147.365 74.0581 146.06 73.5627C145.501 73.3101 145.012 72.9248 144.636 72.4404C144.259 71.9559 144.007 71.3869 143.9 70.7827C143.687 70.1038 143.614 69.3889 143.684 68.6809C143.755 67.9729 143.968 67.2864 144.31 66.6627C145.132 65.4365 146.283 64.4662 147.63 63.8627C148.95 63.1727 150.39 62.7627 151.63 62.0027C151.991 61.77 152.284 61.4456 152.479 61.0626C152.674 60.6796 152.764 60.2518 152.74 59.8227C152.763 59.5334 152.729 59.2423 152.64 58.966C152.551 58.6898 152.408 58.4338 152.22 58.2127C151.473 57.6881 150.55 57.4796 149.65 57.6327C148.967 57.7461 148.324 58.0314 147.782 58.4617C147.239 58.8921 146.816 59.4534 146.55 60.0927C146.59 59.0527 146.58 58.0027 146.58 56.9427ZM151.35 63.9427C150.372 64.4455 149.494 65.1234 148.76 65.9427C147.887 67.0828 147.49 68.5161 147.65 69.9427C147.69 70.3753 147.86 70.7857 148.136 71.1208C148.413 71.456 148.783 71.7005 149.2 71.8227C149.77 71.9165 150.354 71.8748 150.904 71.701C151.455 71.5273 151.957 71.2265 152.37 70.8227C152.37 68.2527 152.37 65.6927 152.37 63.1327C152.067 63.4378 151.724 63.7002 151.35 63.9127V63.9427Z" fill="#C23C40"/>
</g>
<defs>
<clipPath id="clip0_6289_33914">
<rect width="168" height="48" fill="white" transform="translate(28.5 36.7827)"/>
</clipPath>
</defs>
</svg>
