<svg width="225" height="130" viewBox="0 0 225 130" fill="none" xmlns="http://www.w3.org/2000/svg">
<rect y="0.40332" width="224.998" height="129.141" rx="16" fill="white"/>
<path d="M151.585 62.0101L152.802 53.8219C150.147 52.3834 146.44 51.1663 142.18 51.1663C133.77 51.1663 129.178 55.5923 129.178 61.2908C129.178 67.3212 134.656 69.0916 138.418 70.3641C140.686 71.194 142.456 71.8026 142.456 73.0197C142.456 74.0156 141.295 74.9561 138.971 74.9561C135.596 74.9561 130.893 73.0198 127.851 70.3088L126.523 79.2715C129.676 81.5951 134.213 82.9783 139.026 82.9783C147.38 82.9783 152.138 78.8842 152.138 73.0751C152.138 66.9893 146.993 64.9422 142.844 63.4485C140.52 62.6186 138.86 62.1207 138.86 60.9588C138.86 59.963 140.022 59.1884 142.401 59.1884C145.831 59.1884 149.372 60.7929 151.585 62.0101Z" fill="#FF0000"/>
<path d="M45.0288 51.9961L44.4755 54.6517C42.8711 51.4982 38.1131 51.1663 35.5682 51.1663C27.6014 51.1663 20.6304 58.8011 20.6304 69.2576C20.6304 77.667 25.7203 82.9783 32.0827 82.9783C35.6235 82.9783 38.6664 82.1484 41.156 79.2161L40.4921 82.1484H41.9306H50.506L55.098 51.9408H45.0288V51.9961ZM36.6747 72.9091C33.2445 72.9091 30.6442 70.2535 30.6442 66.8787C30.6442 63.5592 33.2998 60.8482 36.6747 60.8482C39.9942 60.8482 42.6498 63.5592 42.6498 66.8787C42.6498 70.2535 39.9942 72.9091 36.6747 72.9091Z" fill="#FF0000"/>
<path d="M118.888 51.9961H117.837L117.283 54.6517C115.679 51.4982 110.921 51.1663 108.376 51.1663C100.409 51.1663 93.4382 58.8011 93.4382 69.2576C93.4382 77.667 98.5282 82.9783 104.891 82.9783C108.431 82.9783 111.474 82.1484 113.964 79.2161L113.3 82.1484H114.738H123.314L127.906 51.9408H118.888V51.9961ZM109.483 72.9091C106.052 72.9091 103.452 70.2535 103.452 66.8787C103.452 63.5592 106.108 60.8482 109.483 60.8482C112.802 60.8482 115.458 63.5592 115.458 66.8787C115.513 70.2535 112.802 72.9091 109.483 72.9091Z" fill="#FF0000"/>
<path d="M194.352 51.9961H193.3L192.747 54.6517C191.143 51.4982 186.385 51.1663 183.84 51.1663C175.873 51.1663 168.902 58.8011 168.902 69.2576C168.902 77.667 173.992 82.9783 180.354 82.9783C183.895 82.9783 186.938 82.1484 189.428 79.2161L188.764 82.1484H190.202H198.778L203.37 51.9408H194.352V51.9961ZM184.946 72.9091C181.516 72.9091 178.916 70.2535 178.916 66.8787C178.916 63.5592 181.572 60.8482 184.946 60.8482C188.266 60.8482 190.921 63.5592 190.921 66.8787C190.921 70.2535 188.266 72.9091 184.946 72.9091Z" fill="#FF0000"/>
<path d="M64.7798 53.1029C67.5603 53.1029 69.8144 50.8488 69.8144 48.0683C69.8144 45.2878 67.5603 43.0337 64.7798 43.0337C61.9992 43.0337 59.7452 45.2878 59.7452 48.0683C59.7452 50.8488 61.9992 53.1029 64.7798 53.1029Z" fill="#FF0000"/>
<path d="M64.7245 55.039C62.5669 55.039 60.6305 54.0431 59.358 52.5493L54.8766 82.1484H64.9458L69.3165 53.3792C68.044 54.4304 66.4949 55.039 64.7245 55.039Z" fill="#FF0000"/>
<path d="M88.2931 61.9548C91.0737 61.9548 93.3277 59.7007 93.3277 56.9202C93.3277 54.1397 91.0737 51.8856 88.2931 51.8856C85.5124 51.8856 83.2585 54.1397 83.2585 56.9202C83.2585 59.7007 85.5124 61.9548 88.2931 61.9548Z" fill="#FF0000"/>
<path d="M81.2668 56.9203C81.2668 54.9839 82.0414 53.2135 83.3138 51.941H73.8532L69.2612 82.1486H79.3304L82.5393 60.9037C81.7094 59.7972 81.2668 58.4141 81.2668 56.9203Z" fill="#FF0000"/>
<path d="M163.646 53.0475C166.427 53.0475 168.681 50.7934 168.681 48.0129C168.681 45.2323 166.427 42.9783 163.646 42.9783C160.865 42.9783 158.611 45.2323 158.611 48.0129C158.611 50.7934 160.865 53.0475 163.646 53.0475Z" fill="#FF0000"/>
<path d="M163.646 55.0392C161.433 55.0392 159.441 53.988 158.114 52.3835L153.577 82.1485H163.646L168.017 53.49C166.8 54.4859 165.306 55.0392 163.646 55.0392Z" fill="#FF0000"/>
</svg>
