<svg width="147" height="127" viewBox="0 0 147 127" fill="none" xmlns="http://www.w3.org/2000/svg">
<g clip-path="url(#clip0_6759_42188)">
<path d="M135.381 117.62L139.32 116.37C139.811 114.256 139.778 112.055 139.225 109.956C137.642 113.474 133 114.337 130.355 117.145C129.536 118.027 128.927 119.082 128.572 120.232C128.217 121.381 128.125 122.596 128.303 123.786L127.475 126.597C129.41 126.432 131.287 125.849 132.975 124.889C134.663 123.928 136.123 122.613 137.255 121.034C137.881 120.142 138.392 119.174 138.776 118.155C137.096 117.986 135.381 117.62 135.381 117.62Z" fill="#F2F2F2"/>
<path d="M131.172 112.422L134.14 109.547C133.637 107.436 132.626 105.48 131.195 103.849C131.347 107.703 127.577 110.545 126.461 114.239C126.123 115.393 126.048 116.609 126.243 117.797C126.437 118.984 126.897 120.112 127.587 121.098L128.099 123.984C129.758 122.972 131.177 121.614 132.26 120.001C133.343 118.388 134.064 116.56 134.372 114.642C134.534 113.565 134.56 112.471 134.449 111.387C132.871 111.986 131.172 112.422 131.172 112.422Z" fill="#F2F2F2"/>
<path d="M111.442 8.42685H0.432202C0.31674 8.42441 0.206834 8.37682 0.126041 8.2943C0.0452478 8.21178 0 8.10089 0 7.9854C0 7.86991 0.0452478 7.75902 0.126041 7.6765C0.206834 7.59397 0.31674 7.54639 0.432202 7.54395H111.442C111.557 7.54639 111.667 7.59397 111.748 7.6765C111.829 7.75902 111.874 7.86991 111.874 7.9854C111.874 8.10089 111.829 8.21178 111.748 8.2943C111.667 8.37682 111.557 8.42441 111.442 8.42685V8.42685Z" fill="#3F3D56"/>
<path d="M7.98752 5.28956C9.41635 5.28956 10.5746 4.10545 10.5746 2.64478C10.5746 1.18411 9.41635 0 7.98752 0C6.55869 0 5.40039 1.18411 5.40039 2.64478C5.40039 4.10545 6.55869 5.28956 7.98752 5.28956Z" fill="#3F3D56"/>
<path d="M16.927 5.28956C18.3558 5.28956 19.5141 4.10545 19.5141 2.64478C19.5141 1.18411 18.3558 0 16.927 0C15.4981 0 14.3398 1.18411 14.3398 2.64478C14.3398 4.10545 15.4981 5.28956 16.927 5.28956Z" fill="#3F3D56"/>
<path d="M25.8645 5.28956C27.2933 5.28956 28.4516 4.10545 28.4516 2.64478C28.4516 1.18411 27.2933 0 25.8645 0C24.4356 0 23.2773 1.18411 23.2773 2.64478C23.2773 4.10545 24.4356 5.28956 25.8645 5.28956Z" fill="#3F3D56"/>
<path d="M106.06 0.655273H99.7115C99.5856 0.657779 99.4658 0.709525 99.3777 0.799402C99.2896 0.889279 99.2402 1.01012 99.2402 1.13598C99.2402 1.26184 99.2896 1.38268 99.3777 1.47255C99.4658 1.56243 99.5856 1.61418 99.7115 1.61668H106.06C106.186 1.61418 106.306 1.56243 106.394 1.47255C106.482 1.38268 106.531 1.26184 106.531 1.13598C106.531 1.01012 106.482 0.889279 106.394 0.799402C106.306 0.709525 106.186 0.657779 106.06 0.655273V0.655273Z" fill="#3F3D56"/>
<path d="M106.06 2.45996H99.7115C99.5857 2.46245 99.4658 2.51419 99.3777 2.60407C99.2896 2.69395 99.2402 2.8148 99.2402 2.94066C99.2402 3.06653 99.2896 3.18738 99.3777 3.27726C99.4658 3.36714 99.5857 3.41888 99.7115 3.42137H106.06C106.186 3.41888 106.306 3.36714 106.394 3.27726C106.482 3.18738 106.531 3.06653 106.531 2.94066C106.531 2.8148 106.482 2.69395 106.394 2.60407C106.306 2.51419 106.186 2.46245 106.06 2.45996V2.45996Z" fill="#3F3D56"/>
<path d="M106.06 4.26172H99.7115C99.5857 4.26421 99.4658 4.31595 99.3777 4.40582C99.2896 4.4957 99.2402 4.61655 99.2402 4.74242C99.2402 4.86829 99.2896 4.98914 99.3777 5.07902C99.4658 5.1689 99.5857 5.22064 99.7115 5.22313H106.06C106.186 5.22064 106.306 5.1689 106.394 5.07902C106.482 4.98914 106.531 4.86829 106.531 4.74242C106.531 4.61655 106.482 4.4957 106.394 4.40582C106.306 4.31595 106.186 4.26421 106.06 4.26172V4.26172Z" fill="#3F3D56"/>
<path d="M8.59886 26.3618C10.3653 26.3618 11.7973 24.9298 11.7973 23.1633C11.7973 21.3968 10.3653 19.9648 8.59886 19.9648C6.83239 19.9648 5.40039 21.3968 5.40039 23.1633C5.40039 24.9298 6.83239 26.3618 8.59886 26.3618Z" fill="#E6E7E8"/>
<path d="M90.0484 30.2467H6.35283C6.10022 30.2467 5.85797 30.1463 5.67935 29.9677C5.50073 29.7891 5.40039 29.5468 5.40039 29.2942C5.40039 29.0416 5.50073 28.7994 5.67935 28.6208C5.85797 28.4421 6.10022 28.3418 6.35283 28.3418H90.0484C90.301 28.3418 90.5432 28.4421 90.7218 28.6208C90.9004 28.7994 91.0008 29.0416 91.0008 29.2942C91.0008 29.5468 90.9004 29.7891 90.7218 29.9677C90.5432 30.1463 90.301 30.2467 90.0484 30.2467V30.2467Z" fill="#E6E7E8"/>
<path d="M68.0978 34.0104H6.35288C6.10026 34.0104 5.858 33.9101 5.67937 33.7315C5.50074 33.5528 5.40039 33.3106 5.40039 33.058C5.40039 32.8053 5.50074 32.5631 5.67937 32.3844C5.858 32.2058 6.10026 32.1055 6.35288 32.1055H68.0978C68.3504 32.1055 68.5927 32.2058 68.7713 32.3844C68.9499 32.5631 69.0503 32.8053 69.0503 33.058C69.0503 33.3106 68.9499 33.5528 68.7713 33.7315C68.5927 33.9101 68.3504 34.0104 68.0978 34.0104V34.0104Z" fill="#E6E7E8"/>
<path d="M8.59886 76.2856C10.3653 76.2856 11.7973 74.8536 11.7973 73.0871C11.7973 71.3207 10.3653 69.8887 8.59886 69.8887C6.83239 69.8887 5.40039 71.3207 5.40039 73.0871C5.40039 74.8536 6.83239 76.2856 8.59886 76.2856Z" fill="#E6E7E8"/>
<path d="M90.0499 80.1695H6.35436C6.22915 80.1697 6.10513 80.1452 5.9894 80.0975C5.87367 80.0497 5.7685 79.9796 5.67989 79.8911C5.59129 79.8026 5.521 79.6976 5.47304 79.5819C5.42508 79.4663 5.40039 79.3423 5.40039 79.2171C5.40039 79.0919 5.42508 78.9679 5.47304 78.8523C5.521 78.7366 5.59129 78.6315 5.67989 78.5431C5.7685 78.4546 5.87367 78.3845 5.9894 78.3367C6.10513 78.2889 6.22915 78.2644 6.35436 78.2646H90.0499C90.3152 78.2794 90.5655 78.3929 90.7515 78.5827C90.9375 78.7725 91.0458 79.025 91.0552 79.2906C91.0474 79.4145 91.0151 79.5356 90.9602 79.6469C90.9054 79.7583 90.829 79.8577 90.7356 79.9394C90.6421 80.0211 90.5334 80.0835 90.4157 80.123C90.298 80.1625 90.1737 80.1783 90.0499 80.1695V80.1695Z" fill="#E6E7E8"/>
<path d="M68.0978 83.9333H6.35288C6.10026 83.9333 5.858 83.8329 5.67937 83.6543C5.50074 83.4757 5.40039 83.2334 5.40039 82.9808C5.40039 82.7282 5.50074 82.4859 5.67937 82.3073C5.858 82.1287 6.10026 82.0283 6.35288 82.0283H68.0978C68.3504 82.0283 68.5927 82.1287 68.7713 82.3073C68.9499 82.4859 69.0503 82.7282 69.0503 82.9808C69.0503 83.2334 68.9499 83.4757 68.7713 83.6543C68.5927 83.8329 68.3504 83.9333 68.0978 83.9333V83.9333Z" fill="#E6E7E8"/>
<path d="M8.59886 49.4419C10.3653 49.4419 11.7973 48.0099 11.7973 46.2434C11.7973 44.4769 10.3653 43.0449 8.59886 43.0449C6.83239 43.0449 5.40039 44.4769 5.40039 46.2434C5.40039 48.0099 6.83239 49.4419 8.59886 49.4419Z" fill="#E6E7E8"/>
<path d="M90.0484 53.3258H6.35283C6.10022 53.3258 5.85797 53.2254 5.67935 53.0468C5.50073 52.8682 5.40039 52.6259 5.40039 52.3733C5.40039 52.1207 5.50073 51.8785 5.67935 51.6999C5.85797 51.5212 6.10022 51.4209 6.35283 51.4209H90.0484C90.301 51.4209 90.5432 51.5212 90.7218 51.6999C90.9004 51.8785 91.0008 52.1207 91.0008 52.3733C91.0008 52.6259 90.9004 52.8682 90.7218 53.0468C90.5432 53.2254 90.301 53.3258 90.0484 53.3258V53.3258Z" fill="#E6E7E8"/>
<path d="M78.3932 57.0895H6.35288C6.10026 57.0895 5.858 56.9892 5.67937 56.8106C5.50074 56.6319 5.40039 56.3897 5.40039 56.1371C5.40039 55.8844 5.50074 55.6422 5.67937 55.4635C5.858 55.2849 6.10026 55.1846 6.35288 55.1846H78.3932C78.6458 55.1846 78.8881 55.2849 79.0667 55.4635C79.2453 55.6422 79.3457 55.8844 79.3457 56.1371C79.3457 56.3897 79.2453 56.6319 79.0667 56.8106C78.8881 56.9892 78.6458 57.0895 78.3932 57.0895V57.0895Z" fill="#E6E7E8"/>
<path d="M73.5036 60.8532H6.35288C6.10026 60.8532 5.858 60.7529 5.67937 60.5742C5.50074 60.3956 5.40039 60.1533 5.40039 59.9007C5.40039 59.6481 5.50074 59.4058 5.67937 59.2272C5.858 59.0486 6.10026 58.9482 6.35288 58.9482H73.5036C73.7562 58.9482 73.9985 59.0486 74.1771 59.2272C74.3557 59.4058 74.4561 59.6481 74.4561 59.9007C74.4561 60.1533 74.3557 60.3956 74.1771 60.5742C73.9985 60.7529 73.7562 60.8532 73.5036 60.8532V60.8532Z" fill="#E6E7E8"/>
<path d="M74.8934 102.961C87.975 102.961 98.5797 92.3558 98.5797 79.2742C98.5797 66.1926 87.975 55.5879 74.8934 55.5879C61.8118 55.5879 51.207 66.1926 51.207 79.2742C51.207 92.3558 61.8118 102.961 74.8934 102.961Z" fill="#6C63FF"/>
<path d="M74.8623 87.538C76.7311 87.538 78.246 86.0231 78.246 84.1543C78.246 82.2855 76.7311 80.7705 74.8623 80.7705C72.9935 80.7705 71.4785 82.2855 71.4785 84.1543C71.4785 86.0231 72.9935 87.538 74.8623 87.538Z" fill="#3F3D56"/>
<path d="M74.8606 85.7163C75.7231 85.7163 76.4223 85.017 76.4223 84.1545C76.4223 83.292 75.7231 82.5928 74.8606 82.5928C73.998 82.5928 73.2988 83.292 73.2988 84.1545C73.2988 85.017 73.998 85.7163 74.8606 85.7163Z" fill="#6C63FF"/>
<path d="M81.1435 91.687H68.6461C67.4086 91.6856 66.2222 91.1935 65.3472 90.3185C64.4722 89.4435 63.9799 88.2571 63.9785 87.0196V81.2897C63.9799 80.0522 64.4721 78.8658 65.3472 77.9907C66.2222 77.1157 67.4086 76.6235 68.6461 76.6221H81.1435C82.3809 76.6235 83.5673 77.1157 84.4423 77.9908C85.3173 78.8658 85.8095 80.0522 85.8109 81.2897V87.0196C85.8095 88.2571 85.3173 89.4434 84.4423 90.3184C83.5673 91.1934 82.3809 91.6856 81.1435 91.687V91.687ZM68.6461 77.1108C67.5382 77.112 66.476 77.5527 65.6926 78.3361C64.9092 79.1196 64.4685 80.1817 64.4672 81.2897V87.0196C64.4685 88.1275 64.9092 89.1897 65.6926 89.973C66.476 90.7564 67.5382 91.1971 68.6461 91.1983H81.1435C82.2513 91.1971 83.3135 90.7564 84.0969 89.973C84.8803 89.1897 85.321 88.1275 85.3222 87.0196V81.2897C85.321 80.1818 84.8803 79.1196 84.0969 78.3362C83.3135 77.5527 82.2514 77.1121 81.1435 77.1108L68.6461 77.1108Z" fill="white"/>
<path d="M67.9056 88.5767H78.9982C79.574 88.5767 80.1441 88.4633 80.6761 88.243C81.208 88.0227 81.6913 87.6997 82.0985 87.2926C82.5056 86.8854 82.8285 86.4021 83.0489 85.8702C83.2692 85.3382 83.3826 84.7681 83.3826 84.1923V79.3972C83.3818 78.8655 83.2837 78.3383 83.0934 77.8418C83.6346 78.2493 84.0737 78.7769 84.3761 79.3831C84.6785 79.9893 84.8359 80.6575 84.8359 81.3349V86.13C84.8359 86.7058 84.7225 87.2759 84.5022 87.8079C84.2818 88.3398 83.9589 88.8231 83.5517 89.2303C83.1446 89.6374 82.6613 89.9604 82.1293 90.1807C81.5974 90.401 81.0273 90.5144 80.4515 90.5144H69.3588C68.4698 90.5139 67.602 90.2431 66.8706 89.7378C66.1392 89.2325 65.5787 88.5167 65.2637 87.6854C66.023 88.2637 66.9511 88.5769 67.9056 88.5767Z" fill="#3F3D56"/>
<path d="M101.874 123.777L99.1484 123.777L97.8516 113.263L101.875 113.263L101.874 123.777Z" fill="#A0616A"/>
<path d="M101.97 126.62L93.5879 126.62V126.514C93.588 125.649 93.9317 124.819 94.5436 124.207C95.1554 123.595 95.9852 123.251 96.8505 123.251H96.8507L98.3818 122.09L101.238 123.252L101.97 123.252L101.97 126.62Z" fill="#2F2E41"/>
<path d="M121.161 123.777L123.886 123.777L125.183 113.263L121.16 113.263L121.161 123.777Z" fill="#A0616A"/>
<path d="M121.065 126.62L129.447 126.62V126.514C129.447 125.649 129.103 124.819 128.491 124.207C127.879 123.595 127.049 123.251 126.184 123.251H126.184L124.653 122.09L121.796 123.252L121.064 123.252L121.065 126.62Z" fill="#2F2E41"/>
<path d="M97.7318 105.536C97.7721 104.936 98.0921 101.619 98.0921 101.619L98.8588 94.5825L100.21 75.9313L100.298 74.7103L107.377 73.3514L112.214 71.0322L117.964 72.8703L122.442 74.5493C122.442 74.5493 122.449 75.2681 122.484 76.1364C122.53 77.273 122.61 78.6664 122.802 79.0286C123.122 79.6688 123.042 83.1054 123.042 83.1054C123.042 83.1054 123.36 90.0975 123.76 90.8642C124.161 91.6308 124.241 93.2274 124.121 93.5475C124 93.8676 124.521 102.265 124.521 102.265C124.521 102.265 125.859 117.124 125.02 119.365C124.18 121.605 121.008 120.138 121.008 120.138C121.008 120.138 121.161 119.54 120.241 119.258C119.321 118.976 116.519 97.906 116.519 97.906C116.519 97.906 115.998 93.5858 115.519 92.3477C115.039 91.1095 114.599 87.6307 114.599 87.6307C114.599 87.6307 111.639 81.873 111.601 80.5926C111.601 80.5926 111.214 79.3947 110.848 80.7134C110.482 82.0321 109.402 85.1908 109.402 85.1908L108.35 89.0701L107.112 94.8662L106.311 99.7461C106.311 99.7461 105.111 106.223 104.919 106.502C104.728 106.782 104.919 112.699 104.919 112.699C104.919 112.699 103.992 117.738 102.681 118.618C101.37 119.497 97.8963 118.632 97.8963 118.632C97.8963 118.632 97.6916 106.136 97.7318 105.536Z" fill="#2F2E41"/>
<path d="M100.751 57.6999L102.325 62.4399L100.383 64.7513L101.238 65.6312L100.607 66.875L98.9629 79.9124L107.979 83.3316L111.015 79.5251L113.409 83.3316L123.842 80.7825L121.181 64.1572V63.0703L120.43 60.9716V56.5287L122.414 43.3036L116.493 41.2298L113.662 38.9893L112.746 42.1402L108.845 41.4465L108.744 39.0792L105.759 41.8988L103.246 42.6155L100.237 43.3036L99.8541 44.262L100.621 44.0704L100.496 56.5384L100.751 57.6999Z" fill="#2F2E41"/>
<path d="M98.0572 75.0425L99.5714 60.3856L99.9711 54.3533L95.7328 53.5869C95.7328 53.5869 95.9007 57.9002 95.3455 60.3338C94.7976 62.7353 95.2728 74.7207 95.3067 75.0412C94.9954 75.3196 94.776 75.6858 94.6774 76.0916C94.5789 76.4973 94.6058 76.9235 94.7547 77.3136C94.9035 77.7037 95.1673 78.0394 95.5112 78.2763C95.855 78.5132 96.2627 78.6402 96.6802 78.6404C97.0978 78.6406 97.5055 78.514 97.8496 78.2774C98.1936 78.0408 98.4578 77.7054 98.607 77.3154C98.7563 76.9254 98.7836 76.4993 98.6854 76.0935C98.5872 75.6876 98.3682 75.3212 98.0572 75.0425V75.0425Z" fill="#A0616A"/>
<path d="M93.9242 63.4228L95.103 63.6662L99.1472 64.5038L99.3715 64.5498L99.8487 62.6523L100.403 62.0619L101.457 56.538L101.512 56.2505L103.105 52.8465L104.207 42.6152L100.109 43.3512C100.088 43.3723 100.069 43.3953 100.05 43.4183C99.4614 44.0853 99.0417 45.013 98.3555 45.9464C96.1226 48.9844 94.4092 56.3655 94.4763 60.4097C94.4782 60.4749 94.4111 60.5458 94.3306 60.6187C93.9506 60.968 93.7027 61.4376 93.6287 61.9484C93.5546 62.4592 93.659 62.98 93.9242 63.4228Z" fill="#2F2E41"/>
<path d="M124.404 75.0425L122.89 60.3856L122.49 54.3533L126.729 53.5869C126.729 53.5869 126.561 57.9002 127.116 60.3338C127.664 62.7352 127.189 74.7207 127.155 75.0412C127.466 75.3196 127.685 75.6858 127.784 76.0916C127.882 76.4973 127.856 76.9234 127.707 77.3136C127.558 77.7037 127.294 78.0394 126.95 78.2763C126.606 78.5132 126.199 78.6402 125.781 78.6404C125.364 78.6406 124.956 78.514 124.612 78.2774C124.268 78.0408 124.004 77.7054 123.854 77.3154C123.705 76.9254 123.678 76.4993 123.776 76.0935C123.874 75.6876 124.093 75.3212 124.404 75.0425V75.0425Z" fill="#A0616A"/>
<path d="M128.538 63.4228L127.36 63.6662L123.315 64.5038L123.091 64.5498L122.614 62.6523L122.06 62.0619L121.006 56.538L120.95 56.2505L119.357 52.8465L119.722 42.6152L122.353 43.3512C122.374 43.3723 122.394 43.3953 122.413 43.4183C123.001 44.0853 123.421 45.013 124.107 45.9464C126.34 48.9844 128.053 56.3655 127.986 60.4097C127.984 60.4749 128.051 60.5458 128.132 60.6187C128.512 60.968 128.76 61.4376 128.834 61.9484C128.908 62.4592 128.804 62.98 128.538 63.4228V63.4228Z" fill="#2F2E41"/>
<path d="M106.819 44.1294L108.745 39.0793L113.663 38.9893L115.295 44.1294L121.161 76.8985C121.161 76.8985 103.19 81.9031 103.372 75.8873C103.564 69.5623 104.429 61.1605 104.429 61.1605L106.819 44.1294Z" fill="#6C63FF"/>
<path d="M111.094 37.6665C114.294 37.6665 116.888 35.0726 116.888 31.8728C116.888 28.673 114.294 26.0791 111.094 26.0791C107.895 26.0791 105.301 28.673 105.301 31.8728C105.301 35.0726 107.895 37.6665 111.094 37.6665Z" fill="#A0616A"/>
<path d="M104.959 27.6707C105.903 26.6441 107.083 24.7648 110.656 23.9757C115.072 23.0006 117.158 26.9895 116.045 27.0549C119.301 28.0409 117.209 34.7791 116.276 34.214C116.268 34.2084 116.26 34.2024 116.252 34.196C115.75 33.8263 115.329 33.3581 115.014 32.8201C114.699 32.282 114.497 31.6854 114.42 31.0667L114.243 29.4721C114.218 30.7695 112.892 30.9411 111.537 30.4633C111.617 30.1789 111.77 29.9202 111.981 29.7129C112.191 29.5056 112.452 29.3567 112.738 29.281C111.794 30.1372 110.594 30.6591 109.324 30.7665C109.391 30.4417 109.526 30.1348 109.721 29.8666C109.916 29.5984 110.166 29.375 110.454 29.2114L110.401 29.1588C109.872 29.605 109.264 29.9489 108.61 30.173C107.863 30.3871 106.968 30.2713 106.456 29.6867C106.319 29.5254 106.215 29.3381 106.15 29.1359C106.261 30.1634 105.572 31.3362 105.036 31.1348C104.591 31.0483 104.332 28.3542 104.959 27.6707Z" fill="#2F2E41"/>
<path d="M146.219 126.62C146.219 126.658 146.211 126.696 146.197 126.731C146.182 126.767 146.161 126.799 146.134 126.826C146.107 126.853 146.075 126.874 146.039 126.889C146.004 126.903 145.966 126.911 145.928 126.911H77.4373C77.3601 126.911 77.2862 126.88 77.2317 126.825C77.1771 126.771 77.1465 126.697 77.1465 126.62C77.1465 126.543 77.1771 126.469 77.2317 126.414C77.2862 126.36 77.3601 126.329 77.4373 126.329H145.928C145.966 126.329 146.004 126.336 146.039 126.351C146.075 126.366 146.107 126.387 146.134 126.414C146.161 126.441 146.182 126.473 146.197 126.508C146.211 126.544 146.219 126.582 146.219 126.62Z" fill="#CCCCCC"/>
<path d="M75.0862 66.4316C72.7695 66.4316 70.7331 67.4804 69.5801 69.0547C70.8127 68.1577 72.3008 67.6802 73.8252 67.6926C77.4128 67.6926 80.3315 70.2056 80.3315 73.2946V75.8622H81.5924V72.0336C81.5924 68.9447 78.6737 66.4316 75.0862 66.4316Z" fill="#3F3D56"/>
<path d="M82.4601 77.1762H67.3301V72.7246C67.3301 69.133 70.7237 66.2109 74.8951 66.2109C79.0665 66.2109 82.4601 69.133 82.4601 72.7246V77.1762ZM67.8188 76.6875H81.9714V72.7246C81.9714 69.4024 78.7971 66.6997 74.8951 66.6997C70.9932 66.6997 67.8188 69.4024 67.8188 72.7246V76.6875Z" fill="white"/>
<path d="M78.7678 75.4764H71.0181C70.6694 75.476 70.3352 75.3373 70.0887 75.0907C69.8422 74.8442 69.7035 74.5099 69.7031 74.1613V72.3897C69.7031 69.9196 72.0313 67.9102 74.893 67.9102C77.7546 67.9102 80.0828 69.9196 80.0828 72.3897V74.1613C80.0824 74.5099 79.9438 74.8442 79.6972 75.0907C79.4507 75.3373 79.1165 75.476 78.7678 75.4764V75.4764ZM74.893 68.3989C72.3007 68.3989 70.1918 70.1891 70.1918 72.3897V74.1613C70.1921 74.3803 70.2792 74.5904 70.4341 74.7453C70.589 74.9002 70.799 74.9874 71.0181 74.9876H78.7678C78.9869 74.9874 79.1969 74.9002 79.3518 74.7453C79.5067 74.5904 79.5939 74.3803 79.5941 74.1613V72.3897C79.5941 70.1891 77.4852 68.3989 74.893 68.3989Z" fill="white"/>
</g>
<defs>
<clipPath id="clip0_6759_42188">
<rect width="146.219" height="126.91" fill="white"/>
</clipPath>
</defs>
</svg>
