<svg width="101" height="100" viewBox="0 0 101 100" fill="none" xmlns="http://www.w3.org/2000/svg">
<circle cx="50.5" cy="50" r="50" fill="#E2E8F0"/>
<mask id="mask0_5500_38977" style="mask-type:alpha" maskUnits="userSpaceOnUse" x="10" y="8" width="81" height="80">
<rect x="10.5" y="8" width="80" height="80" fill="#D9D9D9"/>
</mask>
<g mask="url(#mask0_5500_38977)">
<path d="M50.5007 47.9997C46.834 47.9997 43.6951 46.6941 41.084 44.083C38.4729 41.4719 37.1673 38.333 37.1673 34.6663C37.1673 30.9997 38.4729 27.8608 41.084 25.2497C43.6951 22.6386 46.834 21.333 50.5007 21.333C54.1673 21.333 57.3062 22.6386 59.9173 25.2497C62.5284 27.8608 63.834 30.9997 63.834 34.6663C63.834 38.333 62.5284 41.4719 59.9173 44.083C57.3062 46.6941 54.1673 47.9997 50.5007 47.9997ZM23.834 74.6663V65.333C23.834 63.4441 24.3207 61.7075 25.294 60.123C26.2651 58.5408 27.5562 57.333 29.1673 56.4997C32.6118 54.7775 36.1118 53.4852 39.6673 52.623C43.2229 51.763 46.834 51.333 50.5007 51.333C54.1673 51.333 57.7784 51.763 61.334 52.623C64.8895 53.4852 68.3895 54.7775 71.834 56.4997C73.4451 57.333 74.7362 58.5408 75.7073 60.123C76.6806 61.7075 77.1673 63.4441 77.1673 65.333V74.6663H23.834ZM30.5007 67.9997H70.5006V65.333C70.5006 64.7219 70.3484 64.1663 70.044 63.6663C69.7373 63.1663 69.334 62.7775 68.834 62.4997C65.834 60.9997 62.8062 59.8741 59.7506 59.123C56.6951 58.3741 53.6118 57.9997 50.5007 57.9997C47.3895 57.9997 44.3062 58.3741 41.2507 59.123C38.1951 59.8741 35.1673 60.9997 32.1673 62.4997C31.6673 62.7775 31.2651 63.1663 30.9607 63.6663C30.654 64.1663 30.5007 64.7219 30.5007 65.333V67.9997ZM50.5007 41.333C52.334 41.333 53.904 40.6797 55.2107 39.373C56.5151 38.0686 57.1673 36.4997 57.1673 34.6663C57.1673 32.833 56.5151 31.2641 55.2107 29.9597C53.904 28.653 52.334 27.9997 50.5007 27.9997C48.6673 27.9997 47.0984 28.653 45.794 29.9597C44.4873 31.2641 43.834 32.833 43.834 34.6663C43.834 36.4997 44.4873 38.0686 45.794 39.373C47.0984 40.6797 48.6673 41.333 50.5007 41.333Z" fill="#CBD5E0"/>
</g>
</svg>
