<svg width="12" height="6" viewBox="0 0 12 6" fill="none" xmlns="http://www.w3.org/2000/svg">
<path d="M0.75 5.24103L0.75 5.24067L6.74838 1.39003L11.0693 4.86819L11.0693 4.86816L11.0728 4.87105C11.1792 4.95995 11.2517 5.0918 11.25 5.24266C11.2482 5.39336 11.1729 5.52339 11.0652 5.61009C10.9589 5.69569 10.8244 5.73802 10.6923 5.739C10.5601 5.73998 10.4251 5.69965 10.3174 5.61611L10.3174 5.61615L10.3139 5.61334L6.0021 2.14248L1.69029 5.61334L1.69017 5.61343C1.60945 5.67833 1.51237 5.71834 1.413 5.73423C1.3135 5.75014 1.20999 5.74222 1.11396 5.71022C1.01809 5.67826 0.928095 5.62159 0.860489 5.54023C0.792123 5.45796 0.75012 5.3539 0.75 5.24103ZM6.40027 1.20176C6.52749 1.24425 6.64603 1.30748 6.74813 1.38983L5.25593 1.38983C5.35803 1.30748 5.47658 1.24425 5.60379 1.20176C5.73115 1.15922 5.86635 1.13771 6.00203 1.13771C6.13771 1.13771 6.27292 1.15922 6.40027 1.20176ZM0.935151 4.86801L5.25569 1.39003L0.935151 4.86801Z" fill="#4A5568" stroke="#4A5568" stroke-width="0.5"/>
</svg>
