<svg width="12" height="7" viewBox="0 0 12 7" fill="none" xmlns="http://www.w3.org/2000/svg">
<path d="M1.70845 0.911046L1.70856 0.911153L6.0021 5.12137L10.2956 0.911153L10.2989 0.907931L10.299 0.907962C10.4054 0.807378 10.5468 0.752567 10.6927 0.753884C10.8385 0.755201 10.9789 0.812561 11.0835 0.915106C11.1882 1.01781 11.2486 1.15774 11.25 1.3051C11.2514 1.45247 11.1936 1.59352 11.0908 1.69815L11.0876 1.70144L11.0875 1.70141L6.76664 5.93846C6.7666 5.93849 6.76657 5.93852 6.76654 5.93855L6.7664 5.93868L6.59137 5.76018C6.51405 5.8362 6.42219 5.89651 6.32107 5.93767C6.21994 5.97882 6.11152 6 6.00203 6C5.89254 6 5.78413 5.97882 5.683 5.93767C5.58187 5.89651 5.49002 5.8362 5.4127 5.76018L1.70845 0.911046ZM1.70845 0.911046C1.62947 0.833689 1.52947 0.781555 1.42133 0.760488C1.31321 0.739427 1.2011 0.750214 1.09896 0.791685C0.996785 0.833173 0.908649 0.903745 0.846242 0.995235M1.70845 0.911046L0.846242 0.995235M0.75 1.30636L0.75 1.30606C0.750096 1.19496 0.783792 1.08678 0.846242 0.995235M0.75 1.30636L0.846244 0.995232C0.846244 0.995233 0.846242 0.995234 0.846242 0.995235M0.75 1.30636C0.750023 1.38016 0.764894 1.45311 0.793627 1.521C0.822319 1.58878 0.864208 1.65004 0.916656 1.7014L0.75 1.30636ZM0.916863 1.70161L5.23743 5.93846L0.916863 1.70161Z" fill="#4A5568" stroke="#4A5568" stroke-width="0.5"/>
</svg>
