<svg width="16" height="17" viewBox="0 0 16 17" fill="none" xmlns="http://www.w3.org/2000/svg">
<mask id="mask0_6216_32898" style="mask-type:alpha" maskUnits="userSpaceOnUse" x="0" y="0" width="16" height="17">
<rect y="0.604004" width="16" height="16" fill="#D9D9D9"/>
</mask>
<g mask="url(#mask0_6216_32898)">
<path d="M8.00002 8.60392C8.36669 8.60392 8.68069 8.47326 8.94202 8.21192C9.20291 7.95103 9.33335 7.63726 9.33335 7.27059C9.33335 6.90392 9.20291 6.58992 8.94202 6.32859C8.68069 6.0677 8.36669 5.93726 8.00002 5.93726C7.63335 5.93726 7.31958 6.0677 7.05869 6.32859C6.79735 6.58992 6.66669 6.90392 6.66669 7.27059C6.66669 7.63726 6.79735 7.95103 7.05869 8.21192C7.31958 8.47326 7.63335 8.60392 8.00002 8.60392ZM8.00002 13.5039C9.35558 12.2595 10.3611 11.1288 11.0167 10.1119C11.6722 9.09548 12 8.19281 12 7.40392C12 6.19281 11.6138 5.20103 10.8414 4.42859C10.0694 3.65659 9.12224 3.27059 8.00002 3.27059C6.8778 3.27059 5.93046 3.65659 5.15802 4.42859C4.38602 5.20103 4.00002 6.19281 4.00002 7.40392C4.00002 8.19281 4.3278 9.09548 4.98335 10.1119C5.63891 11.1288 6.64446 12.2595 8.00002 13.5039ZM8.00002 15.2706C6.21113 13.7484 4.87513 12.3344 3.99202 11.0286C3.10846 9.72326 2.66669 8.51503 2.66669 7.40392C2.66669 5.73726 3.20291 4.40948 4.27535 3.42059C5.34735 2.4317 6.58891 1.93726 8.00002 1.93726C9.41113 1.93726 10.6527 2.4317 11.7247 3.42059C12.7971 4.40948 13.3334 5.73726 13.3334 7.40392C13.3334 8.51503 12.8918 9.72326 12.0087 11.0286C11.1251 12.3344 9.78891 13.7484 8.00002 15.2706Z" fill="#718096"/>
</g>
</svg>
