<svg width="541" height="76" viewBox="0 0 541 76" fill="none" xmlns="http://www.w3.org/2000/svg">
<rect x="0.75708" y="0.553223" width="46.6667" height="32" rx="6" fill="#1F72CD"/>
<path fill-rule="evenodd" clip-rule="evenodd" d="M9.12331 11.8866L4.75708 21.5489H9.98407L10.6321 20.0083H12.1132L12.7612 21.5489H18.5147V20.3731L19.0273 21.5489H22.0035L22.5161 20.3483V21.5489H34.4818L35.9367 20.0484L37.2991 21.5489L43.4449 21.5613L39.0648 16.7447L43.4449 11.8866H37.3944L35.9781 13.3594L34.6586 11.8866H21.6416L20.5238 14.3805L19.3798 11.8866H14.1638V13.0224L13.5835 11.8866H9.12331ZM26.9915 13.2587H33.8627L35.9643 15.5288L38.1336 13.2587H40.2352L37.0421 16.7434L40.2352 20.1879H38.0383L35.9367 17.8915L33.7563 20.1879H26.9915V13.2587ZM28.6883 15.9599V14.6942V14.693H32.9757L34.8465 16.7171L32.8928 18.7524H28.6883V17.3706H32.4369V15.9599H28.6883ZM10.1347 13.2587H12.6826L15.5787 19.8107V13.2587H18.3698L20.6067 17.9565L22.6683 13.2587H25.4455V20.192H23.7556L23.7418 14.7591L21.2782 20.192H19.7666L17.2892 14.7591V20.192H13.8128L13.1537 18.6377H9.59309L8.9354 20.1907H7.0728L10.1347 13.2587ZM10.2011 17.2007L11.3742 14.4317L12.5459 17.2007H10.2011Z" fill="white"/>
<rect x="62.4237" y="0.553223" width="46.6667" height="32" rx="6" fill="white"/>
<path fill-rule="evenodd" clip-rule="evenodd" d="M75.6237 20.8745H73.5496C73.4076 20.8745 73.2869 20.9777 73.2648 21.1177L72.4259 26.4365C72.4092 26.5415 72.4905 26.6361 72.5969 26.6361H73.5872C73.7291 26.6361 73.8498 26.5329 73.8719 26.3926L74.0982 24.958C74.12 24.8175 74.241 24.7145 74.3827 24.7145H75.0393C76.4056 24.7145 77.1941 24.0533 77.4001 22.7431C77.4929 22.17 77.4041 21.7196 77.1356 21.4041C76.8408 21.0578 76.3179 20.8745 75.6237 20.8745ZM75.863 22.8171C75.7496 23.5614 75.1809 23.5614 74.6311 23.5614H74.3181L74.5377 22.1714C74.5507 22.0874 74.6235 22.0255 74.7084 22.0255H74.8519C75.2264 22.0255 75.5798 22.0255 75.7624 22.239C75.8712 22.3664 75.9046 22.5556 75.863 22.8171ZM81.8239 22.7933H80.8306C80.746 22.7933 80.6729 22.8551 80.6598 22.9392L80.6159 23.217L80.5464 23.1163C80.3314 22.8042 79.8519 22.6999 79.3733 22.6999C78.2757 22.6999 77.3382 23.5312 77.1556 24.6974C77.0608 25.279 77.1956 25.8352 77.5256 26.2232C77.8284 26.5798 78.2615 26.7284 78.7767 26.7284C79.6611 26.7284 80.1516 26.1597 80.1516 26.1597L80.1072 26.4358C80.0905 26.5413 80.1718 26.6359 80.2776 26.6359H81.1724C81.3147 26.6359 81.4347 26.5328 81.4571 26.3924L81.994 22.9928C82.011 22.8883 81.93 22.7933 81.8239 22.7933ZM80.4393 24.7264C80.3434 25.2939 79.8931 25.6748 79.3187 25.6748C79.0303 25.6748 78.7997 25.5823 78.6518 25.407C78.505 25.233 78.4491 24.9851 78.4959 24.7092C78.5854 24.1465 79.0434 23.7533 79.609 23.7533C79.891 23.7533 80.1203 23.8469 80.2713 24.0237C80.4226 24.2024 80.4827 24.4516 80.4393 24.7264ZM86.1157 22.7931H87.1138C87.2536 22.7931 87.3352 22.9499 87.2557 23.0646L83.936 27.8564C83.8823 27.934 83.7937 27.9802 83.6991 27.9802H82.7022C82.5618 27.9802 82.4799 27.8222 82.5611 27.7072L83.5948 26.2481L82.4955 23.0217C82.4574 22.9096 82.5402 22.7931 82.6595 22.7931H83.6403C83.7677 22.7931 83.8802 22.8768 83.9169 22.9987L84.5004 24.9474L85.8771 22.9196C85.931 22.8404 86.0205 22.7931 86.1157 22.7931Z" fill="#253B80"/>
<path fill-rule="evenodd" clip-rule="evenodd" d="M96.9376 26.4364L97.7889 21.0204C97.8019 20.9363 97.8748 20.8744 97.9594 20.8741H98.9177C99.0235 20.8741 99.1048 20.969 99.0881 21.074L98.2487 26.3925C98.2268 26.5328 98.1061 26.636 97.9639 26.636H97.108C97.0022 26.636 96.9209 26.5414 96.9376 26.4364ZM90.4185 20.8744H88.3439C88.2023 20.8744 88.0816 20.9776 88.0594 21.1177L87.2206 26.4364C87.2039 26.5414 87.2851 26.636 87.3911 26.636H88.4555C88.5545 26.636 88.6391 26.5638 88.6545 26.4656L88.8926 24.9579C88.9145 24.8175 89.0354 24.7144 89.1771 24.7144H89.8333C91.1999 24.7144 91.9883 24.0532 92.1945 22.7431C92.2875 22.1699 92.1981 21.7195 91.9298 21.404C91.6352 21.0577 91.1126 20.8744 90.4185 20.8744ZM90.6578 22.817C90.5446 23.5613 89.9759 23.5613 89.4258 23.5613H89.1131L89.333 22.1713C89.346 22.0873 89.4182 22.0254 89.5034 22.0254H89.6468C90.0211 22.0254 90.3748 22.0254 90.5573 22.2389C90.6662 22.3664 90.6993 22.5556 90.6578 22.817ZM96.6181 22.7932H95.6255C95.5402 22.7932 95.4677 22.8551 95.455 22.9391L95.411 23.2169L95.3413 23.1163C95.1263 22.8041 94.6471 22.6998 94.1685 22.6998C93.0708 22.6998 92.1337 23.5311 91.9511 24.6973C91.8565 25.2789 91.9908 25.8351 92.3208 26.2231C92.6241 26.5797 93.0567 26.7283 93.5719 26.7283C94.4562 26.7283 94.9466 26.1596 94.9466 26.1596L94.9024 26.4357C94.8857 26.5412 94.967 26.6358 95.0735 26.6358H95.9678C96.1094 26.6358 96.2301 26.5327 96.2523 26.3923L96.7894 22.9927C96.8059 22.8882 96.7246 22.7932 96.6181 22.7932ZM95.2336 24.7264C95.1383 25.2938 94.6874 25.6747 94.1129 25.6747C93.8251 25.6747 93.5941 25.5822 93.446 25.4069C93.2992 25.2329 93.244 24.985 93.2902 24.7091C93.3802 24.1464 93.8376 23.7532 94.4032 23.7532C94.6853 23.7532 94.9145 23.8468 95.0656 24.0236C95.2175 24.2023 95.2776 24.4516 95.2336 24.7264Z" fill="#179BD7"/>
<path d="M83.2997 18.9718L83.5547 17.3521L82.9867 17.3389H80.2744L82.1593 5.38714C82.1651 5.35105 82.1842 5.31741 82.212 5.29352C82.2398 5.26963 82.2754 5.25647 82.3125 5.25647H86.8858C88.4041 5.25647 89.4518 5.57241 89.9989 6.19601C90.2553 6.48856 90.4187 6.79426 90.4977 7.13068C90.5805 7.48369 90.5821 7.90543 90.5011 8.41982L90.4952 8.45736V8.78695L90.7518 8.93225C90.9678 9.04682 91.1393 9.17798 91.2709 9.32816C91.4904 9.57828 91.6323 9.89617 91.6923 10.2731C91.7542 10.6607 91.7337 11.1219 91.6323 11.6441C91.5153 12.2448 91.3261 12.768 91.0707 13.196C90.8356 13.5905 90.5362 13.9176 90.1808 14.1712C89.8415 14.412 89.4382 14.5949 88.9824 14.712C88.5405 14.8269 88.037 14.885 87.4845 14.885H87.1286C86.8741 14.885 86.6268 14.9767 86.4329 15.141C86.2384 15.3087 86.1095 15.5378 86.0701 15.7885L86.0433 15.9343L85.5927 18.7889L85.5723 18.8937C85.5669 18.927 85.5577 18.9435 85.544 18.9548C85.5318 18.9649 85.5143 18.9718 85.4972 18.9718H83.2997Z" fill="#253B80"/>
<path d="M90.9947 8.49548C90.9811 8.58275 90.9655 8.67198 90.9479 8.76364C90.3447 11.8602 88.2814 12.9299 85.646 12.9299H84.3043C83.982 12.9299 83.7104 13.1639 83.6602 13.4818L82.9732 17.8388L82.7786 19.0738C82.7459 19.2825 82.9069 19.4707 83.1175 19.4707H85.4974C85.7792 19.4707 86.0185 19.2659 86.0629 18.988L86.0863 18.867L86.5344 16.0235L86.5632 15.8676C86.607 15.5887 86.8469 15.3839 87.1287 15.3839H87.4846C89.7903 15.3839 91.5954 14.4478 92.123 11.7388C92.3433 10.6071 92.2292 9.66224 91.646 8.99767C91.4696 8.79728 91.2507 8.63102 90.9947 8.49548Z" fill="#179BD7"/>
<path d="M90.3635 8.24419C90.2714 8.21737 90.1763 8.19299 90.0787 8.17105C89.9808 8.1496 89.8803 8.13059 89.777 8.11401C89.4152 8.0555 89.0188 8.02771 88.5941 8.02771H85.0095C84.9212 8.02771 84.8375 8.0477 84.7624 8.08378C84.597 8.16325 84.4742 8.31977 84.4445 8.51137L83.6818 13.3412L83.6599 13.4821C83.7102 13.1642 83.9817 12.9302 84.304 12.9302H85.6457C88.2811 12.9302 90.3446 11.86 90.9476 8.76394C90.9656 8.67227 90.9808 8.58305 90.9944 8.49578C90.8418 8.41484 90.6765 8.34561 90.4985 8.2866C90.4547 8.27198 90.4094 8.25784 90.3635 8.24419Z" fill="#222D65"/>
<path d="M84.4445 8.51124C84.4743 8.31962 84.5972 8.16311 84.7624 8.08412C84.838 8.04804 84.9214 8.02805 85.0096 8.02805H88.5943C89.019 8.02805 89.4153 8.05584 89.777 8.11435C89.8804 8.13093 89.9809 8.14995 90.0789 8.17139C90.1764 8.19334 90.2715 8.21772 90.3637 8.24453C90.4094 8.25818 90.4548 8.27232 90.4991 8.28647C90.6771 8.34546 90.8424 8.41518 90.995 8.49563C91.1745 7.35131 90.9936 6.57217 90.3749 5.86666C89.6928 5.08997 88.4616 4.75745 86.8863 4.75745H82.3129C81.991 4.75745 81.7166 4.99147 81.6668 5.30985L79.762 17.3845C79.7244 17.6234 79.9086 17.839 80.1495 17.839H82.9731L83.682 13.3411L84.4445 8.51124Z" fill="#253B80"/>
<rect x="124.09" y="0.553223" width="46.6667" height="32" rx="6" fill="white"/>
<path fill-rule="evenodd" clip-rule="evenodd" d="M146.131 21.5639V17.536H148.209C149.061 17.536 149.78 17.2505 150.367 16.6876L150.507 16.5449C151.578 15.3793 151.508 13.5636 150.367 12.4852C149.796 11.9143 149.014 11.6051 148.209 11.6209H144.872V21.5639H146.131ZM146.131 16.3149V12.842H148.241C148.695 12.842 149.125 13.0164 149.445 13.3336C150.125 13.9996 150.141 15.1097 149.484 15.7995C149.164 16.1405 148.71 16.3308 148.241 16.3149H146.131ZM156.377 15.2921C155.837 14.7926 155.103 14.5388 154.173 14.5388C152.977 14.5388 152.078 14.9829 151.484 15.863L152.594 16.5687C153 15.9661 153.555 15.6647 154.259 15.6647C154.704 15.6647 155.134 15.8313 155.47 16.1326C155.798 16.418 155.986 16.8303 155.986 17.2664V17.5598C155.501 17.2902 154.892 17.1475 154.141 17.1475C153.266 17.1475 152.563 17.3536 152.039 17.7739C151.515 18.1941 151.25 18.7491 151.25 19.4548C151.234 20.0971 151.508 20.7076 151.992 21.1199C152.485 21.5639 153.11 21.7859 153.844 21.7859C154.712 21.7859 155.4 21.3974 155.923 20.6204H155.978V21.5639H157.182V17.3695C157.182 16.4894 156.916 15.7916 156.377 15.2921ZM152.962 20.3111C152.704 20.1208 152.547 19.8116 152.547 19.4786C152.547 19.1059 152.719 18.7967 153.055 18.5509C153.399 18.3051 153.829 18.1782 154.337 18.1782C155.041 18.1703 155.588 18.3289 155.979 18.6461C155.979 19.1852 155.768 19.653 155.353 20.0495C154.978 20.4301 154.47 20.6442 153.939 20.6442C153.587 20.6521 153.243 20.5332 152.962 20.3111ZM159.886 24.5532L164.09 14.7608H162.723L160.777 19.6451H160.753L158.76 14.7608H157.393L160.151 21.1278L158.588 24.5532H159.886Z" fill="#3C4043"/>
<path d="M141.787 16.6639C141.787 16.2753 141.755 15.8868 141.693 15.5062H136.386V17.7026H139.426C139.301 18.4082 138.895 19.0426 138.301 19.439V20.8662H140.114C141.177 19.8751 141.787 18.4082 141.787 16.6639Z" fill="#4285F4"/>
<path d="M136.386 22.2459C137.903 22.2459 139.184 21.7385 140.114 20.8663L138.301 19.439C137.793 19.7879 137.144 19.9861 136.386 19.9861C134.917 19.9861 133.674 18.9792 133.229 17.6312H131.361V19.106C132.315 21.0328 134.261 22.2459 136.386 22.2459Z" fill="#34A853"/>
<path d="M133.229 17.6312C132.995 16.9255 132.995 16.1564 133.229 15.4428V13.976H131.361C130.556 15.5855 130.556 17.4885 131.361 19.0981L133.229 17.6312Z" fill="#FBBC04"/>
<path d="M136.386 13.0879C137.191 13.072 137.965 13.3812 138.543 13.9442L140.153 12.3108C139.13 11.3435 137.785 10.8122 136.386 10.8281C134.261 10.8281 132.315 12.0492 131.361 13.9759L133.229 15.4507C133.674 14.0949 134.917 13.0879 136.386 13.0879Z" fill="#EA4335"/>
<rect x="185.757" y="0.553223" width="46.6667" height="32" rx="6" fill="white"/>
<path fill-rule="evenodd" clip-rule="evenodd" d="M199.924 22.2309H197.097L194.977 14.1431C194.876 13.7711 194.663 13.4421 194.348 13.2871C193.564 12.8976 192.7 12.5875 191.757 12.4312V12.1198H196.311C196.94 12.1198 197.411 12.5875 197.49 13.1308L198.59 18.9648L201.416 12.1198H204.164L199.924 22.2309ZM205.735 22.2309H203.065L205.264 12.1198H207.934L205.735 22.2309ZM211.388 14.9209C211.467 14.3763 211.938 14.0649 212.488 14.0649C213.352 13.9867 214.294 14.1431 215.08 14.5313L215.551 12.3543C214.765 12.043 213.901 11.8866 213.117 11.8866C210.525 11.8866 208.64 13.2871 208.64 15.2309C208.64 16.7096 209.975 17.4861 210.918 17.9538C211.938 18.4202 212.331 18.7316 212.252 19.198C212.252 19.8976 211.467 20.209 210.682 20.209C209.74 20.209 208.797 19.9758 207.934 19.5862L207.463 21.7645C208.405 22.1528 209.425 22.3091 210.368 22.3091C213.274 22.386 215.08 20.9868 215.08 18.8866C215.08 16.2419 211.388 16.0869 211.388 14.9209ZM224.424 22.2309L222.304 12.1198H220.027C219.555 12.1198 219.084 12.4312 218.927 12.8976L215.001 22.2309H217.75L218.298 20.7535H221.675L221.989 22.2309H224.424ZM220.419 14.8427L221.204 18.6534H219.005L220.419 14.8427Z" fill="#172B85"/>
<rect x="247.424" y="0.553223" width="46.6667" height="32" rx="6" fill="white"/>
<path fill-rule="evenodd" clip-rule="evenodd" d="M278.034 10.9934C277.279 10.9934 276.666 11.603 276.666 12.3545C276.666 13.1065 277.279 13.7147 278.034 13.7147C278.79 13.7147 279.402 13.1065 279.402 12.3545C279.402 11.603 278.79 10.9934 278.034 10.9934ZM258.309 15.5537C257.959 15.5312 257.146 15.4786 257.146 14.7514C257.146 13.8739 258.315 13.8739 258.754 13.8739C259.525 13.8739 260.523 14.1002 261.237 14.3129C261.237 14.3129 261.634 14.4526 261.972 14.5949L262.004 14.6037V12.2002L261.961 12.1874C261.119 11.8943 260.141 11.6127 258.327 11.6127C255.199 11.6127 254.09 13.4248 254.09 14.9786C254.09 15.8733 254.476 17.9811 258.057 18.2238L258.061 18.224C258.367 18.2427 259.168 18.2915 259.168 19.0403C259.168 19.6609 258.508 20.0261 257.398 20.0261C256.182 20.0261 255.002 19.7184 254.286 19.4253V21.9C255.359 22.1807 256.568 22.3195 257.986 22.3195C261.043 22.3195 262.413 20.6047 262.413 18.9046C262.413 16.9776 260.881 15.7253 258.309 15.5537ZM267.541 14.4855L267.555 14.449H270.83C270.736 14.7456 270.152 16.5356 268.82 18.2163C268.82 18.2163 270.303 20.8028 270.643 22.2059H267.213C267.213 22.2059 266.804 20.343 265.974 19.1053V22.2059H263.111V12.1764L265.974 11.6127V17.1465C266.989 15.9256 267.441 14.7449 267.541 14.4855ZM284.649 22.2059V12.1065L287.424 11.6127V22.2059H284.649ZM275.082 14.3442C272.519 14.4265 271.216 15.5714 271.216 17.8471V22.2059H274.014V18.6508C274.014 17.2888 274.193 16.7049 275.819 16.6492V14.3845C275.545 14.3266 275.082 14.3442 275.082 14.3442ZM276.647 22.2059V14.4579H279.422V22.2059H276.647ZM280.598 12.1065L283.371 11.6127V22.2059H280.598V12.1065Z" fill="#862165"/>
<rect x="309.09" y="0.553223" width="46.6667" height="32" rx="6" fill="white"/>
<path d="M338.848 16.9362C339.533 16.9511 340.222 16.906 340.904 16.9597C341.595 17.0885 341.761 18.1344 341.148 18.4769C340.729 18.7025 340.231 18.5609 339.777 18.6007H338.848V16.9362ZM341.3 15.0522C341.452 15.5893 340.934 16.0715 340.417 15.9976H338.848C338.859 15.4911 338.827 14.9413 338.864 14.4615C339.493 14.4792 340.127 14.4254 340.752 14.4896C341.02 14.5571 341.245 14.7778 341.3 15.0522ZM345.076 7.08707C345.105 8.11281 345.08 9.19276 345.088 10.2393C345.087 14.4942 345.093 18.7489 345.085 23.004C345.058 24.5986 343.644 25.9842 342.061 26.016C340.476 26.0225 338.89 26.017 337.305 26.0188V19.5863C339.032 19.5774 340.761 19.6044 342.487 19.5728C343.288 19.5226 344.165 18.9941 344.203 18.1126C344.297 17.2274 343.462 16.6151 342.67 16.5184C342.365 16.5105 342.374 16.4296 342.67 16.3943C343.426 16.231 344.019 15.4487 343.797 14.6654C343.607 13.8414 342.697 13.5225 341.939 13.5241C340.395 13.5136 338.85 13.5226 337.305 13.5196C337.315 12.3187 337.285 11.1166 337.322 9.91659C337.444 8.35077 338.893 7.05947 340.454 7.08748C341.995 7.08725 343.536 7.08725 345.076 7.08719V7.08707Z" fill="url(#paint0_linear_6297_33123)"/>
<path d="M319.851 10.0789C319.891 8.48685 321.31 7.11262 322.891 7.08935C324.471 7.08449 326.05 7.08865 327.629 7.08724C327.625 12.414 327.638 17.7414 327.623 23.0679C327.562 24.6406 326.158 25.9887 324.594 26.0165C323.012 26.0222 321.429 26.0173 319.847 26.0189V19.3696C321.384 19.7327 322.996 19.8872 324.564 19.6464C325.501 19.4956 326.526 19.0353 326.844 18.063C327.077 17.2312 326.946 16.3559 326.98 15.5022V13.5198H324.267C324.255 14.8309 324.292 16.1444 324.247 17.454C324.174 18.2589 323.377 18.7703 322.618 18.743C321.676 18.753 319.811 18.0607 319.811 18.0607C319.806 15.6041 319.838 12.5276 319.851 10.0792V10.0789Z" fill="url(#paint1_linear_6297_33123)"/>
<path d="M328.641 14.3193C328.499 14.3496 328.613 13.8328 328.576 13.6368C328.586 12.3972 328.556 11.1562 328.593 9.91748C328.715 8.34503 330.175 7.05051 331.742 7.08731H336.359C336.354 12.4141 336.367 17.7415 336.352 23.0679C336.291 24.6407 334.888 25.9887 333.323 26.0166C331.741 26.0225 330.158 26.0175 328.576 26.019V18.7338C329.657 19.6205 331.126 19.7585 332.472 19.7609C333.487 19.7606 334.496 19.6041 335.482 19.37V18.0353C334.371 18.589 333.065 18.9406 331.834 18.6225C330.975 18.4087 330.351 17.5786 330.365 16.6921C330.266 15.7702 330.806 14.7969 331.712 14.5229C332.837 14.1708 334.062 14.4401 335.117 14.8979C335.343 15.0161 335.572 15.1629 335.482 14.7853V13.7362C333.718 13.3167 331.842 13.1623 330.07 13.6187C329.557 13.7634 329.058 13.9827 328.641 14.3195V14.3193Z" fill="url(#paint2_linear_6297_33123)"/>
<rect x="370.757" y="0.553223" width="46.6667" height="32" rx="4" fill="white"/>
<path fill-rule="evenodd" clip-rule="evenodd" d="M398.896 23.0132C399.159 22.3461 399.743 20.8512 399.465 20.489H399.467C399.19 20.126 397.637 20.3165 396.938 20.4022L396.936 20.4024C396.724 20.4285 396.691 20.2395 396.882 20.1028C398.123 19.2123 400.156 19.467 400.392 19.7677C400.628 20.0683 400.328 22.1498 399.166 23.1436C398.987 23.2961 398.816 23.2146 398.896 23.0132ZM390.545 24.0424C393.248 24.0424 396.395 23.1707 398.564 21.537V21.5402C398.922 21.2646 398.615 20.8595 398.249 21.0182C395.882 22.0376 393.342 22.5698 390.773 22.5841C387.21 22.5841 383.763 21.5861 380.974 19.9294C380.73 19.7843 380.548 20.0401 380.752 20.2269C383.437 22.7005 386.93 24.0612 390.545 24.0424Z" fill="#FF9900"/>
<path fill-rule="evenodd" clip-rule="evenodd" d="M408.218 19.1507H409.369H409.37C409.491 19.153 409.591 19.0564 409.595 18.9336V15.6755C409.595 15.2663 409.617 14.8968 409.778 14.5272C409.889 14.2461 410.15 14.0569 410.447 14.0429C411.183 14.0429 411.176 14.8668 411.17 15.514C411.17 15.5686 411.17 15.622 411.17 15.6734V18.9607C411.184 19.0662 411.27 19.1461 411.374 19.1507H412.535C412.645 19.1531 412.74 19.0718 412.757 18.9607V15.1515C412.757 14.5659 412.757 13.7506 412.455 13.2662C412.129 12.7443 411.624 12.5532 411.107 12.5532C410.31 12.5532 409.857 12.9478 409.534 13.7756H409.512V12.8497C409.488 12.7529 409.405 12.6838 409.307 12.6806H408.236C408.123 12.6777 408.026 12.764 408.014 12.8789V18.9336C408.015 19.0496 408.105 19.1446 408.218 19.1507ZM407.135 15.9752C407.135 14.0648 406.208 12.5616 404.493 12.5616C402.823 12.5616 401.896 14.0398 401.896 15.9115C401.896 17.7832 402.812 19.2864 404.493 19.2864C406.113 19.2864 407.135 17.8218 407.135 15.9752ZM403.599 15.7204C403.599 14.9814 403.653 13.7976 404.505 13.7976C404.871 13.7976 405.129 13.9656 405.259 14.3832C405.41 14.8665 405.432 15.4783 405.432 15.9877C405.432 16.7643 405.398 18.0379 404.493 18.0379C403.599 18.0379 403.599 16.4938 403.599 15.7449L403.599 15.7204ZM382 19.1632H383.154H383.155C383.213 19.1646 383.269 19.1423 383.311 19.1014C383.352 19.0604 383.376 19.0041 383.378 18.945V15.7371L383.378 15.6869C383.377 14.9893 383.376 14.0668 384.175 14.0668C384.913 14.0668 384.902 14.8774 384.892 15.5319C384.891 15.6025 384.89 15.6713 384.89 15.7371V18.946C384.892 19.0619 384.982 19.1566 385.095 19.1632H386.252C386.31 19.1643 386.366 19.1419 386.407 19.101C386.449 19.0601 386.473 19.004 386.474 18.945V15.7371L386.474 15.6608C386.473 15.3209 386.472 14.8623 386.582 14.5773C386.694 14.286 386.966 14.091 387.272 14.0814C387.606 14.0814 387.865 14.1963 387.951 14.6034C387.995 14.7993 387.989 15.2536 387.985 15.5548L387.985 15.555C387.984 15.626 387.984 15.6885 387.984 15.7371V18.946C387.985 19.0621 388.075 19.1571 388.188 19.1632H389.342C389.4 19.1646 389.456 19.1423 389.498 19.1014C389.54 19.0604 389.564 19.0041 389.565 18.945V15.1253C389.565 15.0323 389.567 14.9371 389.568 14.841V14.8409V14.8409V14.8409V14.8408C389.578 14.2705 389.588 13.6634 389.274 13.2275C388.893 12.7331 388.281 12.4867 387.672 12.583C387.064 12.6792 386.553 13.1032 386.337 13.6921C386.013 12.9269 385.55 12.5709 384.838 12.5709C384.127 12.5709 383.598 12.9269 383.318 13.6921H383.297V12.9018C383.291 12.7892 383.203 12.6993 383.092 12.6931H382.016C381.897 12.6919 381.799 12.7878 381.795 12.9091V18.9638C381.806 19.0727 381.893 19.1575 382 19.1632ZM379.991 19.2092C379.915 19.2765 379.806 19.2878 379.718 19.2374C379.391 18.9595 379.292 18.8093 379.141 18.5786C379.115 18.5389 379.087 18.4968 379.057 18.4513C378.422 19.1111 377.973 19.3084 377.152 19.3084C376.18 19.3084 375.424 18.6956 375.424 17.4701C375.424 16.5128 375.935 15.8625 376.65 15.543C377.179 15.3062 377.884 15.2327 378.493 15.1692H378.493L378.493 15.1692L378.493 15.1692L378.493 15.1692L378.493 15.1692L378.494 15.1692C378.607 15.1574 378.717 15.1459 378.822 15.1338V14.9814C378.822 14.9523 378.822 14.9227 378.822 14.8927L378.822 14.8926C378.824 14.6328 378.826 14.3434 378.682 14.1254C378.54 13.9083 378.273 13.8195 378.033 13.8195C377.593 13.8195 377.2 14.0502 377.104 14.5273C377.092 14.6386 377.008 14.7277 376.9 14.7444L375.79 14.6202C375.734 14.6121 375.685 14.5812 375.652 14.5346C375.62 14.4881 375.607 14.43 375.618 14.3739C375.875 12.9876 377.101 12.5689 378.2 12.5689C378.762 12.5689 379.496 12.7214 379.938 13.1556C380.456 13.6513 380.453 14.3001 380.45 15.0092C380.449 15.0677 380.449 15.1267 380.449 15.186V17.0222C380.449 17.5168 380.629 17.7628 380.818 18.0219C380.84 18.0527 380.863 18.0836 380.885 18.1152C380.959 18.2196 380.975 18.3501 380.885 18.4284C380.649 18.6298 380.23 19.0015 380 19.2113L379.991 19.2092ZM378.827 16.3342L378.827 16.3914C378.827 16.8256 378.827 17.1938 378.611 17.5869C378.427 17.9189 378.136 18.1235 377.811 18.1235C377.368 18.1235 377.109 17.779 377.109 17.2675C377.109 16.2633 377.991 16.0806 378.827 16.0806V16.3342ZM395.953 18.0174L395.953 18.0177L395.953 18.0179L395.953 18.0181L395.953 18.0183C395.976 18.0489 395.998 18.0796 396.02 18.1109C396.098 18.2195 396.114 18.3468 396.015 18.4188C395.779 18.6203 395.36 18.993 395.13 19.2018C395.054 19.2682 394.945 19.279 394.857 19.2289C394.529 18.9498 394.431 18.8018 394.278 18.5681C394.252 18.5291 394.225 18.4877 394.195 18.4429C393.561 19.1026 393.109 19.2999 392.291 19.2999C391.319 19.2999 390.563 18.6871 390.563 17.4626C390.563 16.5043 391.071 15.854 391.795 15.5345C392.324 15.2969 393.033 15.2237 393.644 15.1606C393.755 15.1492 393.863 15.1381 393.966 15.1264V14.9771C393.966 14.9483 393.966 14.9189 393.966 14.8892L393.966 14.8888C393.968 14.6288 393.97 14.3394 393.825 14.1221C393.688 13.905 393.415 13.8152 393.177 13.8152C392.736 13.8152 392.345 14.0459 392.248 14.523C392.236 14.6341 392.152 14.723 392.044 14.7401L390.925 14.617C390.869 14.6091 390.819 14.5782 390.786 14.5313C390.753 14.4845 390.741 14.426 390.752 14.3695C391.009 12.9822 392.236 12.5646 393.335 12.5646C393.896 12.5646 394.63 12.7171 395.073 13.1513C395.592 13.6444 395.589 14.2882 395.585 14.9937L395.585 14.9943C395.584 15.0563 395.584 15.1188 395.584 15.1817V17.019C395.584 17.5125 395.763 17.7584 395.953 18.0174ZM392.952 18.1172C393.276 18.1172 393.568 17.9126 393.751 17.5817C393.968 17.1864 393.968 16.8165 393.968 16.3768L393.968 16.33V16.0753C393.133 16.0753 392.25 16.257 392.25 17.2622C392.25 17.7727 392.509 18.1172 392.952 18.1172ZM396.998 12.8883V13.7506C396.997 13.8097 397.02 13.8666 397.062 13.9078C397.103 13.949 397.159 13.9711 397.217 13.9688H399.205L396.926 17.3093C396.822 17.4884 396.773 17.6953 396.785 17.9032V18.7853C396.785 18.9127 396.923 19.0578 397.055 18.9858C398.311 18.3203 399.806 18.3176 401.065 18.9785C401.209 19.0547 401.345 18.9075 401.345 18.7801V17.8531C401.341 17.7114 401.263 17.5827 401.141 17.516C400.477 17.1349 399.705 17.0232 398.976 17.041L400.942 14.1744C401.125 13.9176 401.227 13.7548 401.227 13.6306V12.8883C401.228 12.8294 401.205 12.7727 401.164 12.7315C401.122 12.6903 401.066 12.6682 401.009 12.6702H397.213C397.155 12.6668 397.099 12.6887 397.058 12.7303C397.017 12.7719 396.995 12.8293 396.998 12.8883Z" fill="black"/>
<rect x="432.424" y="0.553223" width="46.6667" height="32" rx="6" fill="white"/>
<path fill-rule="evenodd" clip-rule="evenodd" d="M456.09 23.4291C454.502 24.8001 452.441 25.6278 450.189 25.6278C445.164 25.6278 441.09 21.507 441.09 16.4238C441.09 11.3406 445.164 7.21985 450.189 7.21985C452.441 7.21985 454.502 8.04752 456.09 9.41855C457.679 8.04752 459.74 7.21985 461.992 7.21985C467.017 7.21985 471.09 11.3406 471.09 16.4238C471.09 21.507 467.017 25.6278 461.992 25.6278C459.74 25.6278 457.679 24.8001 456.09 23.4291Z" fill="#ED0006"/>
<path fill-rule="evenodd" clip-rule="evenodd" d="M456.09 23.4291C458.047 21.7409 459.287 19.2289 459.287 16.4238C459.287 13.6187 458.047 11.1067 456.09 9.41855C457.679 8.04752 459.74 7.21985 461.992 7.21985C467.017 7.21985 471.09 11.3406 471.09 16.4238C471.09 21.507 467.017 25.6278 461.992 25.6278C459.74 25.6278 457.679 24.8001 456.09 23.4291Z" fill="#F9A000"/>
<path fill-rule="evenodd" clip-rule="evenodd" d="M456.09 9.41858C458.047 11.1068 459.287 13.6187 459.287 16.4238C459.287 19.2289 458.047 21.7409 456.09 23.4291C454.134 21.7409 452.894 19.2289 452.894 16.4238C452.894 13.6187 454.134 11.1068 456.09 9.41858Z" fill="#FF5E00"/>
<rect x="494.09" y="0.553223" width="46.6667" height="32" rx="6" fill="white"/>
<path d="M508.527 7.22083H515.882C516.908 7.22083 517.547 8.0576 517.307 9.08761L513.883 23.7881C513.642 24.8145 512.614 25.652 511.586 25.652H504.233C503.208 25.652 502.568 24.8145 502.807 23.7881L506.233 9.08761C506.472 8.0576 507.499 7.22083 508.527 7.22083Z" fill="#E21836"/>
<path d="M515.269 7.21985H523.727C524.753 7.21985 524.29 8.05662 524.049 9.08663L520.625 23.7871C520.385 24.8135 520.46 25.651 519.431 25.651H510.974C509.946 25.651 509.309 24.8135 509.551 23.7871L512.974 9.08663C513.217 8.05662 514.242 7.21985 515.269 7.21985Z" fill="#00447C"/>
<path d="M523.391 7.21985H530.746C531.774 7.21985 532.412 8.05662 532.171 9.08663L528.747 23.7871C528.506 24.8135 527.477 25.651 526.449 25.651H519.098C518.07 25.651 517.432 24.8135 517.673 23.7871L521.097 9.08663C521.336 8.05662 522.363 7.21985 523.391 7.21985Z" fill="#007B84"/>
<path d="M510.448 11.9309C509.691 11.9386 509.468 11.9309 509.397 11.914C509.369 12.0443 508.859 14.3985 508.857 14.4005C508.748 14.8768 508.668 15.2163 508.396 15.4355C508.242 15.563 508.062 15.6244 507.853 15.6244C507.518 15.6244 507.322 15.4579 507.29 15.1421L507.283 15.0336C507.283 15.0336 507.386 14.3956 507.386 14.3921C507.386 14.3921 507.921 12.2467 508.017 11.9631C508.022 11.947 508.024 11.9386 508.025 11.9309C506.982 11.94 506.797 11.9309 506.785 11.914C506.778 11.9371 506.752 12.0701 506.752 12.0701L506.205 14.4881L506.158 14.6932L506.067 15.364C506.067 15.563 506.106 15.7254 506.184 15.8627C506.433 16.2981 507.144 16.3633 507.546 16.3633C508.064 16.3633 508.55 16.2533 508.878 16.0523C509.448 15.7155 509.598 15.189 509.731 14.7212L509.792 14.4811C509.792 14.4811 510.344 12.253 510.438 11.9631C510.441 11.947 510.443 11.9386 510.448 11.9309ZM512.325 13.7283C512.192 13.7283 511.949 13.7606 511.731 13.8676C511.651 13.9083 511.576 13.9553 511.497 14.0021L511.569 13.7445L511.53 13.7011C511.067 13.7948 510.963 13.8074 510.535 13.8676L510.499 13.8915C510.45 14.3032 510.406 14.6128 510.222 15.4221C510.151 15.7204 510.079 16.0216 510.006 16.3191L510.025 16.357C510.464 16.3338 510.597 16.3338 510.978 16.3401L511.008 16.3066C511.057 16.0587 511.063 16.0006 511.17 15.4985C511.221 15.2605 511.326 14.7374 511.378 14.5511C511.473 14.507 511.567 14.4637 511.656 14.4637C511.87 14.4637 511.844 14.6499 511.836 14.7241C511.826 14.8487 511.749 15.2556 511.669 15.605L511.616 15.8305C511.579 15.997 511.538 16.1589 511.501 16.324L511.517 16.357C511.949 16.3338 512.081 16.3338 512.45 16.3401L512.493 16.3066C512.56 15.9194 512.579 15.8158 512.697 15.252L512.757 14.993C512.873 14.4861 512.931 14.229 512.843 14.0196C512.751 13.785 512.529 13.7283 512.325 13.7283ZM514.422 14.2591C514.192 14.3032 514.046 14.3326 513.9 14.3516C513.756 14.3747 513.615 14.3957 513.394 14.4265L513.376 14.4425L513.36 14.4552C513.337 14.6205 513.321 14.7634 513.29 14.9313C513.264 15.105 513.224 15.3024 513.159 15.586C513.109 15.803 513.083 15.8787 513.054 15.9551C513.026 16.0314 512.995 16.1056 512.938 16.3191L512.952 16.3388L512.963 16.3569C513.17 16.3471 513.306 16.3401 513.445 16.3388C513.585 16.3338 513.729 16.3388 513.952 16.3401L513.972 16.3241L513.993 16.3066C514.025 16.1141 514.03 16.0622 514.05 15.9683C514.069 15.8676 514.103 15.7281 514.185 15.3556C514.225 15.1807 514.268 15.0062 514.309 14.8277C514.351 14.6499 514.395 14.4748 514.437 14.2998L514.431 14.2786L514.422 14.2591ZM514.427 13.5435C514.218 13.4203 513.852 13.4594 513.606 13.6295C513.36 13.7962 513.332 14.0328 513.54 14.1576C513.745 14.2774 514.113 14.2417 514.357 14.0701C514.602 13.8998 514.633 13.6654 514.427 13.5435ZM515.689 16.3955C516.111 16.3955 516.544 16.2792 516.869 15.934C517.12 15.654 517.235 15.2374 517.275 15.0658C517.404 14.4972 517.303 14.2317 517.177 14.07C516.984 13.8236 516.644 13.7445 516.291 13.7445C516.079 13.7445 515.573 13.7655 515.178 14.1296C514.895 14.3922 514.764 14.7485 514.685 15.0902C514.605 15.4383 514.513 16.065 515.089 16.2982C515.267 16.3746 515.524 16.3955 515.689 16.3955ZM515.656 15.1162C515.753 14.6856 515.868 14.3242 516.161 14.3242C516.391 14.3242 516.408 14.5931 516.306 15.0251C516.287 15.121 516.204 15.4776 516.09 15.6294C516.011 15.7414 515.917 15.8094 515.813 15.8094C515.783 15.8094 515.599 15.8094 515.596 15.5371C515.595 15.4026 515.622 15.2653 515.656 15.1162ZM518.33 16.3402L518.363 16.3066C518.41 16.0587 518.418 16.0005 518.521 15.4986C518.573 15.2605 518.68 14.7374 518.731 14.5512C518.826 14.5069 518.918 14.4635 519.011 14.4635C519.223 14.4635 519.197 14.6498 519.189 14.724C519.181 14.8488 519.103 15.2555 519.022 15.6049L518.971 15.8304C518.933 15.9971 518.891 16.1588 518.854 16.324L518.87 16.357C519.303 16.3339 519.43 16.3339 519.801 16.3402L519.846 16.3066C519.911 15.9193 519.929 15.8157 520.051 15.2521L520.109 14.9929C520.225 14.4859 520.284 14.2291 520.198 14.0197C520.102 13.785 519.879 13.7284 519.678 13.7284C519.545 13.7284 519.301 13.7605 519.083 13.8677C519.006 13.9084 518.928 13.9552 518.852 14.0021L518.918 13.7445L518.883 13.701C518.42 13.7949 518.314 13.8074 517.887 13.8677L517.854 13.8915C517.802 14.3033 517.76 14.6127 517.576 15.4222C517.506 15.7205 517.433 16.0216 517.36 16.3192L517.38 16.357C517.819 16.3339 517.95 16.3339 518.33 16.3402ZM521.515 16.3569C521.542 16.2239 521.704 15.4355 521.705 15.4355C521.705 15.4355 521.843 14.8571 521.851 14.8361C521.851 14.8361 521.895 14.7759 521.938 14.752H522.002C522.604 14.752 523.284 14.752 523.817 14.36C524.18 14.0911 524.428 13.6941 524.538 13.2115C524.567 13.0932 524.588 12.9525 524.588 12.8118C524.588 12.627 524.551 12.4441 524.444 12.3012C524.172 11.921 523.631 11.914 523.006 11.9112C523.004 11.9112 522.698 11.914 522.698 11.914C521.898 11.9239 521.578 11.921 521.446 11.9049C521.435 11.9632 521.414 12.0668 521.414 12.0668C521.414 12.0668 521.127 13.3944 521.127 13.3965C521.127 13.3965 520.442 16.2191 520.41 16.3521C521.108 16.3437 521.394 16.3437 521.515 16.3569ZM522.045 13.9986C522.045 13.9986 522.35 12.6737 522.349 12.6788L522.358 12.6108L522.363 12.559L522.484 12.5716C522.484 12.5716 523.113 12.6255 523.127 12.627C523.375 12.7229 523.477 12.9701 523.406 13.2927C523.341 13.5876 523.15 13.8355 522.904 13.9552C522.701 14.0567 522.454 14.0651 522.198 14.0651H522.033L522.045 13.9986ZM523.942 15.1407C523.861 15.4838 523.769 16.1105 524.342 16.3339C524.525 16.4117 524.689 16.4348 524.855 16.4264C525.031 16.4169 525.194 16.3287 525.345 16.2017C525.331 16.2539 525.318 16.3061 525.304 16.3584L525.33 16.3919C525.743 16.3745 525.871 16.3745 526.318 16.378L526.358 16.3471C526.423 15.9635 526.485 15.591 526.654 14.8571C526.737 14.5056 526.819 14.1575 526.904 13.8074L526.891 13.7689C526.43 13.8544 526.306 13.8727 525.862 13.9356L525.829 13.963C525.824 13.9987 525.82 14.0329 525.815 14.0672C525.746 13.9557 525.646 13.8605 525.492 13.8011C525.295 13.7235 524.831 13.8235 524.432 14.1864C524.152 14.4454 524.018 14.8003 523.942 15.1407ZM524.911 15.1617C525.009 14.7388 525.123 14.381 525.417 14.381C525.603 14.381 525.701 14.5526 525.681 14.8451C525.665 14.9181 525.648 14.995 525.628 15.0819C525.598 15.2076 525.566 15.3322 525.535 15.4569C525.504 15.5423 525.467 15.6227 525.427 15.6763C525.351 15.7835 525.171 15.85 525.068 15.85C525.038 15.85 524.857 15.85 524.85 15.5826C524.849 15.4494 524.876 15.3123 524.911 15.1617ZM529.971 13.7654L529.936 13.7248C529.479 13.8173 529.396 13.832 528.977 13.8886L528.946 13.9194C528.945 13.9244 528.943 13.9322 528.941 13.9391L528.94 13.9322C528.628 14.6526 528.637 14.4972 528.382 15.0643C528.381 15.0385 528.381 15.0224 528.38 14.995L528.316 13.7654L528.276 13.7248C527.798 13.8173 527.786 13.832 527.345 13.8886L527.31 13.9194C527.306 13.9341 527.306 13.9503 527.303 13.9678L527.306 13.9741C527.361 14.2563 527.347 14.1933 527.403 14.6386C527.429 14.8571 527.463 15.0769 527.489 15.2927C527.532 15.6539 527.557 15.8317 527.61 16.383C527.312 16.8752 527.241 17.0614 526.954 17.4935L526.956 17.4978L526.754 17.8175C526.731 17.8512 526.71 17.8744 526.68 17.8842C526.648 17.9002 526.606 17.9031 526.548 17.9031H526.436L526.269 18.457L526.841 18.4668C527.176 18.4654 527.387 18.3085 527.5 18.0977L527.859 17.4822H527.854L527.891 17.4388C528.133 16.9186 529.971 13.7654 529.971 13.7654ZM523.942 21.0401H523.699L524.596 18.0733H524.894L524.988 17.7676L524.997 18.1075C524.986 18.3176 525.152 18.5038 525.586 18.473H526.088L526.261 17.9017H526.072C525.963 17.9017 525.913 17.8743 525.919 17.8155L525.91 17.4697H524.98V17.4715C524.679 17.4778 523.782 17.5004 523.6 17.5488C523.38 17.6054 523.148 17.7721 523.148 17.7721L523.239 17.4661H522.37L522.188 18.0733L521.279 21.0855H521.103L520.93 21.6527H522.662L522.604 21.8418H523.458L523.514 21.6527H523.754L523.942 21.0401ZM523.231 18.6761C523.092 18.7146 522.832 18.8315 522.832 18.8315L523.063 18.0733H523.754L523.587 18.6257C523.587 18.6257 523.374 18.6383 523.231 18.6761ZM523.244 19.7593C523.244 19.7593 523.027 19.7866 522.884 19.8189C522.743 19.8615 522.48 19.996 522.48 19.996L522.718 19.2069H523.412L523.244 19.7593ZM522.857 21.0471H522.164L522.365 20.3812H523.056L522.857 21.0471ZM524.526 19.2069H525.525L525.382 19.6719H524.369L524.217 20.1802H525.103L524.433 21.1247C524.386 21.1941 524.343 21.2187 524.297 21.2382C524.25 21.2621 524.188 21.29 524.117 21.29H523.871L523.702 21.8468H524.345C524.679 21.8468 524.876 21.6948 525.022 21.4953L525.482 20.8657L525.581 21.5049C525.602 21.6247 525.688 21.6948 525.746 21.722C525.811 21.7543 525.877 21.8097 525.971 21.8179C526.072 21.8222 526.144 21.8256 526.193 21.8256H526.509L526.698 21.2025H526.574C526.502 21.2025 526.379 21.1905 526.358 21.1681C526.337 21.1409 526.337 21.0989 526.326 21.0351L526.226 20.3945H525.815L525.995 20.1802H527.006L527.161 19.6719H526.226L526.371 19.2069H527.304L527.477 18.6334H524.696L524.526 19.2069ZM516.087 21.1766L516.32 20.4008H517.279L517.454 19.8238H516.495L516.641 19.3462H517.579L517.752 18.7875H515.407L515.236 19.3462H515.769L515.627 19.8238H515.093L514.916 20.4106H515.449L515.138 21.4371C515.096 21.5729 515.157 21.6247 515.196 21.6878C515.236 21.7493 515.277 21.79 515.368 21.8131C515.462 21.8341 515.526 21.8467 515.614 21.8467H516.694L516.887 21.2074L516.408 21.2732C516.315 21.2732 516.059 21.2621 516.087 21.1766ZM516.197 17.4626L515.954 17.9016C515.902 17.9975 515.855 18.057 515.813 18.0845C515.776 18.1076 515.703 18.1173 515.596 18.1173H515.47L515.3 18.6789H515.721C515.923 18.6789 516.079 18.6047 516.153 18.5676C516.233 18.5249 516.254 18.5493 516.315 18.4898L516.458 18.3666H517.772L517.946 17.7819H516.984L517.152 17.4626H516.197ZM518.138 21.1879C518.115 21.1556 518.131 21.0988 518.165 20.9805L518.525 19.7915H519.803C519.989 19.7888 520.123 19.7866 520.211 19.7804C520.305 19.7705 520.407 19.737 520.518 19.6767C520.633 19.6136 520.692 19.5471 520.742 19.4708C520.797 19.3946 520.886 19.2279 520.962 18.9708L521.414 17.4662L520.088 17.4739C520.088 17.4739 519.679 17.5341 519.499 17.6006C519.318 17.6748 519.059 17.882 519.059 17.882L519.179 17.4696H518.359L517.213 21.2732C517.172 21.4209 517.145 21.5281 517.138 21.5925C517.136 21.6618 517.226 21.7305 517.284 21.7823C517.353 21.8341 517.454 21.8257 517.551 21.8341C517.654 21.8418 517.799 21.8466 518 21.8466H518.63L518.823 21.1942L518.259 21.2474C518.199 21.2474 518.156 21.2151 518.138 21.1879ZM518.756 18.9884H520.099L520.013 19.2559C520.001 19.2621 519.973 19.2426 519.836 19.2587H518.674L518.756 18.9884ZM519.025 18.0914H520.379L520.282 18.4135C520.282 18.4135 519.644 18.4072 519.541 18.4261C519.092 18.5039 518.829 18.7441 518.829 18.7441L519.025 18.0914ZM520.043 20.1515C520.032 20.1914 520.015 20.2158 519.99 20.2341C519.963 20.2517 519.919 20.258 519.853 20.258H519.662L519.673 19.9322H518.878L518.845 21.5246C518.844 21.6395 518.855 21.706 518.939 21.7592C519.023 21.8257 519.282 21.8342 519.631 21.8342H520.13L520.309 21.2381L519.876 21.262L519.731 21.2704C519.711 21.262 519.693 21.2543 519.672 21.2333C519.653 21.2152 519.623 21.2263 519.628 21.1114L519.631 20.7032L520.086 20.6844C520.332 20.6844 520.437 20.6045 520.527 20.5283C520.612 20.4553 520.64 20.3714 520.672 20.258L520.749 19.8966H520.123L520.043 20.1515Z" fill="#FEFEFE"/>
<rect x="0.75708" y="43.8262" width="46.6667" height="32" rx="6" fill="white"/>
<path fill-rule="evenodd" clip-rule="evenodd" d="M12.9066 67.2738C12.9066 67.0808 12.8611 66.9137 12.7703 66.7727C12.6794 66.6316 12.5599 66.524 12.4117 66.4498C12.5599 66.3756 12.6748 66.266 12.7565 66.1212C12.838 65.9765 12.8788 65.8132 12.8788 65.6313V65.5311C12.8788 65.3083 12.8361 65.1229 12.7509 64.9743C12.6656 64.8258 12.546 64.707 12.3921 64.618C12.2383 64.5288 12.0538 64.4649 11.8389 64.4258C11.6237 64.3869 11.3847 64.3674 11.1214 64.3674C11.0325 64.3674 10.9398 64.3693 10.8435 64.373C10.7469 64.3767 10.6534 64.3813 10.5626 64.3869C10.4717 64.3924 10.3882 64.399 10.3124 64.4064C10.2363 64.4139 10.1742 64.4213 10.126 64.4286C10.0185 64.4473 9.9425 64.4806 9.89805 64.5288C9.85359 64.5772 9.8313 64.6644 9.8313 64.7906V68.1758C9.8313 68.3021 9.85439 68.3892 9.90082 68.4374C9.94712 68.4858 10.0259 68.5191 10.1372 68.5377C10.1927 68.5488 10.2595 68.558 10.3373 68.5655C10.4152 68.5729 10.4995 68.5794 10.5903 68.585C10.6812 68.5905 10.7748 68.5951 10.8712 68.599C10.9676 68.6025 11.0621 68.6045 11.1548 68.6045C11.3958 68.6045 11.6228 68.5859 11.8361 68.5488C12.0492 68.5118 12.2345 68.4458 12.3921 68.3511C12.5498 68.2565 12.6748 68.1284 12.7676 67.967C12.8602 67.8055 12.9066 67.6022 12.9066 67.3572V67.2738ZM11.9613 65.6758C11.9613 65.7353 11.952 65.7919 11.9334 65.8457C11.9148 65.8994 11.8843 65.9458 11.8417 65.985C11.799 66.0238 11.7416 66.0554 11.6693 66.0794C11.597 66.1036 11.5052 66.1156 11.394 66.1156H10.7713V65.1524C10.7897 65.1524 10.8185 65.1516 10.8574 65.1497C10.8963 65.1478 10.9371 65.1469 10.9797 65.1469H11.1938C11.4792 65.1469 11.6786 65.1831 11.7916 65.2555C11.9047 65.3278 11.9613 65.4401 11.9613 65.5922V65.6758ZM11.8194 67.6969C11.9288 67.6116 11.9835 67.4909 11.9835 67.335V67.2738C11.9835 67.1401 11.9408 67.0241 11.8556 66.9257C11.7703 66.8275 11.6164 66.7782 11.394 66.7782H10.7713V67.8193H10.8685C10.9111 67.8193 10.9556 67.8205 11.002 67.8222C11.0483 67.8241 11.0927 67.8251 11.1355 67.8251H11.2272C11.5126 67.8251 11.7101 67.7823 11.8194 67.6969ZM15.9541 66.4553C15.9541 66.2513 15.9235 66.0776 15.8623 65.9347C15.8012 65.7919 15.7149 65.6749 15.6037 65.5839C15.4925 65.493 15.3563 65.4263 15.195 65.3836C15.0337 65.3409 14.853 65.3195 14.6528 65.3195C14.4673 65.3195 14.2866 65.3326 14.1106 65.3586C13.9344 65.3845 13.7944 65.4105 13.6907 65.4364C13.6203 65.4551 13.5851 65.4958 13.5851 65.5588V66.0098C13.5851 66.0471 13.5943 66.0731 13.6129 66.0878C13.6314 66.1027 13.6554 66.1102 13.6852 66.1102H13.7129L13.8798 66.0962C13.9465 66.0907 14.0216 66.0862 14.1051 66.0822C14.1884 66.0786 14.2755 66.0759 14.3664 66.0739C14.4572 66.072 14.5471 66.0711 14.6362 66.0711C14.7658 66.0711 14.8678 66.0953 14.9419 66.1435C15.0161 66.1918 15.0531 66.2958 15.0531 66.4553V66.6558H14.7529C14.2746 66.6558 13.927 66.7309 13.7101 66.8812C13.4933 67.0315 13.3848 67.2701 13.3848 67.5967V67.647C13.3848 67.8287 13.4117 67.9809 13.4654 68.1033C13.5191 68.2258 13.5906 68.3242 13.6795 68.3986C13.7686 68.4727 13.8695 68.5256 13.9827 68.5571C14.0957 68.5887 14.2135 68.6045 14.3358 68.6045C14.5027 68.6045 14.6463 68.5822 14.7668 68.5377C14.8872 68.4932 15.0012 68.4319 15.1088 68.354V68.443C15.1088 68.4727 15.1199 68.4987 15.1422 68.5209C15.1645 68.5432 15.1903 68.5543 15.22 68.5543H15.8429C15.8725 68.5543 15.8984 68.5432 15.9207 68.5209C15.943 68.4987 15.9541 68.4727 15.9541 68.443V66.4553ZM14.8558 67.8889C14.9317 67.8649 15.0031 67.8361 15.0699 67.8027V67.1903H14.7529C14.6565 67.1903 14.5768 67.1986 14.5138 67.2152C14.4507 67.232 14.4006 67.2571 14.3636 67.2905C14.3266 67.3238 14.3006 67.3666 14.2858 67.4185C14.2709 67.4705 14.2635 67.5298 14.2635 67.5967V67.647C14.2635 67.7656 14.2921 67.8416 14.3497 67.8751C14.4072 67.9085 14.4952 67.9251 14.6139 67.9251C14.6991 67.9251 14.7797 67.9132 14.8558 67.8889ZM19.3575 68.4374V66.5833C19.3575 66.4091 19.3437 66.2447 19.3158 66.0907C19.288 65.9368 19.238 65.803 19.1657 65.6897C19.0934 65.5765 18.9933 65.4865 18.8653 65.4197C18.7375 65.3529 18.5734 65.3195 18.3732 65.3195C18.1952 65.3195 18.0376 65.341 17.9005 65.384C17.7633 65.427 17.6188 65.5028 17.4668 65.6112V65.4763C17.4668 65.4465 17.4556 65.4202 17.4334 65.3978C17.4111 65.3754 17.3852 65.364 17.3555 65.364H16.7327C16.7029 65.364 16.677 65.3751 16.6549 65.3974C16.6326 65.4197 16.6215 65.4458 16.6215 65.4754V68.4374C16.6215 68.4671 16.6334 68.4941 16.6576 68.5181C16.6817 68.5423 16.7086 68.5543 16.7382 68.5543H17.4111C17.4408 68.5543 17.4668 68.5423 17.489 68.5182C17.5113 68.4942 17.5223 68.4674 17.5223 68.4377V66.2488C17.6188 66.197 17.7095 66.1545 17.7949 66.1212C17.8801 66.0878 17.9635 66.0711 18.0451 66.0711C18.1303 66.0711 18.1999 66.0794 18.2537 66.0962C18.3074 66.1129 18.349 66.1415 18.3787 66.1825C18.4084 66.223 18.4288 66.2767 18.4399 66.3433C18.451 66.41 18.4567 66.4915 18.4567 66.5878V68.4377C18.4567 68.4674 18.4678 68.4942 18.49 68.5182C18.5122 68.5423 18.5381 68.5543 18.5679 68.5543H19.2408C19.2703 68.5543 19.2972 68.5423 19.3214 68.5181C19.3455 68.4941 19.3575 68.4671 19.3575 68.4374ZM22.0936 67.8975V68.3929C22.0936 68.4337 22.0842 68.4625 22.0657 68.4792C22.0471 68.4959 22.0175 68.5098 21.9767 68.5209C21.8989 68.5395 21.7978 68.558 21.6737 68.5767C21.5494 68.5951 21.4039 68.6045 21.2371 68.6045C20.8441 68.6045 20.5299 68.4839 20.2945 68.2425C20.0591 68.0013 19.9414 67.6524 19.9414 67.1958V66.7282C19.9414 66.2716 20.0591 65.9227 20.2945 65.6815C20.5299 65.4401 20.8441 65.3195 21.2371 65.3195C21.4039 65.3195 21.5494 65.3288 21.6737 65.3473C21.7978 65.366 21.8989 65.3845 21.9767 65.403C22.0175 65.4141 22.0471 65.4281 22.0657 65.4447C22.0842 65.4615 22.0936 65.4903 22.0936 65.5311V66.0266C22.0936 66.0563 22.0833 66.0794 22.0629 66.0962C22.0425 66.1129 22.0175 66.1212 21.9879 66.1212H21.9767C21.8729 66.1102 21.7738 66.1008 21.6792 66.0934C21.5846 66.0862 21.4576 66.0822 21.2983 66.0822C21.2352 66.0822 21.176 66.0925 21.1203 66.1129C21.0646 66.1333 21.0165 66.1686 20.9757 66.2187C20.9348 66.2688 20.9025 66.3355 20.8784 66.4191C20.8542 66.5026 20.8422 66.6056 20.8422 66.7282V67.1958C20.8422 67.3183 20.8542 67.4213 20.8784 67.5049C20.9025 67.5883 20.9348 67.6552 20.9757 67.7052C21.0165 67.7554 21.0646 67.7907 21.1203 67.811C21.176 67.8315 21.2352 67.8417 21.2983 67.8417C21.4576 67.8417 21.5846 67.838 21.6792 67.8306C21.7738 67.8232 21.8729 67.8138 21.9767 67.8027H21.9879C22.0175 67.8027 22.0425 67.811 22.0629 67.8278C22.0833 67.8445 22.0936 67.8677 22.0936 67.8975ZM25.1802 66.7671C25.1802 66.5443 25.1494 66.344 25.0881 66.1658C25.0268 65.9877 24.9377 65.8364 24.8207 65.712C24.7037 65.5877 24.5588 65.4912 24.3861 65.4225C24.2134 65.354 24.0136 65.3195 23.787 65.3195C23.5605 65.3195 23.3608 65.354 23.188 65.4225C23.0153 65.4912 22.8694 65.5877 22.7506 65.712C22.6317 65.8364 22.5416 65.9877 22.4804 66.1658C22.419 66.344 22.3884 66.5443 22.3884 66.7671V67.1569C22.3884 67.3795 22.419 67.58 22.4804 67.7582C22.5416 67.9363 22.6317 68.0876 22.7506 68.212C22.8694 68.3364 23.0153 68.4328 23.188 68.5015C23.3608 68.57 23.5605 68.6045 23.787 68.6045C24.0136 68.6045 24.2134 68.57 24.3861 68.5015C24.5588 68.4328 24.7037 68.3364 24.8207 68.212C24.9377 68.0876 25.0268 67.9363 25.0881 67.7582C25.1494 67.58 25.1802 67.3795 25.1802 67.1569V66.7671ZM23.787 67.8416C24.1151 67.8416 24.2792 67.6134 24.2792 67.1569V66.7671C24.2792 66.3143 24.1151 66.0878 23.787 66.0878C23.6248 66.0878 23.5013 66.1444 23.4166 66.2576C23.3317 66.3709 23.2893 66.5407 23.2893 66.7671V67.1569C23.2893 67.3832 23.3317 67.554 23.4166 67.669C23.5013 67.7842 23.6248 67.8416 23.787 67.8416ZM28.4888 68.4374V66.5833C28.4888 66.4091 28.4747 66.2447 28.4471 66.0907C28.4193 65.9368 28.3692 65.803 28.2968 65.6897C28.2245 65.5765 28.1245 65.4865 27.9966 65.4197C27.8687 65.3529 27.7046 65.3195 27.5045 65.3195C27.3265 65.3195 27.1689 65.341 27.0317 65.384C26.8945 65.427 26.7499 65.5028 26.598 65.6112V65.4763C26.598 65.4465 26.5869 65.4202 26.5645 65.3978C26.5424 65.3754 26.5163 65.364 26.4868 65.364H25.8639C25.8342 65.364 25.8083 65.3751 25.786 65.3974C25.7639 65.4197 25.7527 65.4458 25.7527 65.4754V68.4374C25.7527 68.4671 25.7647 68.4941 25.7888 68.5181C25.813 68.5423 25.8397 68.5543 25.8695 68.5543H26.5424C26.572 68.5543 26.598 68.5423 26.6203 68.5182C26.6424 68.4942 26.6536 68.4674 26.6536 68.4377V66.2488C26.7499 66.197 26.8408 66.1545 26.926 66.1212C27.0114 66.0878 27.0948 66.0711 27.1764 66.0711C27.2616 66.0711 27.3311 66.0794 27.3848 66.0962C27.4385 66.1129 27.4803 66.1415 27.51 66.1825C27.5397 66.223 27.56 66.2767 27.5712 66.3433C27.5823 66.41 27.5878 66.4915 27.5878 66.5878V68.4377C27.5878 68.4674 27.5989 68.4942 27.6212 68.5182C27.6435 68.5423 27.6694 68.5543 27.6991 68.5543H28.3719C28.4016 68.5543 28.4285 68.5423 28.4527 68.5181C28.4767 68.4941 28.4888 68.4671 28.4888 68.4374ZM30.9136 68.019V68.4499C30.9136 68.5125 30.8784 68.5493 30.808 68.5602C30.7226 68.575 30.6485 68.586 30.5856 68.5934C30.5225 68.6008 30.4501 68.6045 30.3687 68.6045C30.2174 68.6045 30.0838 68.5923 29.9677 68.5683C29.8517 68.5441 29.7548 68.4968 29.6774 68.4263C29.6002 68.3558 29.5412 68.2583 29.5006 68.1339C29.4602 68.0096 29.4399 67.8493 29.4399 67.6524V66.0378L28.9951 65.9653C28.9653 65.9579 28.9385 65.9441 28.9144 65.9236C28.8902 65.9032 28.8782 65.8782 28.8782 65.8484V65.4809C28.8782 65.4513 28.8902 65.4244 28.9144 65.4002C28.9385 65.3762 28.9653 65.364 28.9951 65.364H29.4399V64.9074C29.4399 64.8777 29.451 64.8537 29.473 64.8351C29.495 64.8166 29.521 64.8036 29.5505 64.7961L30.2248 64.6793H30.2413C30.2708 64.6793 30.2948 64.6875 30.3133 64.7042C30.3316 64.721 30.3409 64.7442 30.3409 64.7738V65.364H30.7969C30.8264 65.364 30.8524 65.3752 30.8747 65.3977C30.897 65.4201 30.9081 65.4464 30.9081 65.4763V65.931C30.9081 65.9611 30.897 65.9872 30.8747 66.0096C30.8524 66.032 30.8264 66.0433 30.7969 66.0433H30.3409V67.6635C30.3409 67.7748 30.3501 67.8464 30.3687 67.8778C30.3872 67.9094 30.439 67.9251 30.5242 67.9251H30.7969C30.8747 67.9251 30.9136 67.9565 30.9136 68.019ZM33.8831 66.4553C33.8831 66.2513 33.8526 66.0776 33.7913 65.9347C33.7302 65.7919 33.6441 65.6749 33.5329 65.5839C33.4217 65.493 33.2854 65.4263 33.1241 65.3836C32.9629 65.3409 32.7822 65.3195 32.5819 65.3195C32.3963 65.3195 32.2157 65.3326 32.0397 65.3586C31.8635 65.3845 31.7236 65.4105 31.6199 65.4364C31.5492 65.4551 31.5142 65.4958 31.5142 65.5588V66.0098C31.5142 66.0471 31.5233 66.0731 31.5419 66.0878C31.5605 66.1027 31.5845 66.1102 31.6142 66.1102H31.642L31.8089 66.0962C31.8757 66.0907 31.9507 66.0862 32.0341 66.0822C32.1176 66.0786 32.2047 66.0759 32.2955 66.0739C32.3863 66.072 32.4763 66.0711 32.5652 66.0711C32.695 66.0711 32.7969 66.0953 32.8711 66.1435C32.9452 66.1918 32.9823 66.2958 32.9823 66.4553V66.6558H32.682C32.2036 66.6558 31.8561 66.7309 31.6393 66.8812C31.4224 67.0315 31.314 67.2701 31.314 67.5967V67.647C31.314 67.8287 31.3408 67.9809 31.3946 68.1033C31.4482 68.2258 31.5198 68.3242 31.6087 68.3986C31.6977 68.4727 31.7986 68.5256 31.9118 68.5571C32.0249 68.5887 32.1425 68.6045 32.2649 68.6045C32.4318 68.6045 32.5753 68.5822 32.6959 68.5377C32.8163 68.4932 32.9302 68.4319 33.0379 68.354V68.443C33.0379 68.4727 33.049 68.4987 33.0713 68.5209C33.0935 68.5432 33.1195 68.5543 33.1491 68.5543H33.772C33.8016 68.5543 33.8276 68.5432 33.8499 68.5209C33.872 68.4987 33.8831 68.4727 33.8831 68.443V66.4553ZM32.7849 67.8889C32.8608 67.8649 32.9323 67.8361 32.999 67.8027V67.1903H32.682C32.5856 67.1903 32.5059 67.1986 32.4429 67.2152C32.3798 67.232 32.3297 67.2571 32.2928 67.2905C32.2556 67.3238 32.2296 67.3666 32.2149 67.4185C32.2 67.4705 32.1926 67.5298 32.1926 67.5967V67.647C32.1926 67.7656 32.2213 67.8416 32.2788 67.8751C32.3363 67.9085 32.4243 67.9251 32.543 67.9251C32.6282 67.9251 32.7087 67.9132 32.7849 67.8889ZM36.6193 68.3929V67.8975C36.6193 67.8677 36.609 67.8445 36.5887 67.8278C36.5682 67.811 36.5433 67.8027 36.5136 67.8027H36.5025C36.3987 67.8138 36.2995 67.8232 36.2049 67.8306C36.1105 67.838 35.9834 67.8417 35.8241 67.8417C35.7609 67.8417 35.7016 67.8315 35.6461 67.811C35.5905 67.7907 35.5422 67.7554 35.5014 67.7052C35.4607 67.6552 35.4282 67.5883 35.4042 67.5049C35.38 67.4213 35.3681 67.3183 35.3681 67.1958V66.7282C35.3681 66.6056 35.38 66.5026 35.4042 66.4191C35.4282 66.3355 35.4607 66.2688 35.5014 66.2187C35.5422 66.1686 35.5905 66.1333 35.6461 66.1129C35.7016 66.0925 35.7609 66.0822 35.8241 66.0822C35.9834 66.0822 36.1105 66.0862 36.2049 66.0934C36.2995 66.1008 36.3987 66.1102 36.5025 66.1212H36.5136C36.5433 66.1212 36.5682 66.1129 36.5887 66.0962C36.609 66.0794 36.6193 66.0563 36.6193 66.0266V65.5311C36.6193 65.4903 36.61 65.4615 36.5914 65.4447C36.5727 65.4281 36.5433 65.4141 36.5025 65.403C36.4247 65.3845 36.3235 65.366 36.1994 65.3473C36.0751 65.3288 35.9297 65.3195 35.7629 65.3195C35.3697 65.3195 35.0557 65.4401 34.8202 65.6815C34.5848 65.9227 34.4671 66.2716 34.4671 66.7282V67.1958C34.4671 67.6524 34.5848 68.0013 34.8202 68.2425C35.0557 68.4839 35.3697 68.6045 35.7629 68.6045C35.9297 68.6045 36.0751 68.5951 36.1994 68.5767C36.3235 68.558 36.4247 68.5395 36.5025 68.5209C36.5433 68.5098 36.5727 68.4959 36.5914 68.4792C36.61 68.4625 36.6193 68.4337 36.6193 68.3929ZM39.016 68.019V68.4499C39.016 68.5125 38.9807 68.5493 38.9104 68.5602C38.825 68.575 38.7509 68.586 38.688 68.5934C38.6248 68.6008 38.5525 68.6045 38.4711 68.6045C38.3198 68.6045 38.1862 68.5923 38.0702 68.5683C37.954 68.5441 37.8572 68.4968 37.78 68.4263C37.7026 68.3558 37.6436 68.2583 37.6031 68.1339C37.5626 68.0096 37.5423 67.8493 37.5423 67.6524V66.0378L37.0975 65.9653C37.0677 65.9579 37.0409 65.9441 37.0168 65.9236C36.9926 65.9032 36.9806 65.8782 36.9806 65.8484V65.4809C36.9806 65.4513 36.9926 65.4244 37.0168 65.4002C37.0409 65.3762 37.0677 65.364 37.0975 65.364H37.5423V64.9074C37.5423 64.8777 37.5534 64.8537 37.5755 64.8351C37.5974 64.8166 37.6233 64.8036 37.6528 64.7961L38.3271 64.6793H38.3437C38.3732 64.6793 38.3972 64.6875 38.4154 64.7042C38.434 64.721 38.4433 64.7442 38.4433 64.7738V65.364H38.8993C38.9289 65.364 38.9548 65.3752 38.9771 65.3977C38.9993 65.4201 39.0105 65.4464 39.0105 65.4763V65.931C39.0105 65.9611 38.9993 65.9872 38.9771 66.0096C38.9548 66.032 38.9289 66.0433 38.8993 66.0433H38.4433V67.6635C38.4433 67.7748 38.4525 67.8464 38.4711 67.8778C38.4896 67.9094 38.5414 67.9251 38.6268 67.9251H38.8993C38.9771 67.9251 39.016 67.9565 39.016 68.019Z" fill="#005697"/>
<path d="M35.8362 53.6527H26.8014L25.8825 54.6885L22.9007 58.0494V58.0496L21.9819 59.0852H13.0664L13.9711 58.0364L14.3993 57.5399L15.3039 56.4911H11.1959C10.4454 56.4911 9.8313 57.1215 9.8313 57.892V60.8479C9.8313 61.6185 10.4454 62.2489 11.1959 62.2489H26.9232C27.6737 62.2489 28.6989 61.7807 29.2014 61.2084L31.5804 58.4993L35.8362 53.6527Z" fill="#005697"/>
<path d="M37.6516 50.4928C38.4021 50.4928 39.0162 51.1232 39.0162 51.8938V54.8496C39.0162 55.6201 38.4021 56.2507 37.6516 56.2507H33.5569L34.4701 55.2097H34.4703L34.923 54.6936L35.8362 53.6527H26.8015L21.982 59.0891H13.0112L19.4446 51.8062L19.688 51.5306C20.1923 50.9598 21.2189 50.4928 21.9694 50.4928H37.6516V50.4928Z" fill="#FBD500"/>
<rect x="62.4237" y="43.8262" width="46.6667" height="32" rx="6" fill="#1F72CD"/>
<path fill-rule="evenodd" clip-rule="evenodd" d="M70.7899 55.1595L66.4237 64.8219H71.6507L72.2987 63.2813H73.7799L74.4279 64.8219H80.1813V63.6461L80.694 64.8219H83.6701L84.1828 63.6212V64.8219H96.1484L97.6033 63.3213L98.9657 64.8219L105.111 64.8343L100.731 60.0177L105.111 55.1595H99.061L97.6447 56.6324L96.3252 55.1595H83.3082L82.1904 57.6535L81.0465 55.1595H75.8304V56.2954L75.2501 55.1595H70.7899ZM88.6581 56.5316H95.5293L97.6309 58.8017L99.8003 56.5316H101.902L98.7087 60.0163L101.902 63.4609H99.7049L97.6033 61.1644L95.423 63.4609H88.6581V56.5316ZM90.3549 59.2328V57.9672V57.9659H94.6424L96.5132 59.9901L94.5595 62.0253H90.3549V60.6435H94.1035V59.2328H90.3549ZM71.8013 56.5316H74.3492L77.2453 63.0837V56.5316H80.0364L82.2733 61.2294L84.3349 56.5316H87.1121V63.465H85.4222L85.4084 58.032L82.9448 63.465H81.4332L78.9558 58.032V63.465H75.4794L74.8204 61.9106H71.2597L70.602 63.4636H68.7394L71.8013 56.5316ZM71.8677 60.4737L73.0408 57.7047L74.2125 60.4737H71.8677Z" fill="white"/>
<rect x="124.09" y="43.8262" width="46.6667" height="32" rx="6" fill="white"/>
<path fill-rule="evenodd" clip-rule="evenodd" d="M137.29 64.1475H135.216C135.074 64.1475 134.954 64.2506 134.932 64.3907L134.093 69.7094C134.076 69.8144 134.157 69.909 134.264 69.909H135.254C135.396 69.909 135.517 69.8059 135.539 69.6655L135.765 68.231C135.787 68.0905 135.908 67.9875 136.049 67.9875H136.706C138.072 67.9875 138.861 67.3263 139.067 66.0161C139.16 65.4429 139.071 64.9925 138.802 64.677C138.508 64.3308 137.985 64.1475 137.29 64.1475ZM137.53 66.0901C137.416 66.8343 136.848 66.8343 136.298 66.8343H135.985L136.204 65.4443C136.217 65.3604 136.29 65.2985 136.375 65.2985H136.519C136.893 65.2985 137.247 65.2985 137.429 65.512C137.538 65.6394 137.571 65.8286 137.53 66.0901ZM143.491 66.0662H142.497C142.413 66.0662 142.34 66.1281 142.327 66.2122L142.283 66.4899L142.213 66.3893C141.998 66.0771 141.519 65.9729 141.04 65.9729C139.942 65.9729 139.005 66.8042 138.822 67.9703C138.728 68.552 138.862 69.1082 139.192 69.4961C139.495 69.8527 139.928 70.0014 140.443 70.0014C141.328 70.0014 141.818 69.4327 141.818 69.4327L141.774 69.7087C141.757 69.8143 141.839 69.9089 141.944 69.9089H142.839C142.981 69.9089 143.101 69.8057 143.124 69.6654L143.661 66.2658C143.678 66.1612 143.597 66.0662 143.491 66.0662ZM142.106 67.9994C142.01 68.5668 141.56 68.9478 140.985 68.9478C140.697 68.9478 140.466 68.8553 140.319 68.68C140.172 68.5059 140.116 68.2581 140.163 67.9821C140.252 67.4195 140.71 67.0262 141.276 67.0262C141.558 67.0262 141.787 67.1198 141.938 67.2967C142.089 67.4753 142.149 67.7246 142.106 67.9994ZM147.782 66.0661H148.781C148.92 66.0661 149.002 66.2228 148.922 66.3375L145.603 71.1294C145.549 71.207 145.46 71.2532 145.366 71.2532H144.369C144.229 71.2532 144.147 71.0951 144.228 70.9802L145.262 69.5211L144.162 66.2947C144.124 66.1826 144.207 66.0661 144.326 66.0661H145.307C145.434 66.0661 145.547 66.1497 145.584 66.2717L146.167 68.2203L147.544 66.1925C147.598 66.1134 147.687 66.0661 147.782 66.0661Z" fill="#253B80"/>
<path fill-rule="evenodd" clip-rule="evenodd" d="M158.604 69.7094L159.456 64.2933C159.469 64.2093 159.542 64.1474 159.626 64.1471H160.584C160.69 64.1471 160.772 64.242 160.755 64.347L159.915 69.6654C159.894 69.8058 159.773 69.9089 159.631 69.9089H158.775C158.669 69.9089 158.588 69.8143 158.604 69.7094ZM152.085 64.1474H150.011C149.869 64.1474 149.748 64.2505 149.726 64.3906L148.887 69.7094C148.871 69.8143 148.952 69.9089 149.058 69.9089H150.122C150.221 69.9089 150.306 69.8368 150.321 69.7385L150.559 68.2309C150.581 68.0904 150.702 67.9874 150.844 67.9874H151.5C152.867 67.9874 153.655 67.3262 153.861 66.016C153.954 65.4428 153.865 64.9924 153.597 64.6769C153.302 64.3307 152.779 64.1474 152.085 64.1474ZM152.325 66.09C152.211 66.8343 151.643 66.8343 151.093 66.8343H150.78L151 65.4442C151.013 65.3603 151.085 65.2984 151.17 65.2984H151.314C151.688 65.2984 152.042 65.2984 152.224 65.5119C152.333 65.6393 152.366 65.8285 152.325 66.09ZM158.285 66.0661H157.292C157.207 66.0661 157.134 66.128 157.122 66.2121L157.078 66.4898L157.008 66.3892C156.793 66.0771 156.314 65.9728 155.835 65.9728C154.738 65.9728 153.8 66.8041 153.618 67.9703C153.523 68.5519 153.658 69.1081 153.988 69.496C154.291 69.8527 154.723 70.0013 155.239 70.0013C156.123 70.0013 156.613 69.4326 156.613 69.4326L156.569 69.7087C156.552 69.8142 156.634 69.9088 156.74 69.9088H157.635C157.776 69.9088 157.897 69.8056 157.919 69.6653L158.456 66.2657C158.473 66.1611 158.391 66.0661 158.285 66.0661ZM156.9 67.9993C156.805 68.5668 156.354 68.9477 155.78 68.9477C155.492 68.9477 155.261 68.8552 155.113 68.6799C154.966 68.5058 154.911 68.258 154.957 67.9821C155.047 67.4194 155.504 67.0261 156.07 67.0261C156.352 67.0261 156.581 67.1197 156.732 67.2966C156.884 67.4752 156.944 67.7245 156.9 67.9993Z" fill="#179BD7"/>
<path d="M144.966 62.2447L145.221 60.6251L144.653 60.6119H141.941L143.826 48.6601C143.832 48.624 143.851 48.5904 143.879 48.5665C143.906 48.5426 143.942 48.5294 143.979 48.5294H148.553C150.071 48.5294 151.119 48.8454 151.666 49.469C151.922 49.7615 152.085 50.0672 152.164 50.4036C152.247 50.7566 152.249 51.1784 152.168 51.6928L152.162 51.7303V52.0599L152.419 52.2052C152.635 52.3198 152.806 52.4509 152.938 52.6011C153.157 52.8512 153.299 53.1691 153.359 53.546C153.421 53.9336 153.4 54.3949 153.299 54.9171C153.182 55.5177 152.993 56.0409 152.737 56.469C152.502 56.8634 152.203 57.1905 151.848 57.4441C151.508 57.685 151.105 57.8679 150.649 57.9849C150.207 58.0999 149.704 58.158 149.151 58.158H148.795C148.541 58.158 148.294 58.2496 148.1 58.414C147.905 58.5817 147.776 58.8107 147.737 59.0614L147.71 59.2072L147.259 62.0618L147.239 62.1667C147.234 62.1999 147.224 62.2165 147.211 62.2277C147.199 62.2378 147.181 62.2447 147.164 62.2447H144.966Z" fill="#253B80"/>
<path d="M152.661 51.7684C152.648 51.8557 152.632 51.9449 152.615 52.0366C152.011 55.1331 149.948 56.2029 147.313 56.2029H145.971C145.649 56.2029 145.377 56.4369 145.327 56.7548L144.64 61.1118L144.445 62.3467C144.413 62.5554 144.574 62.7436 144.784 62.7436H147.164C147.446 62.7436 147.685 62.5388 147.73 62.2609L147.753 62.14L148.201 59.2964L148.23 59.1405C148.274 58.8616 148.514 58.6569 148.795 58.6569H149.151C151.457 58.6569 153.262 57.7207 153.79 55.0117C154.01 53.8801 153.896 52.9352 153.313 52.2706C153.136 52.0702 152.917 51.904 152.661 51.7684Z" fill="#179BD7"/>
<path d="M152.03 51.5171C151.938 51.4903 151.843 51.4659 151.745 51.444C151.648 51.4226 151.547 51.4035 151.444 51.387C151.082 51.3284 150.686 51.3007 150.261 51.3007H146.676C146.588 51.3007 146.504 51.3206 146.429 51.3567C146.264 51.4362 146.141 51.5927 146.111 51.7843L145.349 56.6142L145.327 56.7551C145.377 56.4372 145.648 56.2032 145.971 56.2032H147.312C149.948 56.2032 152.011 55.1329 152.614 52.0369C152.632 51.9452 152.648 51.856 152.661 51.7687C152.509 51.6878 152.343 51.6186 152.165 51.5596C152.121 51.5449 152.076 51.5308 152.03 51.5171Z" fill="#222D65"/>
<path d="M146.111 51.7842C146.141 51.5926 146.264 51.4361 146.429 51.3571C146.505 51.321 146.588 51.301 146.676 51.301H150.261C150.686 51.301 151.082 51.3288 151.444 51.3873C151.547 51.4039 151.648 51.4229 151.746 51.4443C151.843 51.4663 151.938 51.4907 152.03 51.5175C152.076 51.5311 152.122 51.5453 152.166 51.5594C152.344 51.6184 152.509 51.6881 152.662 51.7686C152.841 50.6243 152.66 49.8451 152.042 49.1396C151.36 48.3629 150.128 48.0304 148.553 48.0304H143.98C143.658 48.0304 143.383 48.2644 143.334 48.5828L141.429 60.6574C141.391 60.8963 141.575 61.1119 141.816 61.1119H144.64L145.349 56.614L146.111 51.7842Z" fill="#253B80"/>
<rect x="185.757" y="43.8262" width="46.6667" height="32" rx="6" fill="white"/>
<path fill-rule="evenodd" clip-rule="evenodd" d="M207.797 64.8369V60.8089H209.876C210.728 60.8089 211.447 60.5235 212.033 59.9605L212.174 59.8178C213.245 58.6522 213.174 56.8365 212.033 55.7582C211.463 55.1873 210.681 54.878 209.876 54.8939H206.539V64.8369H207.797ZM207.797 59.5879V56.1149H209.908C210.361 56.1149 210.791 56.2894 211.112 56.6065C211.792 57.2726 211.807 58.3826 211.151 59.0725C210.83 59.4134 210.377 59.6037 209.908 59.5879H207.797ZM218.043 58.565C217.504 58.0655 216.769 57.8118 215.839 57.8118C214.644 57.8118 213.745 58.2558 213.151 59.1359L214.261 59.8416C214.667 59.239 215.222 58.9377 215.925 58.9377C216.371 58.9377 216.801 59.1042 217.137 59.4055C217.465 59.691 217.652 60.1033 217.652 60.5394V60.8327C217.168 60.5631 216.558 60.4204 215.808 60.4204C214.933 60.4204 214.229 60.6266 213.706 61.0468C213.182 61.4671 212.916 62.0221 212.916 62.7278C212.901 63.37 213.174 63.9806 213.659 64.3929C214.151 64.8369 214.776 65.0589 215.511 65.0589C216.379 65.0589 217.066 64.6704 217.59 63.8933H217.645V64.8369H218.848V60.6424C218.848 59.7623 218.583 59.0646 218.043 58.565ZM214.628 63.5841C214.37 63.3938 214.214 63.0846 214.214 62.7515C214.214 62.3789 214.386 62.0697 214.722 61.8239C215.066 61.5781 215.496 61.4512 216.004 61.4512C216.707 61.4433 217.255 61.6018 217.645 61.919C217.645 62.4582 217.434 62.926 217.02 63.3224C216.645 63.703 216.137 63.9171 215.605 63.9171C215.253 63.925 214.91 63.8061 214.628 63.5841ZM221.552 67.8261L225.757 58.0338H224.389L222.443 62.9181H222.42L220.427 58.0338H219.059L221.818 64.4008L220.255 67.8261H221.552Z" fill="#3C4043"/>
<path d="M203.453 59.9368C203.453 59.5483 203.422 59.1598 203.359 58.7792H198.053V60.9755H201.093C200.968 61.6812 200.561 62.3155 199.968 62.712V64.1392H201.781C202.844 63.1481 203.453 61.6812 203.453 59.9368Z" fill="#4285F4"/>
<path d="M198.053 65.5189C199.569 65.5189 200.851 65.0114 201.781 64.1392L199.968 62.712C199.46 63.0609 198.811 63.2591 198.053 63.2591C196.584 63.2591 195.341 62.2521 194.896 60.9042H193.028V62.379C193.981 64.3057 195.927 65.5189 198.053 65.5189Z" fill="#34A853"/>
<path d="M194.896 60.9042C194.661 60.1985 194.661 59.4294 194.896 58.7158V57.2489H193.028C192.222 58.8585 192.222 60.7615 193.028 62.371L194.896 60.9042Z" fill="#FBBC04"/>
<path d="M198.053 56.3608C198.858 56.345 199.632 56.6542 200.21 57.2172L201.82 55.5838C200.796 54.6164 199.452 54.0852 198.053 54.1011C195.927 54.1011 193.981 55.3221 193.028 57.2489L194.896 58.7237C195.341 57.3678 196.584 56.3608 198.053 56.3608Z" fill="#EA4335"/>
<rect x="247.424" y="43.8262" width="46.6667" height="32" rx="6" fill="white"/>
<path fill-rule="evenodd" clip-rule="evenodd" d="M261.591 65.5039H258.764L256.644 57.416C256.543 57.044 256.329 56.7151 256.015 56.5601C255.231 56.1705 254.367 55.8605 253.424 55.7041V55.3927H257.978C258.606 55.3927 259.078 55.8605 259.156 56.4037L260.256 62.2377L263.082 55.3927H265.831L261.591 65.5039ZM267.402 65.5039H264.732L266.931 55.3927H269.601L267.402 65.5039ZM273.055 58.1938C273.133 57.6493 273.605 57.3379 274.155 57.3379C275.019 57.2597 275.961 57.4161 276.746 57.8043L277.218 55.6273C276.432 55.3159 275.568 55.1595 274.783 55.1595C272.192 55.1595 270.306 56.5601 270.306 58.5039C270.306 59.9826 271.642 60.759 272.585 61.2268C273.605 61.6932 273.998 62.0045 273.919 62.4709C273.919 63.1705 273.133 63.4819 272.349 63.4819C271.406 63.4819 270.463 63.2487 269.601 62.8592L269.129 65.0375C270.072 65.4257 271.092 65.5821 272.035 65.5821C274.941 65.6589 276.746 64.2597 276.746 62.1596C276.746 59.5148 273.055 59.3598 273.055 58.1938ZM286.09 65.5039L283.97 55.3927H281.693C281.222 55.3927 280.75 55.7041 280.593 56.1705L276.668 65.5039H279.416L279.965 64.0265H283.342L283.656 65.5039H286.09ZM282.086 58.1157L282.87 61.9264H280.672L282.086 58.1157Z" fill="#172B85"/>
<defs>
<linearGradient id="paint0_linear_6297_33123" x1="337.252" y1="16.1482" x2="345.039" y2="16.1482" gradientUnits="userSpaceOnUse">
<stop stop-color="#58B03A"/>
<stop offset="1" stop-color="#55B330"/>
</linearGradient>
<linearGradient id="paint1_linear_6297_33123" x1="319.682" y1="16.7344" x2="327.502" y2="16.7344" gradientUnits="userSpaceOnUse">
<stop stop-color="#0F6EB6"/>
<stop offset="1" stop-color="#006DBA"/>
</linearGradient>
<linearGradient id="paint2_linear_6297_33123" x1="328.565" y1="16.3318" x2="336.357" y2="16.3318" gradientUnits="userSpaceOnUse">
<stop stop-color="#DE0D3D"/>
<stop offset="1" stop-color="#E30138"/>
</linearGradient>
</defs>
</svg>
